<?xml version="1.0" encoding="utf-8"?>
<!-- Generator: Adobe Illustrator 16.0.0, SVG Export Plug-In . SVG Version: 6.00 Build 0)  -->
<!DOCTYPE svg PUBLIC "-//W3C//DTD SVG 1.1//EN" "http://www.w3.org/Graphics/SVG/1.1/DTD/svg11.dtd">
<svg version="1.1" id="圖層_1" xmlns="http://www.w3.org/2000/svg" xmlns:xlink="http://www.w3.org/1999/xlink" x="0px" y="0px"
	 width="1559.525px" height="297.748px" viewBox="0 0 1559.525 297.748" enable-background="new 0 0 1559.525 297.748"
	 xml:space="preserve">
<g>
	<g>
		<g>
			<g>
				<g>
					<polygon fill="#6D6E71" points="1464.63,222.045 1464.63,106.225 1416.168,106.225 1416.168,75.562 1554.603,75.562 
						1554.603,106.225 1505.615,106.225 1505.615,222.045 					"/>
					<path fill="#FFFFFF" d="M1549.682,80.483v20.82h-48.988v115.82h-31.143v-115.82h-48.462v-20.82H1549.682 M1559.525,70.641
						h-9.843h-128.593h-9.843v9.843v20.82v9.843h9.843h38.619v105.978v9.843h9.843h31.143h9.843v-9.843V111.146h39.146h9.843v-9.843
						v-20.82V70.641L1559.525,70.641z"/>
				</g>
				<g>
					<path fill="#6D6E71" d="M1324.864,224.318c-24.452,0-45.364-7.256-60.476-20.982c-14.719-13.37-22.824-32.333-22.824-53.396
						c0-44.763,34.887-76.283,84.838-76.651h0.913c25.122,0,46.44,7.366,61.649,21.302c14.525,13.309,22.524,32.096,22.524,52.9
						c0,23.207-8.457,42.738-24.459,56.482c-15.173,13.032-36.106,20.067-60.536,20.346h-0.027H1324.864z M1326.438,103.073
						c-19.439,0-42.141,12.138-42.141,46.343c0,26.941,16.947,45.143,42.17,45.291h0.146c25.601,0,42.144-18.19,42.144-46.343
						c0-12.184-3.798-23.398-10.694-31.578c-7.563-8.971-18.438-13.713-31.449-13.713H1326.438z"/>
					<path fill="#FFFFFF" d="M1327.315,78.209c49.863,0,79.253,30.265,79.253,69.281c0,45.312-33.941,71.382-80.13,71.907
						c-0.524,0-1.048,0-1.574,0c-47.938,0-78.379-29.392-78.379-69.458c0-41.813,32.54-71.381,79.953-71.73
						C1326.791,78.209,1327.139,78.209,1327.315,78.209 M1326.438,199.628c0.175,0,0.175,0,0.175,0
						c30.092,0,47.064-22.569,47.064-51.264c0-25.718-15.92-50.212-47.064-50.212c0,0,0,0-0.175,0
						c-30.616,0-47.062,23.096-47.062,51.264C1279.376,177.234,1296.697,199.453,1326.438,199.628 M1327.315,68.366h-0.877h-0.036
						l-0.036,0.001c-25.659,0.188-47.884,8.088-64.271,22.844c-16.413,14.78-25.453,35.637-25.453,58.729
						c0,22.468,8.679,42.725,24.438,57.039c16.032,14.563,38.088,22.262,63.784,22.262h1.574h0.056l0.057-0.001
						c25.602-0.291,47.623-7.737,63.687-21.534c17.123-14.707,26.174-35.529,26.174-60.215c0-22.201-8.566-42.276-24.121-56.528
						C1376.157,76.18,1353.689,68.366,1327.315,68.366L1327.315,68.366z M1326.466,189.785
						c-11.312-0.073-20.771-4.027-27.355-11.436c-6.379-7.177-9.892-17.452-9.892-28.934c0-11.901,3.441-22.485,9.691-29.803
						c6.584-7.71,15.846-11.618,27.527-11.618h0.175c25.713,0,37.222,20.275,37.222,40.369c0,11.992-3.494,22.627-9.841,29.943
						c-6.513,7.509-15.98,11.478-27.381,11.478H1326.466L1326.466,189.785z"/>
				</g>
				<g>
					<polygon fill="#6D6E71" points="1125.219,222.045 1125.219,75.562 1166.203,75.562 1166.203,191.382 1236.186,191.382 
						1236.186,222.045 					"/>
					<path fill="#FFFFFF" d="M1161.282,80.483v115.819h69.983v20.821H1130.14V80.483H1161.282 M1171.125,70.641h-9.843h-31.142
						h-9.843v9.843v136.641v9.843h9.843h101.125h9.843v-9.843v-20.821v-9.843h-9.843h-60.141V80.483V70.641L1171.125,70.641z"/>
				</g>
				<g>
					<path fill="#6D6E71" d="M1059.27,222.045l-15.396-38.666h-47.492l-14.521,38.666h-42.864l58.519-146.482h46.363l59.271,146.482
						H1059.27z M1034.546,154.642l-10.632-26.86c-1.521-3.764-2.93-7.69-4.245-11.598c-1.206,3.907-2.478,7.822-3.903,11.546
						l-10.512,26.912H1034.546z"/>
					<path fill="#FFFFFF" d="M1040.561,80.483l55.289,136.641h-33.242l-15.396-38.666h-27.295h-26.943l-14.521,38.666h-32.191
						l54.586-136.641h19.069H1040.561 M998.048,159.562h21.869h21.869l-13.296-33.593c-3.325-8.222-6.122-17.32-8.573-25.193
						c0-0.172,0-0.349-0.176-0.349h-0.349c-2.624,7.875-5.075,17.32-8.223,25.542L998.048,159.562 M1047.196,70.641h-6.635h-20.644
						h-19.069h-6.667l-2.473,6.191l-54.587,136.641l-5.391,13.494h14.531h32.191h6.817l2.396-6.383l12.125-32.283h20.126h20.62
						l12.926,32.464l2.47,6.202h6.675h33.242h14.601l-5.477-13.534l-55.289-136.641L1047.196,70.641L1047.196,70.641z
						 M1012.459,149.72l7.374-18.878l7.473,18.878h-7.389H1012.459L1012.459,149.72z"/>
				</g>
				<g>
					<path fill="#6D6E71" d="M890.131,222.045l-46.407-60.194l-9.761,9.424v50.771h-40.635V75.562h40.635v55.01
						c1.54-1.773,3.128-3.548,4.759-5.315l45.901-49.694h52.4l-63.946,63.562l66.076,82.921H890.131z"/>
					<path fill="#FFFFFF" d="M925.092,80.483l-58.611,58.259l62.459,78.382h-36.389l-48.288-62.635l-15.222,14.696v47.938H798.25
						V80.483h30.792v62.807h0.875c4.024-5.248,8.224-10.146,12.422-14.695l44.439-48.111H925.092 M948.956,70.641h-23.863h-38.315
						h-4.308l-2.922,3.164l-40.664,44.024V80.483v-9.843h-9.842H798.25h-9.842v9.843v136.641v9.843h9.842h30.792h9.842v-9.843
						v-43.76l4.301-4.153l41.571,53.923l2.955,3.833h4.84h36.389h20.428l-12.731-15.977l-56.963-71.484l52.356-52.042
						L948.956,70.641L948.956,70.641z"/>
				</g>
				<g>
					<path fill="#6D6E71" d="M551.462,222.045l-3.413-60.279c-0.562-9.455-1.244-20.947-1.682-32.746
						c-3.645,9.553-7.68,19.44-11.985,29.354l-25.903,62.097h-30.789l-23.964-61.571c-3.395-9.08-6.553-18.15-9.406-26.988
						c-0.55,11.048-1.146,21.549-1.744,30.601l-4.17,59.534h-38.979l12.191-146.482h48.787l23.5,58.106
						c4.063,10.681,7.961,22.007,11.639,33.815c4.005-12.027,8.296-23.626,12.631-34.119l24.745-57.803h48.236l10.69,146.482
						H551.462z"/>
					<path fill="#FFFFFF" d="M576.582,80.483l9.972,136.641h-30.441l-3.149-55.637c-1.05-17.67-2.275-39.015-2.1-57.735h-0.7
						c-5.598,16.97-12.771,35.34-20.294,52.66L505.2,215.549h-24.144l-22.743-58.436c-6.474-17.32-12.598-36.041-17.147-53.361
						h-0.524c-0.7,18.021-1.75,39.891-2.975,58.435l-3.848,54.938h-29.043l11.373-136.641h40.94l22.218,54.936
						c6.125,16.097,11.372,32.365,15.747,47.588h0.699c4.549-14.87,10.322-31.667,16.971-47.763l23.443-54.761H576.582
						 M585.732,70.641h-9.15h-40.415h-6.493l-2.556,5.969l-23.443,54.762l-0.024,0.057l-0.024,0.059
						c-2.677,6.479-5.337,13.376-7.923,20.53c-2.331-6.91-4.734-13.621-7.198-20.098l-0.037-0.096l-0.038-0.095l-22.218-54.936
						l-2.488-6.152h-6.636h-40.94h-9.057l-0.751,9.026l-11.373,136.641l-0.887,10.659h10.696h29.043h9.177l0.641-9.155l3.848-54.938
						c0.121-1.835,0.243-3.73,0.363-5.675c0.411,1.119,0.827,2.24,1.246,3.36l0.023,0.062l0.024,0.062l22.743,58.436l2.441,6.272
						h6.731H505.2h6.559l2.525-6.054l24.641-59.069c1.228-2.826,2.433-5.65,3.614-8.466c0.204,3.611,0.409,7.057,0.6,10.269
						l3.148,55.609l0.525,9.286h9.301h30.441h10.587l-0.771-10.56l-9.972-136.641L585.732,70.641L585.732,70.641z"/>
				</g>
				<g>
					<path fill="#6D6E71" d="M727.38,222.045l-15.396-38.666h-47.329l-14.697,38.666h-42.852l58.519-146.482h46.361l59.457,146.482
						H727.38z M702.656,154.642l-10.63-26.861c-1.533-3.789-2.905-7.715-4.202-11.639c-1.176,3.889-2.402,7.8-3.742,11.502
						l-10.683,26.998H702.656z"/>
					<path fill="#FFFFFF" d="M708.672,80.483l55.461,136.641h-33.416l-15.396-38.666h-27.294H661.26l-14.697,38.666h-32.192
						l54.587-136.641h19.069H708.672 M666.158,159.562h21.869h21.869l-13.294-33.593c-3.325-8.222-5.949-17.32-8.575-25.193v-0.349
						h-0.524c-2.625,7.875-5.073,17.32-8.048,25.542L666.158,159.562 M715.299,70.641h-6.627h-20.645h-19.069h-6.667l-2.474,6.191
						l-54.587,136.641l-5.391,13.494h14.531h32.192h6.789l2.412-6.346l12.285-32.32h19.979h20.619l12.927,32.465l2.469,6.201h6.675
						h33.416h14.617l-5.498-13.545L717.792,76.781L715.299,70.641L715.299,70.641z M680.639,149.72l7.389-18.667l7.388,18.667
						h-7.389H680.639L680.639,149.72z"/>
				</g>
			</g>
		</g>
		<g>
			<path fill="#FFFFFF" d="M268.058,291.728l-4.854-1.142l-4.558-1.454l-4.316-1.822l-4.161-2.031l-3.884-2.43l-3.667-2.604
				l-3.415-2.928l-3.278-3.28l-2.872-3.349l-2.723-3.569l-2.528-3.65l-2.428-3.924l-2.276-4.077l-0.341-0.746l-0.973,1.368
				l-5.74,7.714l-2.99,3.64l-2.904,3.358l-3.122,3.31l-3.352,3.062l-3.215,2.756l-3.585,2.713l-3.8,2.339l-3.881,2.037l-4.19,1.755
				l-4.487,1.464l-4.731,1.061l-5.916,0.91l-5.69-1.821l-4.559-1.806l-4.174-1.817l-4.226-2.066l-3.993-2.279l-3.871-2.551
				l-3.562-2.624l-3.564-2.891l-3.21-3.211l-2.964-3.151l-2.826-3.508l-2.491-3.735l-2.271-3.787l-1.527-2.983l-0.209,0.354
				l-2.872,4.634l-3.064,4.364l-2.987,3.892l-3.211,4.062l-3.366,3.46l-3.389,3.39l-3.538,2.964l-3.601,2.725l-3.801,2.241
				l-3.793,1.999l-4.116,1.44l-4.138,1.007l-4.185,0.526l-4.635-0.111l-4.559-1.141l-4.118-1.274l-4.045-1.777l-3.936-2.065
				l-3.613-2.44l-3.539-2.677l-3.47-3.085l-3.147-3.242l-3.014-3.484l-2.926-3.777l-2.744-4.07l-2.677-4.248l-4.699-9.03
				l-4.22-9.906l-3.644-10.656l-3.179-11.173l-2.537-11.781l-2.078-12.286l-1.447-12.772l-1.073-12.964l-0.451-13.33l0.09-13.388
				c0.004-0.923,0.105-22.951,0.643-28.521c0.504-5.231,1.709-9.408,2.008-10.39l2.205-9.346l2.724-9.351l3.089-9.09l3.544-8.813
				l3.834-8.491l4.318-7.993l4.696-7.551l5.073-6.918l2.826-3.391l2.919-3.197l2.792-2.886l3.158-2.787l3.126-2.652l3.24-2.384
				l3.432-2.288l3.521-1.998l3.508-1.8l3.764-1.642l3.892-1.362l3.93-1.053L81.27,5.59l4.56-0.636l3.588,0.345l3.139,0.649
				l3.106,1.072l2.993,1.389l2.767,1.745l2.669,1.78l2.631,2.326l2.478,2.383l2.482,2.673l2.473,2.948l4.856,6.505l4.908,7.363
				l1.549,2.528l1.165-1.371l5.844-6.302l6.059-5.782l3.144-2.667l3.242-2.593l6.541-4.484l3.534-1.962l3.492-1.792l3.697-1.46
				l3.658-1.25l3.769-0.968l4.616-0.923l4.775,0.91l4.039,0.962l3.787,1.262l3.616,1.428l3.664,1.684l3.572,2.187l3.208,2.108
				l3.323,2.441l3.227,2.937l2.942,2.851l3.028,3.312l2.891,3.544l2.889,3.82l2.823,4.237l1.282,2.06l0.744-1.163l5.216-7.231
				l5.339-6.536l2.97-3.155l2.804-2.805l3.065-2.588l3.054-2.385l3.166-2.108l3.137-1.996l3.399-1.701l3.409-1.403l3.621-1.078
				l4.4-1.101L271.82,8.5l3.132,0.782l6.073,2.351l5.648,3.064l2.961,1.874l2.759,2.069l2.583,2.201l2.481,2.291l2.467,2.561
				l2.363,2.646L306.836,34l4.268,6.31l4.043,6.8l3.753,7.229l3.541,7.721l3.347,8.049l3.168,8.51l2.902,8.889l2.693,8.986
				l2.606,9.614l4.395,20.989l1.098,6.951l0.82,7.016l0.547,7.037l0.361,6.862v6.86l-0.09,6.895l-0.368,6.964l-0.545,6.781
				l-0.723,6.689l-1.085,6.601l-1.082,6.493l-1.375,6.505l-1.624,6.225l-1.731,6.201l-1.922,5.947l-2.214,5.989l-2.256,5.596
				l-2.512,5.481l-2.624,5.246l-2.902,5.143l-2.923,4.75l-3.199,4.478l-3.298,4.432l-3.604,3.98l-3.52,3.707l-3.874,3.401
				l-3.995,3.232l-4.11,2.676l-4.251,2.515l-4.513,1.962l-4.635,1.642l-5.481,1.369L268.058,291.728z"/>
			<path fill="#FFFFFF" d="M85.936,9.908l2.746,0.264l2.569,0.531l2.569,0.887l2.479,1.151l2.393,1.507l2.391,1.595l2.303,2.036
				l2.303,2.215l2.303,2.48l2.303,2.746l4.695,6.289l4.783,7.175l5.049,8.239l5.493-6.466l5.669-6.113l5.847-5.58l2.923-2.482
				l3.101-2.48l3.1-2.126l3.101-2.124l3.189-1.773l3.277-1.682l3.366-1.329l3.367-1.151l3.454-0.887l3.544-0.709l3.72,0.709
				l3.72,0.887l3.455,1.151l3.366,1.329l3.278,1.506l3.188,1.949l3.101,2.037l3.012,2.213l2.923,2.658l2.835,2.747l2.834,3.1
				l2.746,3.367l2.746,3.631l2.658,3.986l5.403,8.682l4.872-7.617l5.049-7l5.137-6.289l2.747-2.922l2.657-2.658l2.835-2.394
				l2.834-2.213l2.924-1.949l2.923-1.86l3.011-1.507l3.012-1.24l3.277-0.976l3.189-0.798l2.923,0.622l2.834,0.707l5.493,2.126
				l5.226,2.835l2.657,1.682l2.48,1.86l2.392,2.038l2.303,2.126l2.303,2.391l2.215,2.48l4.34,5.404l4.075,6.024l3.897,6.556
				l3.632,6.997l3.454,7.531l3.277,7.881l3.101,8.329l2.835,8.68l2.657,8.859l2.569,9.477l4.34,20.729l1.063,6.732l0.797,6.822
				l0.531,6.819l0.354,6.733v6.73l-0.088,6.732l-0.354,6.733l-0.532,6.645l-0.708,6.555l-1.063,6.467l-1.062,6.377l-1.329,6.288
				l-1.594,6.113l-1.683,6.024l-1.86,5.757l-2.126,5.758l-2.214,5.491l-2.392,5.226l-2.569,5.138l-2.746,4.873l-2.834,4.606
				l-3.101,4.34l-3.101,4.164l-3.366,3.72l-3.366,3.545l-3.632,3.188l-3.72,3.011l-3.809,2.479l-3.897,2.305l-4.075,1.771
				l-4.252,1.506l-4.252,1.062l-4.695-0.798l-4.518-1.062l-4.163-1.328l-3.986-1.683l-3.809-1.859l-3.543-2.216l-3.367-2.391
				l-3.101-2.658l-3.011-3.013l-2.658-3.1l-2.569-3.367l-2.392-3.453l-2.303-3.722l-2.126-3.809l-3.809-8.326l-5.846,8.237
				l-5.669,7.619l-2.834,3.453l-2.834,3.278l-2.923,3.1l-3.1,2.835l-3.101,2.658l-3.277,2.479l-3.455,2.127l-3.543,1.859
				l-3.809,1.596l-4.075,1.329l-4.341,0.973l-4.606,0.709l-4.429-1.418l-4.252-1.682l-4.074-1.773l-3.987-1.949l-3.72-2.124
				l-3.632-2.393l-3.366-2.48l-3.277-2.657l-2.923-2.922l-2.835-3.014l-2.569-3.188l-2.303-3.453l-2.126-3.544l-1.949-3.809
				l-1.594-3.898l-1.329-4.164l-5.404,9.124l-2.746,4.429l-2.923,4.164l-2.923,3.809l-3.011,3.809l-3.189,3.278l-3.188,3.188
				l-3.278,2.746l-3.277,2.48l-3.455,2.037l-3.366,1.773l-3.543,1.24l-3.632,0.884l-3.543,0.445l-3.721-0.089l-3.897-0.976
				l-3.721-1.151l-3.632-1.596l-3.543-1.859l-3.277-2.214l-3.278-2.479l-3.189-2.836l-2.923-3.011l-2.834-3.277l-2.746-3.544
				l-2.569-3.809l-2.569-4.076l-4.518-8.682l-4.075-9.565l-3.543-10.364l-3.1-10.895l-2.48-11.518l-2.038-12.046l-1.417-12.49
				l-1.063-12.844l-0.443-13.11l0.089-13.288c0,0,0.099-22.673,0.62-28.081s1.86-9.566,1.86-9.566l2.214-9.388l2.658-9.124
				l3.011-8.859l3.455-8.593l3.72-8.237l4.164-7.707l4.518-7.264l4.872-6.644l2.658-3.189l2.746-3.011l2.657-2.746l3.012-2.658
				l2.923-2.479l3.011-2.216l3.189-2.126l3.277-1.86l3.278-1.682l3.454-1.507l3.544-1.24l3.631-0.973l3.72-0.797L85.936,9.908
				 M85.724,0l-1.148,0.16l-3.809,0.531l-0.354,0.049l-0.35,0.075l-3.72,0.798L76.1,1.665L75.858,1.73l-3.631,0.973l-0.355,0.095
				L71.524,2.92L67.98,4.16l-0.347,0.122l-0.337,0.147l-3.454,1.507l-0.283,0.124L63.284,6.2l-3.278,1.682l-0.185,0.095
				l-0.181,0.103l-3.277,1.86l-0.308,0.175l-0.294,0.196l-3.189,2.126l-0.19,0.127l-0.184,0.135l-3.011,2.216l-0.274,0.201
				l-0.259,0.22l-2.923,2.479l-0.074,0.062l-0.072,0.064l-3.013,2.658l-0.291,0.257l-0.27,0.279l-2.657,2.746l-0.101,0.104
				l-0.098,0.107l-2.746,3.011l-0.148,0.163l-0.141,0.169l-2.658,3.189l-0.195,0.234l-0.181,0.247l-4.872,6.644l-0.222,0.303
				l-0.199,0.319l-4.518,7.264l-0.159,0.255l-0.143,0.265l-4.164,7.708l-0.166,0.308l-0.145,0.319l-3.72,8.237l-0.084,0.188
				l-0.077,0.191l-3.455,8.593l-0.101,0.25l-0.086,0.255l-3.011,8.859l-0.07,0.205l-0.061,0.209L5.178,90.6l-0.071,0.245
				l-0.059,0.248l-2.139,9.068c-0.424,1.411-1.628,5.758-2.153,11.201c-0.549,5.693-0.655,26.615-0.666,28.982L0.001,153.61
				L0,153.81l0.007,0.199l0.443,13.11l0.008,0.239l0.02,0.239l1.063,12.844l0.013,0.149l0.017,0.148l1.417,12.49l0.03,0.268
				l0.045,0.265L5.1,205.808l0.037,0.216l0.046,0.215l2.48,11.518l0.067,0.313l0.087,0.308l3.1,10.895l0.07,0.248l0.083,0.242
				l3.543,10.365l0.117,0.341l0.141,0.332l4.075,9.565l0.149,0.35l0.175,0.336l4.518,8.682l0.188,0.361l0.217,0.343l2.569,4.077
				l0.082,0.129l0.086,0.127l2.569,3.81l0.181,0.268l0.198,0.256l2.746,3.544l0.162,0.209l0.174,0.201l2.834,3.277l0.186,0.215
				l0.197,0.203l2.923,3.011l0.251,0.259l0.27,0.239l3.189,2.836l0.292,0.26l0.311,0.235l3.278,2.479l0.21,0.159l0.218,0.147
				l3.277,2.214l0.452,0.306l0.483,0.253l3.543,1.859l0.302,0.159l0.312,0.137l3.632,1.596l0.514,0.226l0.536,0.166l3.721,1.151
				l0.258,0.08l0.262,0.065l3.897,0.976l1.062,0.266l1.094,0.026l3.721,0.089l0.734,0.018l0.729-0.092l3.543-0.445l0.556-0.07
				l0.544-0.132l3.632-0.884l0.469-0.114l0.456-0.159l3.543-1.24l0.69-0.241l0.647-0.341l3.366-1.773l0.208-0.11l0.203-0.119
				l3.455-2.037l0.488-0.288l0.453-0.343l3.277-2.48l0.194-0.146l0.187-0.156l3.278-2.746l0.333-0.278l0.306-0.307l3.188-3.188
				l0.048-0.048l0.047-0.049l3.189-3.278l0.353-0.362l0.313-0.396l3.011-3.809l0.044-0.056l0.043-0.056l2.923-3.809l0.127-0.166
				l0.121-0.172l1.791-2.551l0.036,0.055l2.303,3.453l0.246,0.368l0.278,0.346l2.569,3.188l0.237,0.294l0.259,0.275l2.835,3.014
				l0.104,0.11l0.107,0.106l2.923,2.922l0.362,0.362l0.397,0.322l3.277,2.657l0.177,0.144l0.183,0.135l3.367,2.48l0.208,0.153
				l0.216,0.142l3.632,2.393l0.262,0.173l0.273,0.156l3.72,2.124l0.273,0.156l0.283,0.138l3.987,1.949l0.195,0.096l0.199,0.087
				l4.074,1.773l0.153,0.066l0.155,0.062l4.252,1.682l0.306,0.121l0.313,0.101l4.429,1.418l2.208,0.706l2.291-0.353l4.606-0.709
				l0.329-0.051l0.326-0.072l4.34-0.973l0.456-0.103l0.444-0.145l4.075-1.329l0.381-0.124l0.37-0.155l3.809-1.596l0.393-0.165
				l0.377-0.198l3.543-1.859l0.299-0.156l0.287-0.177l3.455-2.127l0.402-0.248l0.376-0.284l3.278-2.479l0.239-0.182l0.229-0.195
				l3.101-2.658l0.12-0.103l0.116-0.106l3.1-2.835l0.269-0.246l0.25-0.265l2.923-3.1l0.146-0.154l0.139-0.161l2.834-3.278
				l0.083-0.096l0.08-0.097l2.834-3.453l0.149-0.182l0.14-0.188l2.14-2.876l1.348,2.179l0.134,0.216l0.145,0.209l2.392,3.453
				l0.129,0.187l0.137,0.18l2.569,3.367l0.17,0.224l0.183,0.213l2.658,3.1l0.245,0.286l0.266,0.266l3.011,3.013l0.268,0.268
				l0.288,0.247l3.101,2.658l0.341,0.292l0.367,0.261l3.367,2.391l0.235,0.167l0.244,0.152l3.543,2.216l0.438,0.273l0.464,0.227
				l3.809,1.859l0.242,0.118l0.248,0.104l3.986,1.683l0.411,0.174l0.425,0.136l4.163,1.328l0.365,0.116l0.373,0.088l4.518,1.062
				l0.3,0.07l0.304,0.052l4.695,0.798l2.034,0.346l2.001-0.5l4.252-1.062l0.456-0.114l0.443-0.157l4.252-1.506l0.324-0.114
				l0.314-0.137l4.075-1.771l0.56-0.243l0.526-0.312l3.897-2.305l0.183-0.107l0.178-0.116l3.809-2.479l0.426-0.277l0.396-0.32
				l3.72-3.011l0.153-0.124l0.148-0.13l3.632-3.188l0.336-0.295l0.308-0.324l3.366-3.545l0.081-0.086l0.08-0.087l3.366-3.72
				l0.315-0.349l0.281-0.378l3.101-4.164l0.058-0.077l0.056-0.079l3.101-4.34l0.197-0.275l0.177-0.289l2.834-4.606l0.099-0.161
				l0.093-0.164l2.746-4.873l0.12-0.212l0.109-0.218l2.569-5.138l0.076-0.152l0.071-0.154l2.392-5.226l0.094-0.205l0.085-0.21
				l2.214-5.491l0.055-0.135l0.05-0.137l2.126-5.758l0.07-0.19l0.062-0.192l1.86-5.757l0.061-0.188l0.053-0.19l1.683-6.024
				l0.023-0.082l0.021-0.083l1.594-6.113l0.058-0.223l0.048-0.226l1.329-6.288l0.044-0.208l0.035-0.21l1.062-6.376l1.066-6.488
				l0.044-0.269l0.029-0.271l0.708-6.555l0.015-0.136l0.011-0.137l0.532-6.645l0.011-0.134l0.007-0.134l0.354-6.733l0.01-0.194
				l0.002-0.194l0.089-6.732l0-0.064v-0.064v-6.73v-0.259l-0.014-0.259l-0.354-6.733l-0.007-0.123l-0.01-0.124l-0.531-6.819
				l-0.015-0.189l-0.022-0.188l-0.797-6.822l-0.023-0.196l-0.031-0.196l-1.063-6.732l-0.039-0.242l-0.05-0.24l-4.34-20.729
				l-0.059-0.28l-0.075-0.277l-2.569-9.477l-0.034-0.127l-0.038-0.126l-2.658-8.859l-0.034-0.114l-0.037-0.113l-2.835-8.68
				l-0.062-0.19l-0.07-0.188l-3.101-8.329l-0.065-0.174l-0.071-0.172l-3.277-7.881l-0.068-0.163l-0.074-0.16l-3.454-7.532
				l-0.1-0.218l-0.111-0.214l-3.632-6.997l-0.13-0.251l-0.145-0.244l-3.897-6.556l-0.147-0.247l-0.161-0.238l-4.075-6.024
				l-0.226-0.334l-0.252-0.314l-4.34-5.404l-0.161-0.201l-0.171-0.192l-2.215-2.48l-0.124-0.139l-0.129-0.134l-2.303-2.391
				l-0.2-0.207l-0.211-0.195l-2.303-2.126l-0.144-0.133l-0.149-0.127l-2.392-2.038l-0.233-0.198l-0.245-0.184l-2.48-1.86
				l-0.312-0.234l-0.33-0.208l-2.657-1.682l-0.279-0.177l-0.29-0.158l-5.226-2.835l-0.553-0.3l-0.587-0.228l-5.493-2.126
				l-0.574-0.222l-0.597-0.149l-2.834-0.707l-0.166-0.042l-0.167-0.036l-2.923-0.622l-2.228-0.474l-2.209,0.553l-3.189,0.798
				l-0.211,0.053l-0.208,0.062l-3.277,0.976l-0.478,0.143l-0.461,0.189l-3.012,1.24l-0.334,0.138l-0.323,0.162l-3.012,1.507
				l-0.452,0.226l-0.427,0.271l-2.923,1.86l-0.088,0.056l-0.087,0.058l-2.924,1.949l-0.308,0.205l-0.292,0.227l-2.834,2.213
				l-0.148,0.116l-0.144,0.122l-2.835,2.394l-0.317,0.268l-0.293,0.293l-2.657,2.658l-0.107,0.107l-0.104,0.11l-2.747,2.922
				l-0.234,0.25l-0.217,0.265l-5.137,6.289l-0.187,0.229l-0.173,0.24l-1.72,2.384l-0.091-0.137l-0.163-0.244l-0.177-0.233
				l-2.746-3.631l-0.109-0.144l-0.114-0.14l-2.746-3.367l-0.176-0.215l-0.188-0.205l-2.834-3.1l-0.201-0.22l-0.214-0.207
				l-2.835-2.747l-0.112-0.108l-0.115-0.105l-2.923-2.658l-0.38-0.345l-0.414-0.304l-3.012-2.214l-0.208-0.152l-0.216-0.142
				l-3.101-2.037l-0.134-0.088l-0.137-0.083l-3.188-1.949l-0.496-0.303l-0.528-0.243l-3.278-1.506l-0.245-0.112l-0.25-0.099
				l-3.366-1.329l-0.25-0.099l-0.255-0.084l-3.455-1.151l-0.409-0.136l-0.419-0.1l-3.72-0.887l-0.218-0.052l-0.221-0.042
				l-3.72-0.709l-1.889-0.36l-1.885,0.377l-3.544,0.709l-0.26,0.052l-0.257,0.066l-3.454,0.887l-0.373,0.096l-0.364,0.124
				l-3.367,1.151l-0.218,0.075l-0.214,0.084l-3.366,1.329l-0.449,0.177l-0.43,0.221l-3.277,1.682l-0.146,0.075l-0.144,0.08
				l-3.189,1.773l-0.4,0.223l-0.378,0.259l-3.101,2.124l-3.105,2.129l-0.298,0.205l-0.282,0.226l-3.101,2.48l-0.113,0.09
				l-0.11,0.093l-2.923,2.482l-0.218,0.185l-0.207,0.197l-5.847,5.58l-0.218,0.208l-0.205,0.221l-2.629,2.835l-2.958-4.438
				l-0.146-0.218l-0.157-0.21l-4.695-6.289l-0.167-0.223l-0.179-0.214l-2.303-2.746l-0.16-0.191l-0.169-0.182l-2.303-2.48
				l-0.189-0.204l-0.2-0.192l-2.303-2.215l-0.149-0.144l-0.155-0.138l-2.303-2.035l-0.5-0.442l-0.555-0.371l-2.391-1.595
				l-0.108-0.072l-0.109-0.069l-2.393-1.507l-0.531-0.335l-0.57-0.265l-2.479-1.151l-0.457-0.212l-0.476-0.165l-2.569-0.887
				l-0.598-0.206l-0.62-0.128l-2.569-0.531l-0.521-0.108l-0.53-0.051l-2.746-0.264L85.724,0L85.724,0z"/>
		</g>
	</g>
	<g>
		<g>
			<polygon fill="#0066AB" points="93.731,156.687 86.556,166.52 80.001,176.353 74.243,186.096 71.763,190.702 69.726,195.309 
				67.954,199.648 66.625,203.812 65.651,207.978 65.208,211.786 65.296,215.417 65.917,218.783 67.156,221.883 69.017,224.629 
				71.585,224.982 74.243,224.541 76.989,223.301 78.318,222.414 79.646,221.263 81.064,219.934 82.393,218.43 85.05,214.619 
				87.708,209.926 90.365,204.344 92.491,197.7 94.173,191.322 95.414,185.212 96.123,179.276 96.299,173.605 96.034,168.026 
				95.148,162.269 			"/>
		</g>
		<g>
			<polygon fill="#0066AB" points="9.933,140.388 15.336,136.401 20.828,132.859 26.498,129.759 32.167,127.102 37.924,124.886 
				43.594,123.204 49.174,122.053 54.755,121.431 60.07,121.431 65.208,121.964 70.08,123.115 74.686,124.886 78.938,127.366 
				80.887,128.783 82.835,130.468 84.607,132.239 86.29,134.188 87.796,136.401 89.302,138.616 82.57,146.322 76.369,154.029 
				70.611,161.648 65.385,169.266 60.779,176.883 56.792,184.236 53.426,191.5 50.857,198.498 48.908,205.319 47.757,211.875 
				47.58,214.975 47.491,217.985 47.668,220.91 48.023,223.832 48.643,226.489 49.44,229.146 50.503,231.627 51.832,234.021 
				53.337,236.233 55.109,238.359 57.147,240.309 59.45,242.168 62.55,243.23 65.562,243.853 68.662,244.206 71.763,244.206 
				74.775,243.764 77.698,243.055 80.621,241.99 83.632,240.662 86.378,238.979 89.125,237.031 91.694,234.729 94.262,232.158 
				96.743,229.503 98.957,226.4 101.172,223.034 103.297,219.581 105.158,215.772 106.841,211.875 108.436,207.621 109.764,203.371 
				111.004,198.765 111.979,194.158 112.776,189.285 113.396,184.236 113.75,179.099 113.839,173.783 113.662,168.293 
				113.308,162.8 112.688,157.22 111.625,151.46 110.473,145.613 108.967,139.768 115.611,135.959 121.9,132.504 128.101,129.759 
				134.036,127.366 139.705,125.595 145.108,124.355 150.246,123.646 155.207,123.469 159.901,123.735 164.331,124.533 
				168.494,125.861 172.569,127.633 176.289,130.023 179.744,132.771 183.021,136.048 186.033,139.768 179.832,146.768 
				174.075,154.029 168.759,161.56 163.976,169.266 159.724,177.061 156.181,184.856 153.258,192.562 151.043,200.093 
				149.626,207.357 149.271,210.811 149.094,214.177 149.094,217.454 149.36,220.554 149.98,223.567 150.778,226.4 151.752,229.058 
				152.992,231.627 154.498,233.842 156.358,235.969 158.396,237.829 160.699,239.511 163.445,240.929 166.368,242.168 
				169.291,243.23 172.214,243.853 175.137,244.028 177.972,243.939 180.807,243.408 183.553,242.436 186.299,241.281 
				188.868,239.688 191.437,237.829 193.828,235.702 196.22,233.223 198.435,230.476 200.649,227.554 202.598,224.276 
				206.229,217.276 209.242,209.481 211.545,200.978 212.43,196.638 213.139,192.12 213.671,187.514 214.025,182.818 
				214.114,178.036 213.937,173.252 213.582,168.468 212.962,163.598 212.076,158.725 211.013,153.854 209.596,149.069 
				207.913,144.285 213.228,140.299 218.542,136.757 223.857,133.568 229.261,130.821 234.576,128.694 239.891,126.924 
				245.117,125.684 250.343,125.063 255.481,124.886 260.441,125.328 265.314,126.304 270.097,127.899 274.704,130.023 
				279.044,132.859 283.296,136.314 285.245,138.264 287.282,140.388 283.916,144.021 280.727,147.74 274.881,155.271 
				269.743,162.889 265.314,170.595 261.505,178.301 258.493,185.832 256.101,193.36 254.418,200.624 253.443,207.621 
				253.178,214.354 253.533,220.643 254.595,226.489 256.367,231.894 257.518,234.373 258.847,236.765 260.441,238.891 
				262.037,240.929 263.896,242.699 265.845,244.384 269.654,245.093 273.109,245.357 276.652,245.357 279.93,244.826 
				283.119,244.028 286.13,242.877 289.054,241.371 291.711,239.511 294.369,237.384 296.76,234.993 299.063,232.336 
				301.189,229.414 303.138,226.225 304.999,222.858 306.682,219.314 308.187,215.506 310.667,207.532 312.439,199.028 
				313.591,190.172 314.034,180.869 313.679,171.481 312.528,162.091 310.756,152.789 309.516,148.271 308.099,143.754 
				311.376,140.565 314.831,137.729 318.286,135.161 321.917,133.037 325.46,131.264 329.181,129.848 332.99,128.694 
				336.71,127.986 337.773,134.719 338.571,141.541 339.102,148.36 339.457,155.094 339.457,161.824 339.368,168.557 
				339.014,175.29 338.482,181.935 337.773,188.489 336.71,194.956 335.648,201.333 334.319,207.621 332.725,213.734 
				331.042,219.759 329.181,225.516 327.055,231.273 324.841,236.765 322.449,241.99 319.88,247.128 317.134,252.001 314.3,256.607 
				311.199,260.947 308.099,265.111 304.732,268.831 301.366,272.376 297.734,275.564 294.014,278.575 290.206,281.055 
				286.308,283.359 282.233,285.131 277.981,286.637 273.729,287.699 269.034,286.901 264.516,285.839 260.353,284.511 
				256.367,282.828 252.558,280.969 249.015,278.753 245.648,276.362 242.548,273.704 239.537,270.691 236.879,267.592 
				234.31,264.225 231.918,260.771 229.616,257.05 227.489,253.241 223.68,244.915 217.834,253.152 212.165,260.771 209.33,264.225 
				206.496,267.503 203.572,270.603 200.472,273.438 197.372,276.096 194.094,278.575 190.639,280.702 187.096,282.562 
				183.287,284.157 179.212,285.486 174.872,286.459 170.266,287.168 165.836,285.75 161.584,284.068 157.51,282.295 
				153.523,280.346 149.803,278.222 146.171,275.829 142.805,273.349 139.528,270.691 136.604,267.77 133.77,264.756 
				131.201,261.567 128.898,258.114 126.772,254.57 124.823,250.762 123.229,246.863 121.9,242.699 116.496,251.823 113.75,256.252 
				110.827,260.416 107.904,264.225 104.893,268.033 101.703,271.312 98.515,274.5 95.237,277.246 91.959,279.727 88.504,281.764 
				85.139,283.537 81.595,284.777 77.963,285.661 74.42,286.106 70.7,286.018 66.802,285.042 63.082,283.891 59.45,282.295 
				55.907,280.436 52.629,278.222 49.352,275.742 46.163,272.906 43.239,269.896 40.405,266.618 37.659,263.074 35.09,259.266 
				32.521,255.189 28.003,246.508 23.929,236.942 20.385,226.578 17.285,215.684 14.805,204.166 12.767,192.12 11.35,179.63 
				10.287,166.786 9.844,153.676 			"/>
		</g>
		<g>
			<polygon fill="#0066AB" points="124.823,47.023 119.774,38.784 114.991,31.609 110.296,25.32 107.993,22.574 105.689,20.094 
				103.386,17.879 101.083,15.843 98.692,14.248 96.299,12.741 93.82,11.59 91.25,10.704 88.682,10.172 85.936,9.908 82.126,10.439 
				78.406,11.237 74.775,12.21 71.231,13.45 67.777,14.957 64.499,16.639 61.222,18.499 58.032,20.625 55.021,22.841 52.098,25.32 
				49.085,27.979 46.429,30.725 43.683,33.735 41.025,36.924 36.153,43.568 31.635,50.832 27.472,58.539 23.751,66.776 
				20.296,75.369 17.285,84.229 14.627,93.353 12.413,102.74 10.553,112.307 15.602,109.651 21.005,107.436 26.675,105.398 
				32.521,103.716 38.633,102.388 44.834,101.59 51.034,101.059 57.235,100.97 63.436,101.323 69.548,102.299 75.483,103.716 
				81.152,105.665 86.556,108.233 91.694,111.334 94.085,113.193 96.299,115.143 98.515,117.269 100.551,119.66 107.372,115.584 
				114.104,112.131 120.837,109.118 127.303,106.728 133.858,104.867 140.325,103.627 146.703,102.83 152.904,102.651 
				159.104,103.008 165.128,103.892 171.062,105.398 176.909,107.436 182.579,110.005 188.159,113.193 193.651,116.913 
				198.966,121.255 206.318,117.357 213.494,113.991 220.58,111.066 227.489,108.676 234.133,106.816 240.776,105.487 
				247.066,104.689 253.355,104.512 259.379,104.778 265.225,105.754 270.894,107.258 276.298,109.385 281.702,112.131 
				286.75,115.498 291.711,119.481 294.014,121.697 296.317,124.088 300.835,120.988 305.353,118.153 309.871,115.584 314.3,113.46 
				318.905,111.423 323.334,109.738 327.853,108.322 332.37,107.258 329.801,97.781 327.144,88.922 324.309,80.242 321.208,71.913 
				317.931,64.032 314.477,56.501 310.845,49.504 306.947,42.948 302.873,36.924 298.532,31.52 296.317,29.04 294.014,26.649 
				291.711,24.523 289.319,22.485 286.839,20.625 284.182,18.943 278.956,16.108 273.463,13.981 270.629,13.274 267.706,12.652 
				264.516,13.45 261.239,14.426 258.227,15.666 255.216,17.172 252.292,19.032 249.369,20.981 246.535,23.194 243.7,25.587 
				241.042,28.245 238.296,31.167 233.159,37.456 228.109,44.455 223.237,52.072 217.834,43.391 215.176,39.404 212.43,35.773 
				209.684,32.407 206.85,29.307 204.015,26.561 201.092,23.903 198.08,21.689 194.979,19.652 191.791,17.703 188.513,16.197 
				185.147,14.868 181.692,13.717 177.972,12.83 174.252,12.121 170.708,12.83 167.254,13.717 163.887,14.868 160.521,16.197 
				157.244,17.879 154.055,19.652 150.955,21.776 147.854,23.903 144.754,26.383 141.831,28.865 135.984,34.444 130.315,40.558 			
				"/>
		</g>
		<g>
			<polygon fill="#FFFFFF" points="71.763,90.075 73.889,89.986 75.926,89.63 79.912,88.391 83.455,86.441 85.05,85.291 
				86.467,83.962 87.796,82.455 89.036,80.862 90.985,77.317 92.136,73.42 92.491,71.383 92.579,69.258 92.491,67.132 
				92.136,65.094 90.985,61.107 89.036,57.652 87.796,55.97 86.467,54.553 85.05,53.224 83.455,51.983 79.912,50.035 75.926,48.884 
				73.889,48.528 71.763,48.441 69.726,48.528 67.6,48.884 63.702,50.035 60.158,51.983 58.564,53.224 57.058,54.553 55.729,55.97 
				54.578,57.652 52.629,61.107 51.389,65.094 51.123,67.132 50.946,69.258 51.123,71.383 51.389,73.42 52.629,77.317 
				54.578,80.862 55.729,82.455 57.058,83.962 58.564,85.291 60.158,86.441 63.702,88.391 67.6,89.63 69.726,89.986 			"/>
		</g>
		<g>
			<polygon fill="#0066AB" points="192.854,154.562 185.679,164.396 179.124,174.226 173.366,183.97 170.885,188.576 
				168.848,193.183 166.988,197.524 165.66,201.775 164.773,205.851 164.331,209.659 164.331,213.29 165.039,216.656 
				166.191,219.759 168.051,222.503 170.708,222.858 173.366,222.414 176.112,221.174 177.44,220.29 178.77,219.137 
				180.187,217.808 181.515,216.304 184.173,212.494 186.83,207.799 189.488,202.307 191.614,195.575 193.297,189.195 
				194.449,183.085 195.246,177.238 195.423,171.481 195.068,165.899 194.183,160.142 			"/>
		</g>
		<g>
			<polygon fill="#0066AB" points="295.077,156.687 287.991,166.52 281.347,176.353 275.589,186.096 273.109,190.702 
				271.071,195.309 269.3,199.648 267.971,203.812 266.997,207.978 266.554,211.786 266.642,215.417 267.263,218.783 
				268.502,221.883 270.363,224.629 272.932,224.982 275.589,224.541 278.335,223.301 279.664,222.414 280.993,221.263 
				282.41,219.934 283.739,218.43 286.396,214.619 289.054,209.926 291.711,204.344 293.837,197.7 295.52,191.322 296.76,185.212 
				297.469,179.276 297.646,173.605 297.38,168.026 296.495,162.269 			"/>
		</g>
		<g>
			<polygon fill="#FFFFFF" points="164.508,90.075 166.634,89.986 168.759,89.63 172.657,88.391 176.201,86.441 177.795,85.291 
				179.212,83.962 180.63,82.455 181.781,80.862 183.729,77.317 184.881,73.42 185.236,71.383 185.413,69.258 185.236,67.132 
				184.881,65.094 183.729,61.107 181.781,57.652 180.63,55.97 179.212,54.553 177.795,53.224 176.201,51.983 172.657,50.035 
				168.759,48.884 166.634,48.528 164.508,48.441 162.47,48.528 160.344,48.884 156.447,50.035 152.904,51.983 151.309,53.224 
				149.892,54.553 148.563,55.97 147.323,57.652 145.374,61.107 144.222,65.094 143.868,67.132 143.691,69.258 143.868,71.383 
				144.222,73.42 145.374,77.317 147.323,80.862 148.563,82.455 149.892,83.962 151.309,85.291 152.904,86.441 156.447,88.391 
				160.344,89.63 162.47,89.986 			"/>
		</g>
		<g>
			<polygon fill="#FFFFFF" points="266.819,91.137 268.945,91.048 270.983,90.694 274.881,89.455 278.424,87.506 280.018,86.353 
				281.524,85.023 282.853,83.52 284.004,81.924 285.954,78.382 287.193,74.484 287.548,72.447 287.636,70.32 287.548,68.193 
				287.193,66.156 285.954,62.17 284.004,58.628 282.853,57.032 281.524,55.617 280.018,54.288 278.424,53.046 274.881,51.097 
				270.983,49.946 268.945,49.593 266.819,49.504 264.693,49.593 262.656,49.946 258.67,51.097 255.216,53.046 253.533,54.288 
				252.115,55.617 250.787,57.032 249.546,58.628 247.686,62.17 246.446,66.156 246.092,68.193 246.003,70.32 246.092,72.447 
				246.446,74.484 247.686,78.382 249.546,81.924 250.787,83.52 252.115,85.023 253.533,86.353 255.216,87.506 258.67,89.455 
				262.656,90.694 264.693,91.048 			"/>
		</g>
	</g>
</g>
</svg>
