<?xml version="1.0" encoding="utf-8"?>
<!-- Generator: Adobe Illustrator 16.0.0, SVG Export Plug-In . SVG Version: 6.00 Build 0)  -->
<!DOCTYPE svg PUBLIC "-//W3C//DTD SVG 1.1//EN" "http://www.w3.org/Graphics/SVG/1.1/DTD/svg11.dtd">
<svg version="1.1" id="Layer_1" xmlns="http://www.w3.org/2000/svg" xmlns:xlink="http://www.w3.org/1999/xlink" x="0px" y="0px"
	 width="150px" height="150px" viewBox="0 0 150 150" enable-background="new 0 0 150 150" xml:space="preserve">
<rect fill="#FFFFFF" width="150" height="150"/>
<g>
	<g>
		<path fill="#1C2C42" d="M38.102,103.564c0-6.691-5.442-12.135-12.133-12.135s-12.136,5.443-12.136,12.135
			c0,6.69,5.445,12.134,12.136,12.134S38.102,110.255,38.102,103.564z M25.968,114.152c-5.838,0-10.589-4.748-10.589-10.588
			c0-5.841,4.75-10.59,10.589-10.59c5.84,0,10.589,4.749,10.589,10.59C36.557,109.402,31.808,114.152,25.968,114.152z"/>
		<path fill="#1C2C42" d="M28.355,103.784l-3.178-2.057c-0.379-0.257-0.555-0.557-0.555-0.937c-0.026-0.379,0.152-0.698,0.53-0.954
			c0.377-0.26,0.807-0.342,1.285-0.281c0.48,0.061,0.858,0.26,1.085,0.601c0.379,0.457,1.085,0.617,1.665,0.357
			c0.582-0.3,0.808-0.858,0.43-1.315c-0.479-0.7-1.287-1.196-2.219-1.416v-0.798c0-0.539-0.531-0.958-1.212-0.958
			s-1.211,0.419-1.211,0.958v0.778c-0.504,0.141-0.983,0.318-1.387,0.616c-0.908,0.62-1.413,1.497-1.387,2.436
			c0,0.935,0.53,1.812,1.463,2.39l3.153,2.056c0.403,0.24,0.606,0.618,0.631,0.997c0,0.419-0.203,0.757-0.606,1.017
			c-0.379,0.26-0.833,0.356-1.363,0.3c-0.504-0.061-0.883-0.28-1.16-0.639c-0.328-0.458-1.059-0.618-1.639-0.358
			c-0.58,0.299-0.782,0.855-0.454,1.313c0.53,0.737,1.311,1.218,2.346,1.476v0.778c0,0.538,0.53,0.958,1.21,0.958
			c0.68,0,1.211-0.42,1.211-0.958v-0.778c0.504-0.139,1.008-0.337,1.438-0.639c0.907-0.617,1.437-1.514,1.437-2.492
			C29.844,105.279,29.289,104.401,28.355,103.784z"/>
		<path fill="#1C2C42" d="M45.814,112.461H34.766c-1.56,1.543-3.521,2.679-5.71,3.237h16.758c0.319,0,0.58-0.259,0.58-0.579v-2.078
			C46.393,112.723,46.133,112.461,45.814,112.461z"/>
		<path fill="#1C2C42" d="M49.677,108.792H37.339c-0.548,1.191-1.277,2.281-2.155,3.236h14.493c0.32,0,0.579-0.26,0.579-0.58v-2.076
			C50.256,109.053,49.997,108.792,49.677,108.792z"/>
		<path fill="#1C2C42" d="M47.746,108.358c0.318,0,0.58-0.26,0.58-0.579v-2.077c0-0.32-0.261-0.577-0.58-0.577h-9.357
			c-0.141,1.132-0.433,2.216-0.856,3.233H47.746z"/>
		<path fill="#1C2C42" d="M49.677,101.452H38.308c0.116,0.688,0.182,1.392,0.182,2.112c0,0.38-0.02,0.752-0.054,1.126h11.241
			c0.32,0,0.579-0.259,0.579-0.582v-2.077C50.256,101.714,49.997,101.452,49.677,101.452z"/>
		<path fill="#1C2C42" d="M43.882,101.019c0.32,0,0.58-0.261,0.58-0.579v-2.078c0-0.319-0.259-0.579-0.58-0.579h-6.813
			c0.527,1.008,0.923,2.092,1.16,3.236H43.882L43.882,101.019z"/>
	</g>
	<g transform="translate(0,-952.36218)">
		<path fill="#1C2C42" d="M129.729,1040.775c-0.517,0-1.005,0.394-1.113,0.897l-0.615,2.889h-25.543
			c-0.677,0.004-1.25,0.726-1.102,1.386l2.652,11.364c0.111,0.495,0.592,0.884,1.101,0.887h20.016l-0.484,2.271h-18.016
			c-0.603-0.007-1.154,0.537-1.154,1.137c0,0.603,0.552,1.145,1.154,1.136h18.937c0.577,0.007,1.031-0.569,1.186-1.266l3.905-18.43
			h4.38c0.628,0,1.136-0.507,1.136-1.136c0-0.628-0.508-1.136-1.136-1.136H129.729z M125.597,1055.927h-19.59l-2.118-9.092h23.638
			L125.597,1055.927z M117.986,1067.288c0,2.08,1.708,3.789,3.789,3.789c2.077,0,3.785-1.709,3.785-3.789
			c0-2.078-1.708-3.788-3.785-3.788C119.694,1063.5,117.986,1065.21,117.986,1067.288z M106.624,1067.288
			c0,2.08,1.706,3.789,3.786,3.789c2.079,0,3.789-1.709,3.789-3.789c0-2.078-1.71-3.788-3.789-3.788
			C108.33,1063.5,106.624,1065.21,106.624,1067.288z M123.289,1067.288c0,0.853-0.664,1.515-1.514,1.515
			c-0.851,0-1.516-0.662-1.516-1.515c0-0.851,0.665-1.513,1.516-1.513C122.625,1065.775,123.289,1066.437,123.289,1067.288z
			 M111.925,1067.288c0,0.853-0.664,1.515-1.515,1.515c-0.85,0-1.515-0.662-1.515-1.515c0-0.851,0.665-1.513,1.515-1.513
			C111.261,1065.775,111.925,1066.437,111.925,1067.288z"/>
	</g>
	<g>
		<path fill="#1C2C42" stroke="#1C2C42" stroke-width="0.8613" stroke-miterlimit="10" d="M74.004,127.141L74.004,127.141
			c0,0.901,0.732,1.633,1.637,1.633c0.902,0,1.634-0.731,1.634-1.633c0-0.905-0.731-1.638-1.634-1.638
			C74.736,125.503,74.004,126.235,74.004,127.141z M75.096,127.141c0-0.303,0.243-0.545,0.545-0.545c0.3,0,0.544,0.242,0.544,0.545
			c0,0.301-0.244,0.545-0.544,0.545C75.339,127.686,75.096,127.441,75.096,127.141z"/>
		<path fill="#1C2C42" stroke="#1C2C42" stroke-width="0.8613" stroke-miterlimit="10" d="M59.804,98.723
			c-0.65,0.629-0.669,1.665-0.04,2.313l1.156,1.158l1.928,1.929l0,0l0.252,0.252v24.944c0,0.904,0.732,1.637,1.635,1.637h21.808
			c0.902,0,1.636-0.732,1.636-1.637V99.882c0-0.903-0.733-1.638-1.636-1.638H64.735c-0.852,0.007-1.559,0.664-1.622,1.515
			l-1.037-1.036C61.442,98.114,60.438,98.114,59.804,98.723z M64.191,105.466l1.636,1.634v17.314c0,0.302,0.242,0.545,0.545,0.545
			h18.534c0.303,0,0.545-0.243,0.545-0.545v-22.897c0-0.3-0.242-0.545-0.545-0.545H66.372c-0.303,0-0.545,0.245-0.545,0.545v0.958
			l-0.666-0.665l0,0l-0.97-0.972v-0.956c0-0.301,0.245-0.545,0.544-0.545h21.808c0.3,0,0.544,0.244,0.544,0.545v29.438
			c0,0.302-0.244,0.545-0.544,0.545H64.735c-0.299,0-0.544-0.243-0.544-0.545V105.466z M83.271,105.878
			c0-1.206-0.977-2.183-2.181-2.183h-1.636c-0.602,0-1.092-0.486-1.092-1.088v-0.546h5.998v21.807H66.918v-15.676l9.038,9.036
			c0.026,0.022,0.059,0.045,0.094,0.062c0.018,0.013,0.025,0.031,0.045,0.042l3.084,1.54c0.078,0.039,0.161,0.058,0.247,0.058
			c0.298-0.002,0.538-0.247,0.537-0.547h0.038v-2.694c0-0.599,0.486-1.089,1.09-1.089c1.204,0,2.181-0.976,2.181-2.18
			c0-1.206-0.977-2.182-2.181-2.182h-3.271c-0.602,0-1.09-0.485-1.09-1.089c0-0.603,0.488-1.09,1.09-1.09h3.271
			C82.295,108.06,83.271,107.082,83.271,105.878z M77.257,116.691l0.474-0.471l0.472,0.943L77.257,116.691z M66.918,103.564v-1.503
			h10.356v0.546c0,1.204,0.976,2.181,2.181,2.181h1.636c0.603,0,1.091,0.486,1.091,1.09c0,0.603-0.488,1.089-1.091,1.089h-3.271
			c-1.203,0-2.179,0.979-2.179,2.183c0,1.204,0.976,2.182,2.179,2.182h3.271c0.603,0,1.091,0.486,1.091,1.089
			c0,0.604-0.488,1.091-1.091,1.091c-1.204,0-2.182,0.976-2.182,2.178v0.45l-0.543-1.084c-0.009-0.02-0.027-0.027-0.04-0.047
			c-0.017-0.035-0.039-0.067-0.062-0.095L66.918,103.564z M64.004,103.738l0.771-0.775l12.336,12.338l-0.771,0.771L64.004,103.738z
			 M62.076,101.81l0.77-0.773l1.158,1.158l-0.771,0.769L62.076,101.81z M60.522,100.253c-0.21-0.218-0.202-0.561,0.014-0.771
			c0.215-0.209,0.56-0.203,0.77,0.017l0.771,0.77l-0.771,0.769l-0.77-0.769C60.529,100.263,60.525,100.259,60.522,100.253z"/>
	</g>
	<g>
		<path fill="#1C2C42" d="M102.11,18.767H49.757c-1.051,0-1.904,0.852-1.904,1.904v38.076c0,1.052,0.853,1.903,1.904,1.903h18.562
			c0,2.104-1.705,3.809-3.809,3.809v2.855h22.845v-2.855c-2.103,0-3.806-1.705-3.806-3.809h18.561c1.052,0,1.905-0.852,1.905-1.903
			V20.671C104.016,19.619,103.162,18.767,102.11,18.767z M74.506,56.367c0-0.789,0.64-1.428,1.428-1.428
			c0.789,0,1.429,0.639,1.429,1.428c0,0.788-0.64,1.428-1.429,1.428C75.146,57.795,74.506,57.155,74.506,56.367z M52.434,51.042
			V22.665h47v28.377H52.434z"/>
	</g>
	
		<line fill="none" stroke="#1C2C42" stroke-width="2.2206" stroke-linecap="round" stroke-miterlimit="10" x1="60.038" y1="73.837" x2="47.396" y2="86.479"/>
	
		<line fill="none" stroke="#1C2C42" stroke-width="2.2206" stroke-linecap="round" stroke-miterlimit="10" x1="92.891" y1="73.837" x2="105.532" y2="86.479"/>
	
		<line fill="none" stroke="#1C2C42" stroke-width="2.2206" stroke-linecap="round" stroke-miterlimit="10" x1="74.934" y1="73.837" x2="74.934" y2="92.283"/>
</g>
</svg>
