<?xml version="1.0" encoding="utf-8"?>
<!-- Generator: Adobe Illustrator 16.0.0, SVG Export Plug-In . SVG Version: 6.00 Build 0)  -->
<!DOCTYPE svg PUBLIC "-//W3C//DTD SVG 1.1//EN" "http://www.w3.org/Graphics/SVG/1.1/DTD/svg11.dtd">
<svg version="1.1" id="Layer_1" xmlns="http://www.w3.org/2000/svg" xmlns:xlink="http://www.w3.org/1999/xlink" x="0px" y="0px"
	 width="150px" height="150px" viewBox="0 0 150 150" enable-background="new 0 0 150 150" xml:space="preserve">
<rect fill="#FFFFFF" width="150" height="150"/>
<g>
	<path fill="#1C2C42" d="M93.417,85.645c0.031-0.052,0.054-0.103,0.082-0.153c0.153-0.271,0.3-0.548,0.442-0.824
		c0.126-0.246,0.243-0.496,0.361-0.747c0.194-0.422,0.379-0.85,0.545-1.284c0.12-0.312,0.24-0.63,0.346-0.947
		c0.092-0.276,0.176-0.558,0.256-0.844c0.103-0.349,0.189-0.696,0.271-1.05c0.052-0.23,0.113-0.455,0.159-0.69
		c0.11-0.55,0.189-1.11,0.256-1.668c0.021-0.182,0.038-0.364,0.057-0.548c0.056-0.63,0.097-1.259,0.097-1.889
		c0-0.635-0.041-1.264-0.095-1.888c-0.018-0.185-0.033-0.366-0.056-0.551c-0.064-0.561-0.146-1.118-0.254-1.668
		c-0.046-0.233-0.107-0.461-0.161-0.688c-0.082-0.353-0.171-0.701-0.269-1.049c-0.082-0.287-0.166-0.568-0.259-0.847
		c-0.104-0.317-0.225-0.633-0.345-0.944C94.682,66.93,94.5,66.5,94.306,66.08c-0.115-0.25-0.233-0.501-0.361-0.747
		c-0.144-0.276-0.286-0.553-0.44-0.823c-0.03-0.052-0.056-0.103-0.081-0.153c-0.016-0.026-0.036-0.047-0.054-0.072
		C89.666,57.972,82.829,53.712,75,53.712c-7.83,0-14.668,4.26-18.365,10.572c-0.017,0.025-0.038,0.041-0.053,0.069
		c-0.029,0.049-0.054,0.103-0.082,0.153c-0.153,0.273-0.299,0.548-0.442,0.826c-0.125,0.246-0.243,0.494-0.359,0.745
		c-0.197,0.422-0.379,0.85-0.546,1.284c-0.121,0.314-0.241,0.627-0.346,0.944c-0.094,0.281-0.177,0.562-0.257,0.845
		c-0.101,0.348-0.188,0.701-0.271,1.051c-0.053,0.229-0.112,0.458-0.158,0.688c-0.11,0.553-0.189,1.11-0.256,1.669
		c-0.021,0.184-0.039,0.368-0.056,0.553c-0.059,0.624-0.099,1.253-0.099,1.888c0,0.63,0.04,1.259,0.095,1.886
		c0.017,0.182,0.035,0.366,0.057,0.551c0.065,0.558,0.146,1.115,0.255,1.668c0.046,0.232,0.107,0.46,0.159,0.69
		c0.082,0.351,0.171,0.701,0.271,1.05c0.082,0.281,0.165,0.562,0.257,0.844c0.106,0.317,0.226,0.632,0.346,0.944
		c0.169,0.438,0.351,0.865,0.545,1.287c0.116,0.251,0.234,0.499,0.36,0.744c0.143,0.279,0.288,0.556,0.441,0.827
		c0.03,0.048,0.056,0.102,0.082,0.153c0.016,0.022,0.036,0.043,0.053,0.066C60.332,92.025,67.17,96.289,75,96.289
		c7.829,0,14.666-4.264,18.366-10.575C93.382,85.69,93.402,85.67,93.417,85.645z M92.826,77.451
		c-0.074,0.532-0.166,1.064-0.289,1.592c-0.03,0.144-0.071,0.284-0.107,0.425c-0.139,0.532-0.297,1.06-0.481,1.576
		c-0.046,0.117-0.087,0.235-0.13,0.353c-0.218,0.563-0.458,1.116-0.729,1.658c-0.023,0.044-0.041,0.087-0.063,0.134h-6.904
		c0.369-2.027,0.594-4.228,0.668-6.551h8.127c-0.011,0.128-0.008,0.256-0.021,0.384C92.875,77.165,92.844,77.309,92.826,77.451z
		 M75,93.014c-1.761,0-3.636-2.503-4.929-6.551h9.856C78.636,90.511,76.76,93.014,75,93.014z M69.237,83.188
		c-0.4-1.98-0.669-4.182-0.753-6.551h13.03c-0.082,2.369-0.354,4.57-0.753,6.551H69.237z M58.912,83.055
		c-0.271-0.542-0.515-1.095-0.73-1.658c-0.044-0.117-0.086-0.235-0.13-0.353c-0.184-0.517-0.344-1.044-0.48-1.576
		c-0.036-0.141-0.077-0.281-0.11-0.425c-0.123-0.524-0.212-1.057-0.288-1.592c-0.019-0.143-0.048-0.286-0.064-0.43
		c-0.016-0.128-0.012-0.259-0.023-0.387h8.125c0.075,2.324,0.302,4.524,0.671,6.551h-6.905
		C58.953,83.145,58.934,83.101,58.912,83.055z M57.173,72.549c0.074-0.534,0.165-1.066,0.288-1.597
		c0.033-0.141,0.074-0.281,0.11-0.422c0.137-0.532,0.297-1.057,0.48-1.574c0.044-0.12,0.086-0.24,0.13-0.355
		c0.216-0.562,0.459-1.118,0.73-1.66c0.021-0.041,0.041-0.085,0.062-0.128h6.903c-0.368,2.023-0.594,4.227-0.669,6.55h-8.124
		c0.012-0.128,0.008-0.258,0.023-0.386C57.125,72.833,57.154,72.692,57.173,72.549z M75,56.987c1.76,0,3.636,2.499,4.928,6.55H70.07
		C71.364,59.486,73.239,56.987,75,56.987z M80.762,66.812c0.399,1.98,0.671,4.181,0.753,6.55h-13.03
		c0.084-2.369,0.355-4.569,0.753-6.55H80.762z M91.089,66.94c0.271,0.542,0.512,1.098,0.729,1.66
		c0.043,0.118,0.084,0.235,0.13,0.355c0.185,0.518,0.343,1.042,0.481,1.574c0.036,0.141,0.077,0.281,0.107,0.422
		c0.123,0.527,0.215,1.06,0.289,1.597c0.018,0.144,0.049,0.284,0.064,0.43c0.015,0.128,0.013,0.256,0.025,0.384h-8.127
		c-0.076-2.323-0.302-4.523-0.67-6.55h6.903C91.048,66.854,91.065,66.899,91.089,66.94z M88.884,63.537h-5.522
		c-0.604-2.124-1.371-3.966-2.277-5.471C84.149,59.172,86.842,61.068,88.884,63.537z M68.918,58.066
		c-0.906,1.505-1.675,3.347-2.277,5.471h-5.524C63.157,61.068,65.849,59.172,68.918,58.066z M61.115,86.463h5.522
		c0.603,2.119,1.372,3.966,2.278,5.471C65.849,90.828,63.157,88.93,61.115,86.463z M81.082,91.934
		c0.905-1.505,1.676-3.352,2.277-5.471h5.524C86.842,88.93,84.149,90.828,81.082,91.934z"/>
	<path fill="#1C2C42" d="M122.489,25.873h-18.014c-0.905,0-1.637,0.731-1.637,1.638v3.275v1.637h-3.275
		c-0.355,0-0.701,0.113-0.982,0.328l-6.551,4.912c-0.414,0.308-0.655,0.794-0.655,1.311v3.275c-0.905,0-1.637,0.731-1.637,1.638
		v6.55c0,0.906,0.731,1.638,1.637,1.638h1.638c0,2.707,2.206,4.913,4.913,4.913s4.913-2.206,4.913-4.913h6.55
		c0,2.707,2.206,4.913,4.913,4.913s4.912-2.206,4.912-4.913h3.275c0.906,0,1.638-0.731,1.638-1.638v-6.55V27.511
		C124.127,26.604,123.396,25.873,122.489,25.873z M106.113,29.148h14.738v13.101h-14.738v-8.188v-3.274V29.148z M94.65,39.792
		l5.458-4.094h2.73v6.551H94.65V39.792z M97.926,53.712c-0.906,0-1.638-0.734-1.638-1.638c0-0.363,0.141-0.681,0.338-0.949
		c0.63-0.837,1.97-0.837,2.6,0c0.197,0.269,0.338,0.586,0.338,0.949C99.563,52.978,98.832,53.712,97.926,53.712z M114.302,53.712
		c-0.906,0-1.638-0.734-1.638-1.638c0-0.363,0.141-0.681,0.338-0.949c0.629-0.837,1.97-0.837,2.6,0
		c0.196,0.269,0.338,0.586,0.338,0.949C115.939,52.978,115.207,53.712,114.302,53.712z M120.852,48.799h-2.906
		c-0.011-0.016-0.025-0.022-0.036-0.035c-0.199-0.218-0.42-0.415-0.655-0.594c-0.03-0.023-0.059-0.052-0.092-0.074
		c-0.253-0.182-0.522-0.341-0.809-0.474c-0.021-0.011-0.041-0.023-0.059-0.03c-0.289-0.128-0.594-0.23-0.908-0.303
		c-0.021-0.005-0.039-0.013-0.057-0.018c-0.338-0.069-0.676-0.11-1.028-0.11c-0.354,0-0.691,0.041-1.023,0.11
		c-0.021,0.005-0.036,0.013-0.057,0.018c-0.317,0.072-0.619,0.175-0.911,0.303c-0.021,0.01-0.038,0.022-0.056,0.03
		c-0.287,0.133-0.559,0.292-0.814,0.476c-0.03,0.021-0.056,0.052-0.092,0.074c-0.235,0.18-0.453,0.376-0.655,0.592
		c-0.01,0.015-0.025,0.022-0.035,0.035h-9.089c-0.01-0.013-0.025-0.021-0.036-0.035c-0.199-0.216-0.419-0.412-0.654-0.592
		c-0.031-0.022-0.06-0.054-0.093-0.074c-0.253-0.184-0.521-0.343-0.809-0.476c-0.021-0.008-0.041-0.021-0.059-0.03
		c-0.289-0.128-0.594-0.229-0.908-0.303c-0.021-0.002-0.038-0.01-0.057-0.015c-0.338-0.072-0.675-0.113-1.028-0.113
		s-0.69,0.041-1.023,0.11c-0.021,0.005-0.036,0.013-0.057,0.018c-0.317,0.072-0.619,0.175-0.91,0.303
		c-0.021,0.01-0.039,0.022-0.057,0.03c-0.287,0.133-0.558,0.292-0.813,0.476c-0.031,0.021-0.057,0.052-0.093,0.074
		c-0.235,0.18-0.452,0.376-0.654,0.592c-0.011,0.015-0.026,0.022-0.036,0.035h-1.27v-3.275h27.839V48.799z"/>
	<path fill="#1C2C42" d="M31.662,37.579c-1.175-0.583-2.579-0.417-3.58,0.428c-1,0.849-1.4,2.21-1.016,3.462l2.04,6.649
		c0.425,1.387,1.684,2.318,3.131,2.318h5.099c0.196,0,0.392-0.036,0.577-0.104l10.603-3.979l-1.343,12.09
		c-0.065,0.597,0.199,1.18,0.69,1.525c0.279,0.192,0.606,0.294,0.936,0.294c0.249,0,0.501-0.059,0.731-0.174l6.551-3.275
		c0.389-0.194,0.685-0.534,0.819-0.946L61.6,41.772l13.103-6.55c1.067-0.532,1.761-1.607,1.808-2.802
		c0.046-1.195-0.563-2.321-1.588-2.935l-5.631-3.378c-0.47-0.281-1.048-0.312-1.543-0.077l-12.327,5.84l-12.488-5.737
		c-0.331-0.153-0.702-0.191-1.058-0.107l-6.551,1.53c-0.616,0.139-1.096,0.63-1.229,1.251c-0.133,0.622,0.107,1.265,0.617,1.648
		l9.146,6.891l-6.504,3.08L31.662,37.579z M42.074,29.34l9.21,4.232L46.8,35.458l-7.318-5.512L42.074,29.34z M68.357,29.363
		l4.878,2.927l0.845-1.402l-0.842,1.402L59.53,39.147c-0.39,0.194-0.685,0.532-0.82,0.947l-4.699,14.093L50.76,55.81l1.307-11.744
		c0.062-0.568-0.173-1.123-0.623-1.474c-0.293-0.226-0.649-0.343-1.007-0.343c-0.193,0-0.388,0.033-0.577,0.103l-12.822,4.81h-4.8
		l-2.04-6.652l6.406,3.203c0.45,0.226,0.982,0.23,1.434,0.016L68.357,29.363z"/>
	<path fill="#1C2C42" d="M122.489,93.014H93.013c-0.905,0-1.638,0.731-1.638,1.638v6.55c0,0.906,0.732,1.638,1.638,1.638h1.638
		v19.651c0,0.905,0.732,1.637,1.638,1.637h22.926c0.906,0,1.638-0.731,1.638-1.637v-19.651h1.638c0.906,0,1.638-0.731,1.638-1.638
		v-6.55C124.127,93.745,123.396,93.014,122.489,93.014z M117.576,120.853h-19.65v-18.014h19.65V120.853z M120.852,99.563h-1.638
		H96.288H94.65v-3.274h26.201V99.563z"/>
	<rect x="102.839" y="106.114" fill="#1C2C42" width="9.825" height="3.275"/>
	<rect x="114.302" y="86.463" fill="#1C2C42" width="3.274" height="3.275"/>
	<rect x="115.939" y="79.913" fill="#1C2C42" width="3.274" height="3.275"/>
	<rect x="115.939" y="73.362" fill="#1C2C42" width="3.274" height="3.275"/>
	<rect x="115.939" y="66.812" fill="#1C2C42" width="3.274" height="3.275"/>
	<rect x="114.302" y="60.262" fill="#1C2C42" width="3.274" height="3.275"/>
	<rect x="88.101" y="32.423" fill="#1C2C42" width="3.274" height="3.275"/>
	<rect x="81.55" y="30.786" fill="#1C2C42" width="3.275" height="3.274"/>
	<rect x="35.698" y="53.712" fill="#1C2C42" width="3.275" height="3.275"/>
	<rect x="32.423" y="60.262" fill="#1C2C42" width="3.275" height="3.275"/>
	<rect x="30.785" y="66.812" fill="#1C2C42" width="3.275" height="3.275"/>
	<rect x="30.785" y="73.362" fill="#1C2C42" width="3.275" height="3.275"/>
	<rect x="30.785" y="79.913" fill="#1C2C42" width="3.275" height="3.275"/>
	<path fill="#1C2C42" d="M64.141,119.951l2.632-11.847c0.106-0.48-0.012-0.987-0.321-1.376c-0.311-0.39-0.779-0.614-1.276-0.614
		H37.336v-3.899l12.194-6.101c0.556-0.276,0.906-0.844,0.906-1.463s-0.351-1.188-0.906-1.469L36.43,86.632
		c-0.509-0.251-1.11-0.225-1.593,0.074c-0.483,0.3-0.776,0.827-0.776,1.395v13.101v4.913h-4.913c-0.497,0-0.966,0.225-1.276,0.614
		c-0.31,0.384-0.43,0.896-0.321,1.376l2.632,11.847c-0.632-0.599-1.034-1.438-1.034-2.374h-3.274c0,3.612,2.937,6.55,6.55,6.55
		c1.967,0,3.71-0.89,4.913-2.262c1.202,1.372,2.946,2.262,4.912,2.262c1.967,0,3.71-0.89,4.913-2.262
		c1.202,1.372,2.946,2.262,4.913,2.262c1.966,0,3.71-0.89,4.912-2.262c1.203,1.372,2.946,2.262,4.913,2.262
		c3.612,0,6.55-2.938,6.55-6.55h-3.274C65.175,118.514,64.772,119.353,64.141,119.951z M37.336,98.551v-7.799l7.801,3.899
		L37.336,98.551z M58.624,117.577h-3.275c0,1.807-1.469,3.275-3.274,3.275c-1.807,0-3.275-1.469-3.275-3.275h-3.275
		c0,1.807-1.469,3.275-3.275,3.275c-1.806,0-3.274-1.469-3.274-3.275h-3.275c0,1.356-0.834,2.528-2.018,3.02l-2.491-11.207h31.943
		l-2.491,11.207C59.458,120.105,58.624,118.934,58.624,117.577z"/>
</g>
</svg>
