<?xml version="1.0" encoding="utf-8"?>
<!-- Generator: Adobe Illustrator 16.0.0, SVG Export Plug-In . SVG Version: 6.00 Build 0)  -->
<!DOCTYPE svg PUBLIC "-//W3C//DTD SVG 1.1//EN" "http://www.w3.org/Graphics/SVG/1.1/DTD/svg11.dtd">
<svg version="1.1" id="Layer_1" xmlns="http://www.w3.org/2000/svg" xmlns:xlink="http://www.w3.org/1999/xlink" x="0px" y="0px"
	 width="150px" height="150px" viewBox="0 0 150 150" enable-background="new 0 0 150 150" xml:space="preserve">
<rect fill="#FFFFFF" width="150" height="150"/>
<g>
	<g>
		<g>
			<path fill="#1C2C42" d="M75.289,127.588c-28.997,0-52.588-23.59-52.588-52.587s23.591-52.589,52.588-52.589
				s52.588,23.592,52.588,52.589S104.286,127.588,75.289,127.588z M75.289,25.552c-27.267,0-49.45,22.182-49.45,49.449
				c0,27.267,22.184,49.45,49.45,49.45c27.269,0,49.449-22.184,49.449-49.45S102.558,25.552,75.289,25.552z"/>
		</g>
		<g>
			<path fill="#1C2C42" d="M75.289,127.588c-15.749,0-28.085-23.099-28.085-52.587S59.54,22.413,75.289,22.413
				c15.748,0,28.086,23.1,28.086,52.588S91.037,127.588,75.289,127.588z M75.289,25.6c-13.603,0-24.67,22.161-24.67,49.401
				s11.067,49.401,24.67,49.401s24.669-22.161,24.669-49.401S88.892,25.6,75.289,25.6z"/>
		</g>
		<g>
			<rect x="24.893" y="73.443" fill="#1C2C42" width="100.793" height="3.114"/>
		</g>
		<g>
			<path fill="#1C2C42" d="M22.123,75.001c0-15.749,23.1-28.085,52.588-28.085s52.587,12.336,52.587,28.085
				c0,15.748-23.099,28.086-52.587,28.086S22.123,90.749,22.123,75.001z M124.112,75.001c0-13.604-22.161-24.67-49.401-24.67
				c-27.239,0-49.401,11.066-49.401,24.67c0,13.602,22.162,24.67,49.401,24.67C101.951,99.671,124.112,88.603,124.112,75.001z"/>
		</g>
	</g>
	<g>
		<circle fill="#FFFFFF" cx="105.136" cy="35.6" r="4.768"/>
		<path fill="#1C2C42" d="M103.844,48.272c-5.929-8.594-7.029-9.476-7.029-12.634c0-4.326,3.508-7.833,7.833-7.833
			c4.326,0,7.834,3.507,7.834,7.833c0,3.158-1.101,4.04-7.029,12.634C105.064,48.835,104.231,48.835,103.844,48.272L103.844,48.272z
			 M104.647,38.903c1.804,0,3.265-1.462,3.265-3.264c0-1.803-1.461-3.265-3.265-3.265c-1.802,0-3.262,1.462-3.262,3.265
			C101.386,37.441,102.846,38.903,104.647,38.903z"/>
	</g>
	<g>
		<circle fill="#FFFFFF" cx="69.8" cy="49.16" r="4.769"/>
		<path fill="#1C2C42" d="M68.509,61.832c-5.928-8.594-7.029-9.476-7.029-12.634c0-4.327,3.508-7.833,7.833-7.833
			c4.327,0,7.834,3.506,7.834,7.833c0,3.158-1.101,4.04-7.029,12.634C69.729,62.394,68.897,62.394,68.509,61.832L68.509,61.832z
			 M69.313,52.463c1.803,0,3.264-1.462,3.264-3.265s-1.461-3.264-3.264-3.264c-1.802,0-3.264,1.461-3.264,3.264
			S67.512,52.463,69.313,52.463z"/>
	</g>
	<g>
		<circle fill="#FFFFFF" cx="42.525" cy="31.331" r="4.769"/>
		<path fill="#1C2C42" d="M41.233,44.003c-5.928-8.594-7.028-9.476-7.028-12.634c0-4.326,3.507-7.833,7.833-7.833
			s7.833,3.507,7.833,7.833c0,3.158-1.1,4.04-7.028,12.634C42.455,44.564,41.622,44.564,41.233,44.003L41.233,44.003z
			 M42.038,34.634c1.803,0,3.265-1.462,3.265-3.265s-1.462-3.264-3.265-3.264c-1.802,0-3.264,1.461-3.264,3.264
			S40.236,34.634,42.038,34.634z"/>
	</g>
	<g>
		<circle fill="#FFFFFF" cx="38.482" cy="88.465" r="4.768"/>
		<path fill="#1C2C42" d="M37.19,101.139c-5.928-8.595-7.028-9.477-7.028-12.634c0-4.327,3.507-7.834,7.833-7.834
			c4.327,0,7.834,3.507,7.834,7.834c0,3.157-1.101,4.039-7.029,12.634C38.411,101.699,37.579,101.699,37.19,101.139L37.19,101.139z
			 M37.996,91.768c1.803,0,3.264-1.461,3.264-3.263c0-1.804-1.461-3.265-3.264-3.265c-1.802,0-3.265,1.461-3.265,3.265
			C34.731,90.307,36.194,91.768,37.996,91.768z"/>
	</g>
	<g>
		<circle fill="#FFFFFF" cx="79.086" cy="95.637" r="4.768"/>
		<path fill="#1C2C42" d="M77.794,108.311c-5.929-8.595-7.029-9.477-7.029-12.634c0-4.327,3.507-7.834,7.834-7.834
			c4.325,0,7.831,3.507,7.831,7.834c0,3.157-1.099,4.039-7.027,12.634C79.015,108.873,78.182,108.873,77.794,108.311L77.794,108.311
			z M78.599,98.941c1.804,0,3.264-1.463,3.264-3.265c0-1.804-1.46-3.265-3.264-3.265c-1.803,0-3.265,1.461-3.265,3.265
			C75.334,97.479,76.796,98.941,78.599,98.941z"/>
	</g>
	<g>
		<circle fill="#FFFFFF" cx="110.877" cy="86.911" r="4.769"/>
		<path fill="#1C2C42" d="M109.585,99.582c-5.929-8.593-7.029-9.474-7.029-12.634c0-4.325,3.508-7.832,7.833-7.832
			c4.326,0,7.834,3.507,7.834,7.832c0,3.16-1.101,4.041-7.029,12.634C110.806,100.145,109.973,100.145,109.585,99.582
			L109.585,99.582z M110.389,90.213c1.803,0,3.265-1.461,3.265-3.265c0-1.802-1.462-3.262-3.265-3.262
			c-1.802,0-3.264,1.46-3.264,3.262C107.125,88.752,108.587,90.213,110.389,90.213z"/>
	</g>
</g>
</svg>
