<?xml version="1.0" encoding="utf-8"?>
<!-- Generator: Adobe Illustrator 16.0.0, SVG Export Plug-In . SVG Version: 6.00 Build 0)  -->
<!DOCTYPE svg PUBLIC "-//W3C//DTD SVG 1.1//EN" "http://www.w3.org/Graphics/SVG/1.1/DTD/svg11.dtd">
<svg version="1.1" id="Isolation_Mode" xmlns="http://www.w3.org/2000/svg" xmlns:xlink="http://www.w3.org/1999/xlink" x="0px"
	 y="0px" width="254.181px" height="186.081px" viewBox="0 0 254.181 186.081" enable-background="new 0 0 254.181 186.081"
	 xml:space="preserve">
<path fill="#EEEEEE" d="M103.244,155.329c0,0.803,0.528,1.609,1.206,1.609c0.901,0,1.526-1.318,1.526-2.357
	c0-1.834-1.39-2.531-2.062-3.904C103.914,152.399,103.244,153.663,103.244,155.329z"/>
<path fill="#EEEEEE" d="M138.84,175.334c0-0.574-0.236-1.375,0.248-1.607v-2.477c0-0.576-0.678-0.744-0.965-1.084
	c-0.525-0.635-1.105-0.977-1.105-2.189c-0.527,0-0.907-0.172-0.907-0.916l0.19-0.576c-0.098-0.23-0.245-0.521-0.432-0.521h-0.381
	c0-0.061,0.09-0.232,0.09-0.281c0-0.867-0.814-1.152-1.534-1.441c-1.344-0.521-1.872-1.264-2.784-2.357
	c-0.476-0.576-0.814-1.266-1.531-1.549c-0.193-0.059-0.435,0-0.523-0.291c-0.389-0.916-0.726-1.779-1.779-2.184h-1.581
	c-0.389-0.232-0.479-0.518-0.96-0.518h-0.289v0.459c0.142,0.58,0.91,2.188,1.295,2.305c0.432,0.107,0.91,0,1.102,0.512
	c0.293,0.689,0.434,1.037,0.719,1.725c0.336,0.805,1.439,0.576,1.778,1.898c0.096,0.465,0.428,1.834,0.672,2.014
	c0.139,0.115,0.719,0.174,0.767,0.291c0.096,0.172,0,0.516,0.143,0.516c0.142,0,0.72,1.145,0.812,1.434
	c0.53,1.32,0.917,2.355,1.875,3.506c0.86,1.035,1.73,1.496,2.637,2.586c0.05,0.051,0.914,1.553,1.151,1.553
	C137.883,176.139,138.84,175.967,138.84,175.334z"/>
<path fill="#EEEEEE" d="M143.309,165.219c0,0.283,0.478,2.352,0.717,2.41c0.243,0.059,0.525,0.059,0.623,0.348
	c0,0.055-0.048,0.229-0.048,0.287c0.626,1.154-0.146,3.164,1.631,3.164c0.387,0,0.624-0.352,1.013-0.287
	c0.039,0.223,0,0.859,0.093,0.859c0.142,0,0.235,0.285,0.381,0.285c0.577,0,0.814-0.627,1.196-0.627
	c0.816,0,1.349,0.682,2.116,0.922c0,0.344,0.141,0.803,0.618,0.803c0.626,0,0.724-0.689,1.492-0.924
	c0-0.637,0.574-1.484,0.574-1.953c0-0.285-0.237-0.404-0.237-0.799c0-0.35,0.479-1.213,1.054-1.328c0-0.977,0.385-1.318,0.63-2.586
	l0.232-0.574c0.146-0.059,0.341-0.113,0.482-0.113c0.523,0,0.91,0.279,1.056-0.578c-0.862,0-2.161-2.873-2.161-3.738
	c0-0.172,0.188-0.346,0.336-0.398c-0.048-0.178-0.147-0.348-0.19-0.521c0,0,1.299-0.629,1.392-0.803c-0.093,0-0.19-0.172-0.19-0.291
	c0-0.512,1.06-0.172,1.06-0.689c0-1.148-2.016-0.459-2.016-1.664c0-0.861,0.089-1.436-0.726-1.436c-0.767,0-1.824,2.182-2.209,3.1
	c-0.187,0.461-1.292,0.178-1.723,0.689c-0.1,0.119-0.147,0.408-0.297,0.465c-0.229,0.109-0.183,0.23-0.477,0.404
	c0,0-0.519,0.461-0.33,0.689c-0.389,0.455-0.389,1.035-1.105,1.205c-0.525,0.115-1.012,0.115-1.347,0.512
	c-0.667,0.811-0.478,2.594-1.961,2.594C144.316,164.645,143.309,164.241,143.309,165.219z"/>
<path fill="#EEEEEE" d="M160.188,165.903c0.816,0,1.155-0.221,1.831-0.221c0.621,0,1.054,0.393,1.677,0.393
	c0.96,0,1.297-0.969,1.439-1.834c0.146,0,0.189-0.285,0.239-0.465h-0.289c-0.582,0.465-1.246,0.98-1.533,1.33h-0.387l-3.355-0.697
	c-1.247,0-1.82,1.906-1.82,3.279c0,0.344-0.387,0.631-0.435,0.865c-0.334,1.322-0.862,1.842-0.862,3.102
	c0,0.689,0.667,0.689,0.958,0.748v2.758c0,0.346,0.382,0.746,0.763,0.746c0.534,0,0.725-2.014,0.725-2.295
	c0-0.748-0.428-1.146-0.428-1.898c0-0.404,0.381-0.691,0.72-0.691c0.139,0,0.238,0.059,0.38,0l-0.193,1.211
	c0,0.744,0.771,1.031,0.771,1.777c0,0.17,0.048,0.348,0,0.518h0.617c0-0.635,1.06-0.568,1.06-1.203
	c-0.192-0.061-0.669-0.689-0.669-1.039c0-0.113,0.146-0.225,0.188-0.34c-0.28-0.176-1.195-2.238-1.195-2.414
	c1.338,0,1.437-1.268,2.544-1.668v-0.461c-0.291-0.059-2.835,0.861-2.883,1.029l0.103-0.227c-0.195,0.289-0.243,0.574-0.534,0.574
	c-0.719,0-1.006-1.092-1.006-1.953C158.61,165.682,159.377,165.903,160.188,165.903z"/>
<path fill="#EEEEEE" d="M150.984,180.448c0.575,0,0.525,0.4,1.003,0.4c0.099,0,0.435-0.4,0.523-0.627
	c-0.332-0.166-0.332-0.344-0.762-0.525c-0.431-0.168-0.814,0.299-1.147-0.105c-0.098-0.111-0.098-0.518-0.395-0.518
	c-0.86,0-1.481-0.125-2.008-0.748c0.096,0.055,1.729-0.115,1.779-0.4h-0.387l-1.439,0.227c-0.869,0-1.204-1.035-2.162-1.035
	c-0.57,0-0.714,0.863-1.439,0.863c-1.581,0-2.207-1.84-3.645-1.84c-0.291,0-0.48,0.346-0.768,0.346c-0.143,0-0.24-0.232-0.386-0.232
	c-0.287,0-1.149,1.039-1.197,1.211c0.719,0,1.105,0.688,1.583,1.262c0.477,0.58,1.199,0,1.916,0.293
	c0.965,0.338,1.731,0.396,2.642,0.396c0.478,0,0.628,0.748,1.201,0.748c1.872,0,3.503,0.113,5.087,0.867
	C150.935,180.848,150.839,180.448,150.984,180.448z"/>
<path fill="#EEEEEE" d="M161.061,181.198c0.619-0.225,1.047-0.396,1.386-1.143c-0.428,0.221-0.669,0.568-1.386,0.568
	c-0.726,0-1.056-0.402-1.923-0.402c-0.336,0-0.868-0.061-0.868,0.402c0,0.629,0.723,0.574,1.058,0.574H161.061z"/>
<path fill="#EEEEEE" d="M155.873,180.276c0,0.178-0.047,0.297-0.047,0.461c-0.235-0.115-0.48-0.225-0.91-0.225
	c-0.435,0-0.819-0.059-0.819,0.57c0,0.23,0.578,0.404,0.962,0.404c0.48,0,0.676-0.348,1.156-0.572l0.38,0.225h0.433
	c-0.096-0.109,0-0.402,0-0.863H155.873z"/>
<path fill="#EEEEEE" d="M158.61,181.887h-0.48c-0.336,0-0.909-0.111-0.909,0.355c0,0.568,0.772,0.627,1.246,0.627
	c0,0.17,0.046,0.744,0.285,0.744h0.195c0.144,0,0.38-0.225,0.38-0.404C159.327,182.526,158.61,182.692,158.61,181.887z"/>
<path fill="#EEEEEE" d="M153.426,180.221h-0.435v0.58c0,0.172,0.243,0.396,0.389,0.396c0.239,0,0.433-0.225,0.484-0.574
	C153.671,180.512,153.671,180.221,153.426,180.221z"/>
<path fill="#EEEEEE" d="M165.281,182.008c0.764,0,2.35-0.465,2.832-1.328c-0.435-0.336-2.546-0.107-3.028,0.467
	c-0.093,0.109-0.093,0.455-0.238,0.516c-0.72,0.281-1.632,0.281-1.632,1.547c0,0.238,0.148,0.521,0.337,0.521
	c0.525,0,1.345-0.691,1.583-0.979C165.281,182.579,165.04,182.008,165.281,182.008z"/>
<path fill="#EEEEEE" d="M178.521,176.252c0-0.396-0.094-0.166-0.191-0.625c-0.334,0.049-0.288,0.57-0.288,0.98
	c0,0.334-0.48,0.395-0.48,0.967c0,0.178,0.139,0.463,0.282,0.463c0.389,0,0.293-0.637,0.293-1.213
	C178.376,176.825,178.521,176.608,178.521,176.252z"/>
<path fill="#EEEEEE" d="M166.675,171.883c0,0.461,0.569,1.094,0.856,1.094c0.147,0,0.484-0.633,0.484-0.744
	C168.016,171.659,166.675,171.196,166.675,171.883z"/>
<path fill="#EEEEEE" d="M169.167,171.883c0,0,0.669,0.234,0.862,0.234h1.105c0.671,0,1.001,0.576,1.677,0.576
	c0.098,0,0.286,0,0.286-0.113c0-0.463-0.525-0.58-0.575-1.039l-0.146,0.057c-0.287,0-0.621,0.172-0.715-0.234h-2.163
	C169.407,171.487,169.167,171.598,169.167,171.883z"/>
<path fill="#EEEEEE" d="M168.976,162.747c-0.387,0.23-0.433,0.693-0.433,1.152c0,0.752,0.383,0.975,0.383,1.604v0.752
	c0,0.342,0.143,1.09,0.621,1.09c-0.239-0.4-0.339-0.629-0.525-0.975v-0.406c0.38,0,0.907-0.061,1.103-0.113
	c-0.048-0.459-0.384-0.574-0.384-0.867c0-0.332,0.479-0.395,0.479-0.742C169.401,164.008,169.068,163.551,168.976,162.747z"/>
<path fill="#EEEEEE" d="M197.521,175.627c0.128,0.666,0.834,0.6,1.258,0.994c0.013,0.014,0.013,0.02,0.03,0.033
	c0.035,0.035,0.074,0.072,0.104,0.115l-0.089-0.1c0.208,0.18,0.573,0.391,0.712,0.391c1.004,0,1.436-0.633,2.301-0.863
	c0-1.037,1.01-0.801,1.01-2.018c0-0.342-0.144-0.855-0.431-0.855c-0.673,0-0.389,1.262-1.058,1.664
	c-0.432,0.223-1.151,0.172-1.872,0.465c0,0-0.433,0.223-0.527,0.174H197.521z"/>
<path fill="#EEEEEE" d="M195.12,176.139c-1.15-0.686-1.101-2.24-2.641-2.814c-0.237-0.057-0.624-0.113-0.624-0.574
	c-0.571,0-0.857-0.805-1.436-0.805c-1.07,0-2.541-0.594-3.26-1.211v-0.061c-0.024-0.006-0.067-0.02-0.098-0.031
	c-0.048-0.045-0.104-0.09-0.144-0.137l0.108,0.127c-0.243-0.076-0.63-0.232-0.832-0.467h-1.299c-0.28-0.18-0.667-0.867-1.247-1.092
	c-0.141-0.064-0.525,0-0.566-0.295c-0.575,0.115-1.155,1.15-1.588,1.322c-0.669,0.234-0.769,0.293-1.149,0.748
	c-0.098,0.117-0.531,0.973-0.859,0.973c-0.294,0-0.965-0.906-0.965-1.148c-0.43,0-0.721-0.223-0.721-0.508v-2.07
	c-0.862-0.234-1.492-1.152-2.305-1.152c-0.864,0-1.197,0.98-1.774,0.98c-0.289,0-0.672,0.172-0.672,0.508
	c0,0.811,1.153,0.463,1.488,1.275c0.046,0.168,0.146,0.459,0.291,0.514c0.234,0.057,0.43,0.174,0.667,0.174
	c0.53,0,0.864-0.059,1.39-0.229h0.337c-0.337,0.684-1.774,0.568-2.445,0.975c0.098,0.457,0.623,0.223,0.862,0.682
	c0.238,0.463,0,0.695,0.238,1.27c0.048,0.176,0.337,0.176,0.482,0.176c0.382,0,0.578-0.574,0.722-1.035v0.518
	c0.762-0.291,1.058,1.203,1.776,1.203c0.767,0,2.062,0.291,2.589,0.574c0.48,0.293,1.827,0.926,2.012,1.611
	c0.241,0.863-0.046,1.672,0.63,2.473c-0.291,0.174-1.201,0.461-1.201,1.15c0,0.459,0.43,0.459,0.762,0.459h1.015
	c0-0.285,0.525-0.344,0.719-0.344c1.243,0,1.579,1.785,2.824,1.785h1.831c0-0.41,0.428-0.633,0.236-1.387
	c0.674-0.398,0.576-1.432,1.774-1.432c1.588,0,2.448,1.604,3.408,2.758c0.096,0.115,0.478,0.219,0.478,0.463
	c0,0.627,1.104,1.26,1.825,1.432h1.249c0.098,0.117,0.814,0.693,0.907,0.693h0.285c0-0.404,0.339-0.693,0.63-0.924
	c-0.14-0.057-0.867,0.059-0.956-0.227c-0.102-0.229-0.195-0.578-0.484-0.689c-0.188-0.059-0.474,0.176-0.571-0.111
	c-0.1-0.236-0.245-0.637-0.389-0.637c-0.339,0-0.91-0.289-1.049-0.572c-0.389-0.689-0.291-1.094-0.771-1.674
	c-0.096-0.111-0.914-1.088-0.914-1.377c0-0.516,0.914-0.287,0.914-0.918C196.61,175.793,195.601,176.428,195.12,176.139z"/>
<path fill="#EEEEEE" d="M203.133,172.403c-0.529-0.633-0.96-1.322-1.87-1.668c0.144,0.463,0.48,0.402,0.862,0.693
	c0.624,0.455,0.532,1.096,1.153,1.436c-0.095,0.57-0.095,0.982,0.482,1.096c0.092,0.107,0.189,0,0.282,0
	c-0.043-0.113,0-0.293,0-0.408C204.043,172.75,203.518,172.864,203.133,172.403z"/>
<path fill="#EEEEEE" d="M173.482,186.081h0.476v-0.857c-0.715-0.053-1.049,0.061-1.918,0.291
	C172.238,185.747,172.909,186.081,173.482,186.081z"/>
<path fill="#EEEEEE" d="M165.856,150.352c-0.041,0.15-0.011,0.846-0.144,1.199c-0.139,0.295-0.919,0.078-0.934,0.775
	c-0.263,0.045-0.397,0.297-0.406,0.646c-0.089-0.006-0.17-0.008-0.261-0.008c-0.307-0.012-0.206-0.807-0.773-0.812
	c-0.786-0.021-0.589,1.09-1.508,1.066c-0.093,0.5-0.271,0.791-0.277,1.291c-0.005,0.152,0.169,0.354,0.163,0.5
	c0,0.203-0.365,1.152-0.018,1.152c0.484,0.008,0.424-1.635,0.866-2.131c0,0,0.302,0.408,0.431,0.463
	c0.041-0.053,0.137-0.25,0.137-0.25c0.082,0.1,0.171,0.256,0.432,0.256c-0.036-0.152,0.007-0.301,0.012-0.447l0.607,0.02
	c0.044,0.146,0.126,0.348,0.17,0.5c-0.135,0.09-0.222,0.248-0.229,0.59c-0.013,0.957,0.5,1.762,1.112,1.775
	c0.13,0,0.302,0.053,0.438-0.033c0,0.141,0.083,0.404,0.218,0.404c0.302,0.002,0.486-0.297,0.486-0.695
	c0.007-0.549-0.515-0.709-0.509-1.062c0-0.293,0.222-0.393,0.406-0.691c0.087,0.15,0.211,0.256,0.252,0.406l-0.025-0.121
	c0.076,0.279,0.387,1.135,0.536,1.182c0.013-0.848,0.543-1.135,0.554-1.691c0.002-0.443-0.699-3.412-1.04-3.824
	C166.38,150.614,166.162,150.358,165.856,150.352z"/>
<path fill="#EEEEEE" d="M155.633,152.336l0.304,0.012c0.53-0.393,1.368-1.023,1.566-2.172c0.352,0.006,0.655-0.084,0.751-0.527
	c0.218,0,0.266-0.152,0.439-0.293c-0.17-0.203-0.387-0.314-0.381-0.812c-0.132,0.145-0.139,0.393-0.23,0.643
	C157.587,150.276,156.091,150.85,155.633,152.336z"/>
<path fill="#EEEEEE" d="M158.061,141.788c-0.006,0.299,0.771,0.91,0.951,0.914c0.131,0.004,0.22-0.195,0.313-0.34l0.258,0.002
	l-0.009,0.5c-0.086,0.107-0.263,0.246-0.267,0.547c-0.007,0.256,0.339,0.707,0.641,0.717c0.265,0.008,0.445-0.289,0.706-0.287
	c0.612,0.01,0.639,1.111,1.256,1.129c-0.124-0.408-0.255-0.615-0.031-0.955c0.255,0.453,1.297,0.926,1.554,1.535
	c0.043,0.146,0.08,0.4,0.215,0.406c0.085,0.002,0.176-0.199,0.178-0.297c0-0.154,0.005-0.25,0.005-0.4
	c-0.302-0.008-0.567-0.213-0.559-0.617c-0.087,0.051-0.307,0.096-0.307,0c0.005-0.258,0.222-0.295,0.271-0.598
	c-0.086-0.002-0.171-0.107-0.258-0.107c-0.179,0-0.229,0.348-0.399,0.34c-0.268-0.002-0.381-1.148-0.906-1.166
	c-0.259-0.004-0.482,0.188-0.484,0.389c-0.002,0.051-0.002,0.203-0.004,0.246c-0.48-0.26-1.071-1.523-1.061-2.27
	c0.011-1.047,0.802-1.125,0.819-2.23c0.011-0.852-0.55-1.611-0.537-2.262c0.005-0.098-0.087-0.258-0.087-0.35
	c0.005-0.055-0.08-0.209-0.08-0.254c-0.174,0.094-0.314,0.49-0.575,0.488c-0.394-0.012-0.294-0.908-0.778-0.92
	c-0.35-0.004-0.442,0.494-0.444,0.992c-0.016,0.6,0.199,1.008,0.187,1.605c-0.002,0.455-0.103,1.148-0.28,1.496
	C157.911,139.932,158.071,140.985,158.061,141.788z"/>
<path fill="#EEEEEE" d="M165.392,146.297c-0.35-0.018-0.608-0.221-0.96-0.23c-0.131,0-0.261,0.146-0.396,0.191
	c0.076,0.408,1.043,0.775,1.029,1.473c0,0.107-0.139,0.295-0.222,0.295c-0.047,0-0.352-0.004-0.573-0.01l-0.004,0.301
	c0.043,0.146,0.348,0.664,0.653,0.664l-0.009,0.301c-0.178,0.293-0.098,0.699,0.209,0.707c0.13,0,0.261,0.004,0.396,0.004v-0.301
	c-0.17-0.1-0.342-0.607-0.374-1.004l0.654,0.008c0.043-0.197,0.134-0.344,0.187-0.643c-0.048,0-0.344-0.459-0.344-0.459
	s0.048-0.502,0.009-0.797c-0.089-0.006-0.176-0.006-0.265-0.006C165.431,146.637,165.392,146.442,165.392,146.297z"/>
<path fill="#EEEEEE" d="M161.63,147.272c-0.057-0.076-0.124-0.162-0.188-0.168c-0.089,0-0.271,0.141-0.271,0.244
	c-0.004,0.453,0.161,1.408,0.146,2.26c0.396-0.293,1.416-0.723,1.423-1.576C162.744,147.653,161.973,147.471,161.63,147.272z"/>
<path fill="#EEEEEE" d="M162.952,148.739c-0.224,0.049-0.46,1.295-0.467,1.438c-0.128,0-0.394,0.145-0.394,0.299
	c-0.004,0.348,0.773,1.316,0.945,1.318c0.085,0,0.267-0.146,0.267-0.242c0.005-0.309-0.217-0.209-0.215-0.658
	c0.014-0.604,0.502-0.988,0.513-1.586C163.602,149.01,163.391,148.594,162.952,148.739z"/>
<path fill="#EEEEEE" d="M163.363,150.7h0.213c0.015-0.75,0.588-0.984,0.599-1.885c-0.135,0-0.267-0.002-0.395-0.002
	C163.765,149.709,163.5,150.108,163.363,150.7z"/>
<path fill="#EEEEEE" d="M164.723,150.075c-0.135,0.197-0.35,0.092-0.559-0.012c-0.146,0.303-0.41,0.443-0.412,0.74
	c0,0.104,0.167,0.252,0.254,0.252C164.401,151.073,164.718,150.631,164.723,150.075z"/>
<path fill="#EEEEEE" d="M163.802,147.305c0.011-0.641-0.559-0.809-0.683-1.262l-0.391-0.014c-0.009,0.209-0.009,0.4-0.016,0.754
	c0.22,0.008,0.394-0.037,0.617,0.014C163.324,147.045,163.802,147.561,163.802,147.305z"/>
<path fill="#EEEEEE" d="M160.313,146.387c0.176,0,0.399-0.596,0.319-0.996c-0.124-0.604-0.602-0.516-1.125-0.926l-0.438-0.004
	C159.07,144.461,160.051,146.381,160.313,146.387z"/>
<path fill="#EEEEEE" d="M160.775,144.792c0.085,0.104,0.344,0.059,0.438,0.014C161.128,144.702,160.865,144.743,160.775,144.792z"/>
<path fill="#EEEEEE" d="M160.238,124.02c-0.674-0.023-1.761,2.184-1.803,3.387c-0.029,0.859-0.203,1.607,0.662,1.637
	C160.199,129.083,161.43,124.061,160.238,124.02z"/>
<path fill="#EEEEEE" d="M145.99,133.768c0-0.338-0.332-0.859-0.57-0.859c-0.626,0-2.26,1.439-2.644,1.439c-0.239,0,0,0.516,0,0.863
	c0,0.744,0.334,1.145,1.06,1.145C144.551,136.356,145.99,134.573,145.99,133.768z"/>
<path fill="#EEEEEE" d="M139.175,170.225c0.05,0.17,0.243,0.797,0.341,0.797c0.193,0,0.335,0.342,0.623,0.342h0.335
	c-0.048-0.166-0.048-0.389-0.048-0.57c-0.673,0-0.96-1.086-1.201-1.949c-0.337,0.051-1.006,0.455-1.006,0.744
	C138.219,170.051,138.983,169.758,139.175,170.225z"/>
<path fill="#EEEEEE" d="M142.055,171.713c0.289,0,0.482-0.344,0.534-0.691c-0.143-0.055-0.293-0.287-0.44-0.287h-0.474
	c-0.05,0,0,0.232,0,0.287C141.675,171.309,141.769,171.713,142.055,171.713z"/>
<path fill="#EEEEEE" d="M129.876,168.206h-0.387v0.227c0,0.412,0.624,1.326,0.864,1.383c0.037-0.566-0.187-0.904-0.478-1.326
	V168.206z"/>
<path fill="#EEEEEE" d="M127.997,164.706l-0.234,0.109h0.046c0.048,0.346,0.671,1.26,0.86,1.26
	C129.053,166.075,128.291,164.928,127.997,164.706z"/>
<path fill="#EEEEEE" d="M171.561,110.034c0,0.285,0.245,0.631,0.479,0.631c0.147,0,0.337-0.234,0.578-0.234
	c-0.096-0.168,0-0.342,0-0.516c0.046,0.289,0.098,0.635,0.382,0.75l-0.188,0.801c0,0-0.479,0.811-0.479,0.928
	c0,0.229,0.285,0.912,0.667,0.912v-0.344c0,0.176,0,0.516,0.146,0.516c0.674,0,1.058-1.779,1.201-2.812c0.144,0.113,0.285,0,0.431,0
	c-0.094-0.176,0-0.402,0-0.576l-0.431-0.461c-0.144,0-0.048-0.406-0.048-0.574c-0.577,0-0.866-0.459-1.249-0.459
	C172.909,108.594,171.561,109.686,171.561,110.034z"/>
<path fill="#EEEEEE" d="M175.98,110.489c0.621,0,0.723-0.92,1.148-1.436c0.144,0.057,0.339,0.402,0.715,0.402
	c0.482,0,1.062-2.01,0-2.01c-0.667,0-0.812,0.979-1.629,0.684c0,0.061-0.905,0.867-0.905,0.867c0,0.281,0.091,0.398,0.38,0.627
	C175.64,109.915,175.734,110.489,175.98,110.489z"/>
<path fill="#EEEEEE" d="M181.156,103.475c-0.43,0-0.717,1.777-1.531,1.777h-2.974c-1.255,0-1.684,1.447-2.693,2.246
	c-0.183,0.115-0.619,0.23-0.619,0.406c0,0.225,0.339,0.225,0.671,0.225c1.006,0,1.868-0.453,2.496-0.799
	c0.378-0.234,0.671,0.051,1.056-0.172c0.139-0.062,0.191-0.459,0.48-0.459c0.577,0,0.864,0.342,1.444,0.516
	c0,0.23-0.15,0.629-0.15,0.975c0,0.17-0.147,0.463,0,0.463c0.337,0,0.289,0.451,0.674,0.568c0.238-0.568,0.816-1.492,1.146-1.492
	c0.144,0,0.337,0,0.482-0.053c-0.05,0-0.482-0.695-0.482-0.926c0-0.168,0.144-0.457,0.291-0.457c0.433,0,0.389,0.979,1.388,0.979
	c0.387,0,0.674-0.35,0.963-0.689h0.479c0,0.117,0.148,0.283,0.239,0.283c0.193-0.799,0.625-0.861,1.297-1.375
	c-0.048,0.4-0.241,0.457-0.048,0.916c0.573-0.225,0.573-0.801,1.155-1.154c-0.104-0.342-0.245-0.566-0.245-1.09
	c0-0.74,0.529-1.088,0.529-1.609c0-0.629-0.146-2.412,0.33-2.584c0.146-0.059,0.294,0.061,0.441-0.115v-0.342
	c0-0.748,0.669-0.863,0.669-1.785c0-0.807-0.669-1.205-0.669-2.01c0-0.4,0.046-0.742-0.1-1.146
	c-0.048-0.176-0.237-0.291-0.576-0.291c-0.141,0-0.05,0.521,0.096,0.521c0.053,0,0.1,0.057,0.139,0.057
	c-0.573,0.568-0.519-0.174-0.614-0.174c-0.628,0-1.107,1.432-1.107,2.125c0,0.287,0.187,0.287,0.187,0.689
	c0,1.84-1.627,4.256-2.635,4.658c-0.571,0.232-0.669,0.801-1.393,0.801c-0.093,0-0.24-0.168-0.24-0.289
	c0-0.23,0.104-0.455,0.24-0.631C181.836,102.1,181.204,103.475,181.156,103.475z"/>
<path fill="#EEEEEE" d="M186.58,90.657c-0.096,0.402-0.86,0.809-0.86,1.438c0,0.229,0.239,0.346,0.239,0.576v1.316h0.28
	c0.387-0.459,0.777-0.227,1.155-0.859c-0.189-0.227-0.91-0.227-0.91-0.805c0-0.973,0.814-0.398,1.44-0.398
	c0-0.18,0.19-0.406,0.332-0.459c0.823,0.629,1.299,0.742,2.062,1.32c0.387-0.691,0.723-2.01,1.73-2.01c0.72,0,1.056-0.174,1.49-0.52
	c-0.191-0.055-0.58-0.402-0.58-0.746c0-0.291,0.195-0.404,0.291-0.695c-0.291-0.225-0.625,0.119-1.008,0.119
	c-1.87,0-2.445-1.842-3.74-2.875c-0.098,0.174-0.295,0.348-0.295,0.75c0,0.227,0.247,0.338,0.247,0.572
	c0,0.748-0.339,2.99-1.155,2.99c-0.139,0-0.337,0.053-0.482,0l0.103,0.111c-0.147-0.111-0.243-0.172-0.339-0.281V90.657z"/>
<path fill="#EEEEEE" d="M193.491,88.934c-0.1,0.172-0.141,0.512,0,0.512c0.431,0,1.006-0.855,1.195-1.203l-0.161-0.154
	C194.149,88.139,193.674,88.61,193.491,88.934z"/>
<path fill="#EEEEEE" d="M194.447,88.016l0.078,0.072c0.023-0.002,0.046-0.02,0.065-0.02L194.447,88.016z"/>
<path fill="#EEEEEE" d="M197.141,85.942c-0.576,0-1.062,1.264-1.062,1.264c0,0.061-0.043,0.289,0,0.289
	c0.674,0,0.674-1.152,1.779-1.152v-0.4C197.664,86,197.423,85.942,197.141,85.942z"/>
<path fill="#EEEEEE" d="M199.391,85.428c0.383,0,0.771-0.805,0.816-1.15c-0.098,0-0.671,0-0.767,0.346
	c-0.05,0.17,0.096,0.459-0.05,0.459C199.297,85.083,199.297,85.428,199.391,85.428z"/>
<path fill="#EEEEEE" d="M190.274,69.387c-0.19-0.746-0.577-1.496-0.577-2.645h-0.33v1.213c0,0.281-0.198,0.398-0.198,0.74
	c-0.715,0.172-1.008,1.725-1.008,2.934c0,0.861,0.728,1.207,0.728,2.07v3.395c0,0.689-0.247,0.916-0.247,1.781
	c0,0.689,0.293,0.797,0.293,1.609c0,0.861-0.193,1.549-0.193,2.588c0,0.281-0.144,1.664,0,1.664c0.578,0,0.578-1.268,1.151-1.268
	h0.478c0.05,0.232,0.289,0.635,0.48,0.58c0.05,0,0.147-0.059,0.147-0.059c-0.389-0.98-1.396-1.609-1.396-2.934
	c0-1.492,0.147-3.334,1.439-3.334c0.428,0,0.773,0.346,1.011,0.754c-0.285-1.383-0.913-2.535-1.299-3.971
	c-0.094-0.344-0.433-0.982-0.333-1.551v-1.385C190.084,70.764,190.466,70.192,190.274,69.387z"/>
<path fill="#EEEEEE" d="M65.535,22.997c0,0,1.293-0.06,1.438,0c0.812,0.286,0.384,1.207,0.721,2.012c0.092,0.288,0.862,0,1.194,0
	c0.146,0,0.241,0.348,0.335,0.404h3.747c-0.048-0.114-0.101-0.192-0.156-0.281c-1.062-1.14-2.627-1.66-2.627-3.746
	c0-3.677,3.311-7.53,5.759-8.334c0.862-0.289,1.101-1.558,2.302-1.558c0.576,0,0.768-1.148,1.056-1.32
	c1.582-0.92,2.778-0.457,4.462-1.433c1.201-0.688,4.894-1.037,4.894-2.993c0-0.629-1.345-1.437-1.92-1.437
	c-2.398,0-4.657,3.277-7.2,3.277c-0.574,0-0.862-0.69-1.437-0.69c-0.916,0-0.916,0.69-1.533,0.69c-1.774,0-3.121,2.757-4.317,2.757
	c-0.724,0-1.199,0.405-1.916,0.405c-0.341,0-0.482,0.344-0.482,0.577c0,0.344,0.334,0.574,0.334,1.034
	c0,1.611-2.493,2.469-2.493,3.448c0,0.459,0.671,0.575,0.717,1.262c-0.769,0.231-2.302,0.637-2.302,1.616v0.857
	c0,1.033-1.44,0.921-1.44,2.301C64.669,22.536,65.535,22.997,65.535,22.997z"/>
<path fill="#EEEEEE" d="M72.777,25.067c0.015,0.019,0.028,0.044,0.037,0.064c0.052,0.056,0.108,0.105,0.156,0.165L72.777,25.067z"/>
<g>
	<line fill="#EEEEEE" x1="51.428" y1="93.952" x2="51.234" y2="93.987"/>
	<path fill="#EEEEEE" d="M61.263,115.206c1.343,0,2.4,1.785,2.931,3.045c0.096,0.232-0.048,0.691,0.236,1.039
		c0.528,0.627,1.295,0.279,1.87,0.973c0.478,0.576,0.867,1.322,1.634,1.611h2.402c0.282-0.346,0.478-0.863,1.008-0.863
		c1.001,0,1.001,1.727,1.479,2.297c0.053,0.061,1.44,0.518,1.684,0.518c1.29,0,3.408,0.693,4.318,0.693c0.043,0,0.241,0.055,0.241,0
		l1.681-0.115c0.094-0.115,0.234-0.287,0.424-0.404l1.244,0.404c0.489,0,0.631-0.459,1.206-0.459c0.532,0,0.912-0.119,1.44,0.055
		c0.575,0.23,0.859,1.553,1.251,2.301c0.476,0.863,1.87,2.006,2.823,2.006c0.385,0,0.728,0,1.11,0.119
		c-0.196,0.232-0.243,0.746-0.626,0.863c-0.435,0.176-0.767-0.117-1.196,0.23c0.712,0.863,1.292,2.643,2.78,2.643
		c1.244,0,1.294-1.953,1.918-2.697h0.38c0,0.227-0.282,0.635-0.282,0.799c0,0.754,0.476,1.438,0.476,2.359
		c0,0.719-0.213,0.875-0.23,1.641l-0.037-0.039c0,0.164,0.074,0.641,0.074,0.811c0,1.094,0.529,2.193,0.816,3.336
		c0.341,1.271,1.203,3.168,1.438,4.027c0.198,0.742,0.198,1.088,0.58,1.844c0.383,0.68,0.146,1.43,0.528,2.352
		c0.193,0.461,0.862,1.039,1.058,1.834c0.332,1.207,0.86,2.357,1.244,3.744c0.051,0.17,0.191,0.576,0.429,0.576
		c0.054,0.4,0.339,0.633,0.723,0.578c0.385,0,0.433-0.693,0.621-1.154c0.246-0.574,0.339-0.35,0.912-0.695
		c0.387-0.232,0.241-1.721,0.915-1.951c0.144-0.057,0.479-0.057,0.479-0.227l0.239-0.061l-0.239-1.494
		c0-1.094,0.578-2.016,0.578-3.449c0-0.922-0.339-1.496-0.339-2.527c0-1.213,1.01-1.379,1.868-1.725
		c0.339-0.115,0.869-0.807,1.253-1.273c0.912-1.086,1.769-2.244,2.732-3.389c0.771-0.914,2.157-1.205,3.023-2.238
		c0.431-0.52,0.385-1.152,0.571-1.959c0.148-0.512,1.153-0.57,1.49-1.434c0.385,0.291,0.385,0.574,1.153,0.574
		c1.249,0,2.587-0.348,2.587-2.072c0.724,0.174,1.536,0.521,1.731,1.324c0.191,0.688,0.093,1.607,0.478,2.299
		c0.389,0.748,0.912,1.205,1.586,1.84c0.478,0.922,1.056,1.834,1.388,3.049c0.048,0.285,0.289,0.465,0.289,0.746
		c0,0.631-0.241,0.973-0.241,1.727c0,0.746,0.05,1.434,0.767,1.434c1.347,0,1.686-1.668,2.5-2.643
		c0.287,0.344,0.142,0.572,0.426,0.922c0.096,0.115,0.484,0,0.626,0.287c0.481,0.861-0.335,2.584,0.286,2.584
		c0,1.848,1.249,3.334,1.249,5.867c0,0.631-0.385,1.941-0.002,2.186h-0.142h-0.098c-0.144,0.805-0.236,1.371-0.236,2.178
		c0,0.121-0.098,0.35,0,0.35c0.437,0.348,0.146,0,0.619,0c0.773,0,1.107,2.066,1.444,2.875c0.525,1.324,0.623,2.527,1.051,4.197
		c0.53,1.898,1.875,3.619,3.362,4.195c0.289,0.111,0.333,0.514,0.811,0.514c0.149,0,0.195-0.229,0.339-0.229
		c0.195,0,0.243,0,0.623-0.053c-0.234-0.635-0.234-0.922-0.428-1.672c-0.195-0.688-0.912-1.037-0.912-2.064
		c0-0.518,0.191-0.518,0.191-1.096c0-2.875-2.833-3.223-4.127-4.773c-0.339-0.4-0.385-1.438-0.573-1.836h0.091
		c0-1.674-1.631-0.982-1.631-2.766c0-1.549,1.395-2.006,1.395-3.732c0-0.461-0.191-0.572-0.191-1.094
		c0-0.281-0.098-0.625,0.289-0.625c0.525,0,1.101,0.105,1.244,0.742c0,0,0.146,0.744,0.243,0.744
		c0.765,0.291,1.438,0.35,2.107,1.148c0.58,0.697,0.048,1.551,1.105,1.551c0,0.871,0.962,1.148,1.679,1.148
		c0.048,0.297,0.144,0.754,0.335,0.869c-0.191,0.113-0.191,0.34-0.191,0.799c0,0.354,0.191,1.156,0.387,1.156
		c0.188,0,1.146-0.863,1.146-1.438v-0.633c0,0.176,0,0.521,0.146,0.521c0.576,0,0.476-0.922,1.056-1.275
		c1.247-0.742,1.391-1.371,2.931-1.832c0-1.035,0.577-1.553,0.577-2.877c0-1.895-0.775-4.428-1.922-5.348
		c-1.203-0.916-1.684-2.408-2.787-3.738c-0.193-0.225-0.43-0.342-0.43-0.855c0-2.471,2.353-2.879,3.308-4.662
		c0.819,0.463,1.393,0.119,2.307,0.633c-0.045,0.295-0.195,1.438,0.239,1.438c0.525,0,0.239-0.744,0.626-1.205
		c0.332-0.402,1.29-0.57,1.679-0.805c0.908-0.518,1.82-0.289,2.396-0.977c0,0,0.48-1.096,0.58-1.096
		c0.476,0,0.721,0.467,1.199,0.467c2.209,0,2.736-1.611,4.081-2.535c0.378-0.225,0.623-0.457,0.715-1.033
		c1.151,0,1.481-2.129,1.92-3.221c0.286-0.695,1.581-2.986,2.303-3.16c0-1.26,0.719-1.838,0.719-3.502
		c0-2.475-0.482-3.391-1.341-4.947c-0.149-0.285-0.149-0.977-0.579-1.266l0.05-0.057h-0.098c0,0-0.048-0.922-0.048-1.092
		c-0.389-0.061-1.299-0.633-1.299-1.439c0-0.693,0.816-0.75,1.012-1.438c0.433-1.547,2.491-1.547,3.451-2.699
		c-0.384-0.633-1.103,0-1.776-0.52c-0.33-0.227-0.521-0.688-1.056-0.688c-0.382,0-0.382,1.268-0.669,1.268
		c-0.383,0-0.862,0.168-1.244-0.119c-0.578-0.461-0.39-1.033-0.958-1.553c-0.193-0.178-1.013-0.404-1.013-0.977
		c0-1.209,1.393-0.803,2.063-1.377c0.576-0.525,1.679-1.379,2.063-2.129c0.1-0.176,0.291-0.746,0.77-0.746
		c0.382,0,0.914,0.746,0.914,1.088c0,0.922-0.914,1.32-0.914,2.361c1.34,0,2.441-1.727,3.98-1.727c0.576,0,0.812,0.627,1.536,0.627
		c-0.237,0.582,0,0.582,0,1.268c0,0.574-0.528,0.518-0.528,1.207c0,0.287,0.146,0.977,0.479,0.977c0.146,0,0.334-0.275,0.671-0.275
		c0.582,0,1.295,0.453,1.295,1.139c0,0.404-0.381,0.748-0.767,0.748v0.58c0.098,0.113,0.193,0.344,0.479,0.398
		c0,0.348,0.239,0.633,0.239,0.977c0,0.172-0.428,0.916-0.428,1.326c0,0.229,0,0.518,0.24,0.568
		c-0.052,0.291-0.291,0.465-0.291,0.754h0.722c0.291-0.346,0.382-0.346,0.951-0.523c0-0.516,1.203-0.57,1.494-0.688
		c0.676-0.227,0.96-0.861,0.96-2.184c0-2.242-0.717-3.57-1.772-4.83c-0.434-0.516-0.916-1.031-0.818-2.01
		c0.578,0,1.054-0.4,1.44-0.863c0.338-0.402,1.198-0.98,1.39-1.436c0.621-1.557,1.008-2.471,2.157-3.566l0.002-0.002
		c0.009,0.004,1.877,0.582,3.36,0.582c2.734,0,5.311-6.922,7.234-9.225c0.768-0.918,1.834-2.789,2.12-4.285
		c0.333-1.672-0.228-2.742,0.521-4.336c0.278-0.598,0.841-1.895,0.841-3.164c0-1.553-2.083-4.578-3.039-3.717
		c-2.845,2.568-4.317-1.375-4.317-1.723c0-1.609,2.589-3.391,3.592-4.598c1.492-1.785,3.456-4.766,5.52-5.461
		c1.826-0.574,7.535-1.148,9.116-1.148c1.964,0,2.88,1.148,4.077,1.148h2.639c0.771-3.792,2.211-6.039,5.52-6.039
		c0.864,0,1.251-0.289,2.882,0c-0.821,0.748-1.157,5.728,4.075-2.01c0.53-0.119,3.039,1.124-0.724,4.023
		c-1.308,1.014-2.493,0.515-3.352,2.01c-1.01,1.726-1.924,3.912-3.36,4.89c-1.203,0.801-2.884,2.125-2.884,4.596
		c0,2.129,0.577,9.084,1.922,10.35c0.962-1.729,1.632-4.887,3.602-5.463c-0.243-1.607,1.92-1.951,1.92-3.156
		c0-1.902,1.675-2.42,1.675-3.453c0-0.693-0.463-1.391,0-2.586c3.881-9.94,7.435-4.598,8.879-4.598
		c4.269,0,7.294-6.528,11.032-6.613c7.124-0.168,1.442-3.392,1.442-4.308c0-2.478,2.782-2.077,3.357-3.453
		c0.241-0.574-0.232-2.014,0.72-2.014c3.019,0,5.515,4.889,7.674,4.889c0.962,0,1.151-2.126,1.677-2.875
		c0.823-1.148,1.597-1.038,2.882-1.554c-1.722-2.761-7.337-4.312-10.076-6.207c-3.792-2.646-8.827-5.46-14.392-5.46
		c-1.531,0-2.603,0.382-2.398,1.146c1.483,5.581-2.209-0.056-3.125,0l-11.03-0.281c-0.623-2.993-2.254-4.028-5.515-4.028
		c-1.779,0-4.461,0.805-5.52-0.286c-0.955-0.979-1.008-2.359-2.399-2.877c-2.929-1.148-6.089-2.01-9.838-2.01
		c-3.744,0-4.266,2.354-4.559,4.599h-7.674c-1.345,0-1.531-1.323-3.117-1.437c-0.149,0.807-0.433,2.587-1.199,2.587
		c-2.016,0-2.876-2.987-2.876-4.598c0-0.406,3.871-3.332-5.999-4.312c-1.242-0.13-1.924,0.513-1.924,2.293h-5.276
		c-1.579-0.512-9.883-1.665-10.938-3.733c-6.297,6.156-4.892,2.301-4.892,2.301c1.485-2.239,15.986-6.927,4.079-10.35h-5.043
		c-0.479-1.606-1.532-3.161-3.593-3.161c-2.496,0-3.504,2.242-4.801,3.45c-0.955,0.864-7.161,3.853-6.62,1.146
		c-1.581,0.577-8.336,1.129-11.847,4.893c-0.738,0.785-0.964,3.161-2.067,3.161c-1.579,0-7.53-0.693-7.53,2.588
		c0,0.688,0.534,1.375,0.717,2.297c-1.056,0.803-1.434,0-4.796,0c-2.846,4.568-2.587-0.69-3.263-1.725
		c-0.243,1.838-1.242,2.644-2.494,3.448c0.385,1.613,2.431,3.284,0.956,5.177c-1.008,1.302,1.955,5.578,0.394,5.578
		c-2.014,0-2.553-8.686-2.553-10.467c0-1.955,2.672-2.757-1.436-3.736c-2.065-0.49-5.999,3.565-5.999,5.749
		c0,2.646,1.008,4.371,2.163,5.748c2.667,5.004-3.712-0.58-6.086-1.317c-6.572-2.041-4.455,0.631-4.468,1.03
		c-0.215,4.428-1.779,0.862-2.646,0.862c-1.486,0-4.527,2.418-6.716,1.149c-1.102-3.389-8.296,4.313-10.068,4.313
		c-0.577,0-1.413-0.506-1.201-1.152c0.741-2.32-0.332-7.354-2.401,0.288c-0.135,0.492,0.717,0.69,0.717,1.722
		c0,2.017-2.492,0.636-3.834,1.151c-1.347,0.52-0.691,6.013-6.238,3.165v2.302c-2.734-0.294-2.4-3.798-3.36-5.467
		c2.065,0,3.19-0.077,5.189,0.552c2.663,0.838,8.032-3.161-0.15-6.299c-2.344-0.897-7.534-4.024-9.116-4.024
		c-0.141,0-0.19-0.229-1.294-0.059c-0.15,0-1.156-0.17-1.588-0.231c0-0.342-0.33-0.396-0.812-0.857c1.102-0.462,1.485,0,1.918-1.381
		c-0.383-0.234-1.436-0.92-1.675-0.92c-0.385,0-0.58,0.403-0.726,0.862c-0.527-0.062-0.432-0.577-0.479-1.324
		c-0.765,0.572-1.145,0.804-1.82,1.608c-0.053-0.346-0.053-0.631-0.241-1.036c-0.819,0.522-1.105,1.844-2.062,1.729
		c0.193-0.802,1.01-1.038,1.01-1.839c0-0.748-1.824,0.686-2.548,0.686c-0.43,0-0.717-0.459-1.008-0.86
		c-0.143,0.343-1.003,0.578-1.003,0.86c0,0.403,0.337,0.519,0.719,0.691c-0.869,0.577-1.682,0.233-2.305,1.613v-0.978
		c-1.003,0.059-1.153,1.377-1.774,1.548v-0.684c-0.724,0.167-1.581,0.113-2.06,0.684c0.189,0.235,0.14,0.172,0.378,0.462
		c-0.336,0.228-0.621,0.114-0.96,0.114c-0.479,0-0.859,0.463-1.101,0.922c0.43-0.058,0.43,0,0.769,0.114
		c-0.098,0.059-0.628,1.434-0.869,1.434c-0.614,0-0.81-0.573-1.576-0.573c0.139-0.4,0.093-0.691-0.148-1.032
		c-0.143,0.172-0.286,0.401-0.43,0.745c-0.144,0-0.239-0.167-0.387-0.167c-0.378,0-0.625,0.341-0.719,0.915
		c0,0,0.482,0.173,0.719,0.173c-0.188,0.114-0.719,0.4-0.962,0.806c1.157,0,1.636-0.747,2.832-1.038
		c-0.239,1.207-1.583,3.165-2.589,3.624c-1.004,0.46-1.675,1.265-2.255,2.414c0,0.057-0.482,1.321-0.482,1.321
		c-0.38,0-0.286,1.782-0.862,2.299c-1.439,1.383-2.256,3.392-4.365,4.028c0.432,0.113,0.623,0.229,1.153,0.399
		c-1.727-0.231-1.914,1.153-2.782,1.438c-1.056,0.342-1.586,1.036-2.161,2.012c-0.289,0.521-1.052,0.463-1.052,1.325
		c0,1.608,0.092,3.045,0.814,4.083c-0.243,0.398-0.771,1.09-0.771,1.488c0.575-0.283,0.575-0.283,1.251-0.283v0.859
		c-0.193,0.119-0.821,0.404-0.821,0.863c0,0.229,1.874,1.611,2.163,1.611c2.016,0,3.554-2.18,4.558-3.912
		c0.312,0.541,0.432,1.023,0.96,1.365C9.774,56.02,9.64,56.348,9.64,56.629c0,1.029,0.721,1.264,0.958,2.121
		c0.334,1.266,0.243,2.072,1.056,3.049c0,0.172-0.094,0.4-0.094,0.582c0,0.281,0.669,2.695,1.054,2.695
		c1.196,0,1.488-1.842,2.307-1.842h1.295c0.139-1.09,1.292-1.203,1.439-2.758c-0.293-0.061-0.723-0.291-0.723-0.977
		c0-1.207,0.382-2.871,1.342-2.871c0.479,0,1.918-1.441,1.918-2.301c0-1.092-1.295-2.127-2.159-2.302
		c0-0.403-0.141-0.805-0.378-1.029v-1.152c0.717-0.406,0.237-1.495,0.619-2.301c0.479-1.031,1.343-1.264,2.159-1.84
		c1.008-0.69,3.217-1.84,3.217-3.161c0.144-0.353,0-0.633,0-1.324c0-1.609,1.295-2.3,2.874-2.3c1.205,0,2.782,0.287,2.782,1.725
		c0,0.978-1.149,1.267-1.818,1.725c-1.244,0.862-2.305,4.024-4.32,4.024c0.096,0.399,0,0.747,0,1.151
		c0,0.628,0.433,1.953,0.915,2.186c-0.142,0.284-0.674,0.688-0.674,1.268c0,1.204,1.056,2.003,2.065,2.003
		c0,0.637,0.433,0.752,1.05,0.752c0.818,0,1.92-0.516,2.884-0.862c0.91,0.172,3.117,0,3.598-1.151
		c0.386,0.635,0.866,0.925,1.198,2.014c-0.575,0.459-2.016,1.266-2.637,1.266c-0.818,0-1.347-0.406-2.397-0.406
		c-1.058,0-3.472,1.168-2.735,1.992c2.422,2.709,1.151,3.758,0.571,3.758c-0.957,0-1.099-1.438-1.918-1.438
		c-0.862,0-1.924,2.646-1.924,4.023c0,2.244-1.536,1.939-1.629,3.949c-0.554,0.068-1.143,0.133-1.725,0.133
		c0-0.111,0.096-0.404,0.19-0.631c-0.332-0.172-1.008-0.232-1.629-0.232c-0.58,0-1.344,0.863-1.778,1.092
		c-0.715,0.406-1.343,0.232-2.155,0.697c-0.243,0.111-0.291,0.512-0.816,0.512c0,0-0.814-0.691-0.814-0.803
		c0-0.174,0.236-0.348,0.287-0.635c-1.104-0.17-2.019,1.15-3.311,1.15c-0.144,0-0.241-0.404-0.339-0.689
		c-0.431,0-0.621-0.232-1.153-0.232c0.054-0.17,0-0.283,0-0.633c-0.285-0.057-0.523-0.459-0.523-1.027
		c0-1.039,0.577-1.557,1.056-2.129C8.967,63.293,9.4,63.178,9.4,62.895v-0.461c-0.387,0-0.912-0.053-0.912-0.635
		c0-0.574,0.048-0.918,0.289-1.492v-0.691c-1.203,1.035-3.073,1.207-3.073,3.619c0,1.381,0.767,1.84,0.962,3.391
		c0,0.057,0.332,1.15,0.332,1.441c0,0.459-0.769,0.977-1.056,0.977c-0.434,0-0.864-0.348-1.2,0.061
		c-0.094,0.113-0.239,0.57-0.383,0.396c-0.334,0.174-0.046,0-0.671,0c-1.1,0-1.774,0.924-2.446,1.727
		c-0.052,0.061-0.481,0.402-0.481,0.631c0,0-2.481,9.082,1.519,12.879c4,3.799,13.969,6.289,18.151,9.543
		c4.183,3.256,8.228,9.922,11.038,11.256s13.144,6.549,17.811,7.941s8.986,1.553,8.986,1.553L61.263,115.206z"/>
	<path fill="#EEEEEE" d="M60.629,99.006c-0.185,0.346,0.399,0.387,0.634,0.848c0.383,0.686-0.043,1.152,0.241,1.842
		c0.237,0.633,0.86,0.285,1.391,0.4c0.432,0.117,0.529,0.693,0.814,1.033c0.387,0.459,1.588,0.346,2.204,0.346
		c0.817,0,1.684-0.168,2.255-0.346V102.1c-0.043-0.062-0.474-0.693-0.474-1.211c0-0.514,0.335-0.686,0.335-1.324
		c0-1.09-0.672-2.244-1.68-2.41c0.098-0.867,0.528-1.438,0.963-1.438h1.431c0-0.859-0.762-1.322-0.812-2.189
		c-0.335,0.066-1.247,0.637-1.632,0.867c0-2.244-1.297-2.994-2.204-4.889c-0.291-0.635-1.059-0.572-1.105-1.727
		c0.147,0.066,2.059-1.438,3.359-1.438c0.865,0,1.818,0.637,2.544-0.053c-0.962-1.723-1.391-3.221-3.985-3.221
		c-1.582,0-2.351,0.404-3.596,0.979c-0.143,0.057-1.585,1.035-1.822,0.863c-0.247,0.346-1.155,2.471-1.155,2.752
		c0,0.863,1.058,1.727,1.058,2.305c0,1.957,1.971,5.404,3.261,6.268c-0.767,0.459-0.767,1.836-1.341,2.76
		C61.312,98.995,60.813,98.661,60.629,99.006z"/>
	<path fill="#EEEEEE" d="M129.45,149.321c-0.062,0.178-0.126,0.354-0.202,0.551l0,0C129.324,149.674,129.388,149.499,129.45,149.321
		z"/>
	<path fill="#EEEEEE" d="M130.206,147.167c-0.277,0.707-0.438,1.223-0.621,1.764C129.768,148.393,129.929,147.874,130.206,147.167z"
		/>
	<path fill="#EEEEEE" d="M130.591,146.538c0-0.188-0.11-0.746-0.263-1.363C130.478,145.792,130.591,146.348,130.591,146.538
		c0,0.113-0.063,0.211-0.133,0.297C130.527,146.749,130.591,146.657,130.591,146.538z"/>
</g>
<path fill="#EEEEEE" d="M238.975,24.144c0.525,0,4.313-0.281,4.313-1.035c0-0.859-1.818-1.433-2.537-1.433
	c-0.818,0-2.257,1.033-2.257,1.896C238.494,23.862,238.686,24.144,238.975,24.144z"/>
<path fill="#EEEEEE" d="M225.395,27.709c0.241,0,0.482-0.287,0.482-0.57c0-0.349-0.291-0.462-0.339-0.691h-1.586
	C224.239,27.139,224.722,27.709,225.395,27.709z"/>
<path fill="#EEEEEE" d="M179.723,9.487c0.344,0,0.413-0.422,0.463-0.76l0.015,0.012l-0.013-0.019
	c0.007-0.03,0.009-0.066,0.013-0.094h-0.095l-0.383-0.462c-0.197,0.286-0.387,0.517-0.387,0.865
	C179.336,9.372,179.486,9.487,179.723,9.487z"/>
<path fill="#EEEEEE" d="M148.152,12.362c-0.479,0-1.056,0.287-1.056,0.859c0,0.517,0.529,0.693,1.056,0.693
	c0.389,0,0.692-0.153,1.001-0.349c0.059-0.095,0.102-0.202,0.102-0.345C149.255,12.535,148.821,12.362,148.152,12.362z"/>
<path fill="#EEEEEE" d="M149.255,13.51c-0.034,0.023-0.069,0.035-0.102,0.057c-0.083,0.137-0.2,0.243-0.282,0.349L149.255,13.51z"/>
<path fill="#EEEEEE" d="M125.026,5.002c0.575,0,0.862-0.343,0.96-1.147h-0.722c-0.195,0.17-0.432,0.4-0.721,0.574
	C124.596,4.713,124.787,5.002,125.026,5.002z"/>
<path fill="#EEEEEE" d="M140.956,0.86c0.334,0,0.575-0.454,0.621-0.86c-0.433,0.234-0.571-0.057-1.586,0.172
	C140.133,0.46,140.378,0.86,140.956,0.86z"/>
<path fill="#EEEEEE" d="M184.277,11.789c0.479,0,0.722-0.52,1.054-0.867c0.241,0.348,0.435,0.572,0.864,0.572
	c0.48,0,0.767-0.456,1.056-0.456c0.389,0,0.578-0.405,0.96-0.405c0.337,0,0.53,0.577,0.869,0.577c0.571,0,0.812-0.577,1.194-0.577
	h1.297c0-0.457,0.671-1.091,0.86-1.894c-1.002-0.342-3.834-1.552-4.698-1.552c-0.573,0-0.812,0.692-0.812,1.552
	c-1.299,0-1.396-1.841-2.882-1.841c-1.008,0-2.159,0.981-2.159,2.296C181.88,10.58,183.031,11.789,184.277,11.789z"/>
<path fill="#EEEEEE" d="M9.542,65.77c0-0.582-0.335-0.465-0.335-1.154H8.293v0.572c0,0.582,0.53,0.754,1.104,0.754v0.457
	C9.444,66.108,9.542,66.227,9.542,65.77z"/>
<path fill="#EEEEEE" d="M10.115,66.346l-0.091-0.234c-0.053,0.055-0.193,0.17-0.241,0.287c0.048,0.055,0.332,0.344,0.673,0.344
	c1.056,0,0.674-2.014,1.486-2.303c-0.239-0.971-0.289-1.492-1.247-1.492c-0.335,0-0.912,1.492-0.912,1.73
	c0,0.342,0.527,0.799,1.006,0.918C10.789,65.883,10.456,66.282,10.115,66.346z"/>
<path fill="#EEEEEE" d="M20.431,58.75c-0.856,0.061-1.1,1.094-1.1,1.436c0,0.289-0.147,0.521,0,0.752
	c0.339-0.521,0.722-0.803,0.722-1.438C20.053,59.208,20.335,58.983,20.431,58.75z"/>
<path fill="#EEEEEE" d="M24.753,58.469c0.191,0,0.812-0.408,0.812-0.576v-0.691c0.098-0.059,0.341-0.457,0.384-0.75
	c-0.187-0.113-0.286-0.23-0.527-0.574c0,0-0.428,0.295-0.428,0.574c0,0.293,0.188,0.463,0.334,0.691
	c-0.384,0.059-0.675,0.4-1.056,0.457C24.272,57.95,24.318,58.469,24.753,58.469z"/>
<path fill="#EEEEEE" d="M60.501,28.862c-0.101,0-0.626,1.09-0.626,1.318c0,0.578,0.28,0.688,0.862,0.688
	c0.814,0,1.391-0.573,2.014-0.971v-0.752c-0.674-0.11-1.01-0.861-1.684-0.861C60.828,28.285,60.737,28.862,60.501,28.862z"/>
<path fill="#EEEEEE" d="M74.263,26.447c0,0.691,1.058,1.439,1.684,1.439c0,0,0.623,0.108,0.623-0.293
	C76.569,26.447,74.263,25.297,74.263,26.447z"/>
<path fill="#EEEEEE" d="M91.917,17.191c-0.476-0.46-0.619-1.097-1.194-1.097c-0.433,0-0.721,0.637-0.721,1.151
	c0,0.176-0.14,0.575,0,0.575C90.575,17.821,91.683,17.422,91.917,17.191z"/>
<path fill="#EEEEEE" d="M189.169,16.669h1.44c-0.05-1.316-1.008-2.297-2.255-2.297c-1.104,0-1.729,0.811-2.305,1.723l0.243-0.284
	C187.205,16.213,188.309,16.095,189.169,16.669z"/>
<path fill="#EEEEEE" d="M198.668,11.609c0.772,0,2.163-0.224,2.163-0.857c0-0.286-0.195-0.578-0.482-0.578
	c-0.187,0-5.229-0.745-5.662-1.144l0.478,0.455C195.164,10.921,197.425,11.609,198.668,11.609z"/>
<path fill="#EEEEEE" d="M187.251,13.624c0-0.805-1.292-0.92-1.292,0c0,0.522,0.041,0.748,0.575,0.748
	C186.871,14.372,187.251,14.088,187.251,13.624z"/>
</svg>
