<?xml version="1.0" encoding="utf-8"?>
<!-- Generator: Adobe Illustrator 16.0.0, SVG Export Plug-In . SVG Version: 6.00 Build 0)  -->
<!DOCTYPE svg PUBLIC "-//W3C//DTD SVG 1.1//EN" "http://www.w3.org/Graphics/SVG/1.1/DTD/svg11.dtd">
<svg version="1.1" id="Layer_1" xmlns="http://www.w3.org/2000/svg" xmlns:xlink="http://www.w3.org/1999/xlink" x="0px" y="0px"
	 width="165.829px" height="167.284px" viewBox="0 0 165.829 167.284" enable-background="new 0 0 165.829 167.284"
	 xml:space="preserve">
<g>
	<g>
		<path fill="#EEEEEE" d="M117.727,10.679c-0.389,0.782-1.848,1.886-1.848,3.476c0,3.305,2.895,5.494,5.662,5.494
			c0,1.745,1.187,2.062,2.879,2.062c2.244,0,5.264-1.413,7.906-2.367c2.494,0.473,8.545,0,9.862-3.153
			c1.058,1.74,2.376,2.533,3.286,5.521c-1.578,1.259-5.527,3.47-7.229,3.47c-2.244,0-3.693-1.114-6.574-1.114
			c-2.899,0-9.518,3.202-7.498,5.462c6.639,7.427,3.156,10.303,1.566,10.303c-2.625,0-3.013-3.941-5.259-3.941
			c-2.364,0-5.274,7.256-5.274,11.03c0,6.152-4.211,5.317-4.466,10.827c-1.518,0.188-3.132,0.364-4.728,0.364
			c0-0.306,0.262-1.109,0.521-1.73c-0.91-0.471-2.763-0.637-4.465-0.637c-1.591,0-3.685,2.367-4.875,2.993
			c-1.961,1.114-3.682,0.638-5.909,1.911c-0.667,0.306-0.798,1.404-2.239,1.404c0,0-2.232-1.896-2.232-2.201
			c0-0.477,0.647-0.954,0.787-1.74c-3.025-0.466-5.534,3.153-9.076,3.153c-0.393,0-0.661-1.107-0.929-1.89
			c-1.181,0-1.703-0.638-3.162-0.638c0.146-0.466,0-0.776,0-1.735C73.654,56.846,73,55.744,73,54.185
			c0-2.848,1.582-4.268,2.894-5.836c0.394-0.481,1.582-0.798,1.582-1.574v-1.263c-1.06,0-2.5-0.145-2.5-1.741
			c0-1.574,0.131-2.517,0.792-4.091v-1.896c-3.299,2.839-8.425,3.31-8.425,9.922c0,3.786,2.102,5.045,2.637,9.295
			c0,0.155,0.91,3.155,0.91,3.952c0,1.259-2.107,2.677-2.894,2.677c-1.189,0-2.369-0.952-3.291,0.167
			c-0.256,0.311-0.656,1.563-1.049,1.087c-0.916,0.477-0.126,0-1.839,0c-3.015,0-4.865,2.532-6.707,4.733
			c-0.142,0.166-1.32,1.103-1.32,1.729c0,1.89,0.399,3.785-0.661,5.05c-0.525,0.631-5.778,3.147-6.562,3.453
			c-0.656,0.165-1.055,0.326-1.848,0.326c-0.798,3.775-1.834,7.251-5.789,7.251c-0.262,1.263-1.183,2.354-2.243,2.354
			c-1.572,0-2.889-0.775-3.938-2.039h-1.32v1.264c0.142,0.482-0.257,2.839,0.662,3.159v1.092c-0.52,0.161-1.979,0.792-3.015,0.792
			c-1.066,0-3.161-0.631-3.561-1.578c-1.314,0.471-4.991,1.429-4.991,2.832c0,0.16,0,0.626,0.126,0.626
			c0,2.367,5.793,3.631,7.889,4.423c0.657,0.15,0.788,0.949,1.572,1.104c0,2.521,0.792,5.354,3.424,5.354
			c0,1.27,0.792,0.942,0.792,2.372c0,0.626-0.262,1.729-0.53,2.361l0.257-0.246c0,0.947,0.137,3.705,0.137,4.348
			c0,2.988-1.703,3.919-1.703,7.09c-0.398,0-2.377,0.771-3.292,0.771c-1.304,0-2.103-1.097-3.682-0.615h-6.312
			c-0.654-0.155-1.714-0.321-2.238-0.954h-5.912c-0.787,0.311-1.459-0.637-1.984-0.637c-0.779,0-5.258,3.319-5.258,4.263
			c0,1.418,1.446,3.619,1.446,6.013c0,4.085-1.178,8.177-1.178,12.123c0,1.097-1.44,1.568-1.44,3.608
			c0,1.274,1.041,2.211,2.102,2.211v6.298c0,0.486,0.257,1.263,1.041,1.263c1.984,0,3.43-1.092,5.658-1.092
			c3.025,0,3.162,5.825,5.126,5.825c2.899,0,4.61-3.147,7.767-3.147c0.658,0,2.886-0.782,4.077-0.327v-0.139
			c2.626,0.937,2.894-3.016,4.471-3.952c2.758-1.58,3.545-3.469,5.258-6.613c-0.653-0.326-1.319-0.797-1.319-2.044
			c0-3.466,3.815-9.929,6.184-10.56c2.771-0.782,5.666-1.896,6.45-5.05l-0.784-3.453c0-2.389,2.096-3.957,4.072-3.957
			c2.631,0,4.466,1.729,7.365,1.729c2.902,0,4.599-2.827,7.105-4.245c1.183-0.644,1.323-2.684,3.679-2.684
			c5.003,0,5.788,6.463,8.152,10.084c0.262,1.107,2.24,1.729,3.175,2.837c2.228,2.683,3.143,4.112,7.223,5.194
			c0,0.953,1.981,1.616,2.501,1.616c0.131,0.954,3.292,4.713,3.667,4.713c0.273,1.408,1.317,2.045,1.317,4.391
			c0,1.896-0.638,4.263-2.223,4.263c0,0.631,0.53,1.103,1.454,1.103c1.826,0,1.572-3.314,2.75-4.733c0,0,1.716,0,1.716-0.787
			c0-2.04-2.364-2.506-2.364-4.562c0-1.569,1.305-2.526,2.881-2.526c2.121,0,2.9,2.056,4.228,2.355
			c0.383-3.305-2.773-4.557-5.405-6.132c-0.793-0.46-3.954-1.257-3.419-3.169c0.257-0.305,0.257-0.767,0.257-1.259
			c-1.965,0-3.288,0.819-5.258-0.311c-1.055-0.615-1.979-3.143-2.496-5.349c-0.398-1.425-1.446-4.102-3.429-4.889
			c-1.58-0.644-2.757-1.574-2.757-3.941c0-0.932,0.268-1.891,0.535-2.843c-0.268,0-0.667-0.627-0.667-0.943
			c0-1.723,2.889-1.723,4.343-2.832c0.785,0.959,0,4.257,1.719,4.257h3.944c0,3.619,3.274,8.985,6.174,8.985h1.847
			c0,2.206,2.106,2.355,3.946,3.469c1.834,1.094,4.742,4.396,4.742,6.613v4.112c0,3.293,2.088,4.729,3.686,6.613
			c1.184,1.407,2.215,2.843,2.75,5.033c0,0.326,0.263,1.735,0.782,1.735h2.249c-0.395,0.792-1.709,1.268-1.709,2.372
			c0,2.661,1.834,5.188,3.949,5.188h1.826c-1.314-0.776,0-2.672,0-3.615c0-1.264-0.391-1.746-0.779-2.678v-1.268
			c0.648,0.792,1.977,2.05,3.412,2.372h0.262c0.267-1.104,1.58-0.483,2.24-0.954c-0.257-0.315-0.519-0.947-0.519-1.418
			c-1.056,0-4.616-3.926-4.616-4.418c0-0.46,0.406-0.943,0.52-1.88l-2.471-3.47c0-0.782,0.769-1.739,1.434-1.739
			c1.192,0,1.447,2.355,3.412,2.355c0.267-1.259,0.267-2.19,0-3.465c1.722-0.626,2.24-2.04,4.348-2.04
			c2.358,0,3.551,3.149,5.525,3.149c1.703,0,2.107-2.046,3.812-3c1.188-0.621,2.102,0,3.285-0.476c0.668-0.146,1.186,0,1.723-0.627
			c-0.799-1.414-4.354-3.609-4.354-6.768c0-2.207,2.364-5.354,3.687-6.935v-4.097c0.395-0.941,0.327,0.338,0.834-2.222
			c0,0,8.345-4.145,10.345-4.645s7.5-6.25,7.5-6.25c4.25-3,1.25-2,2.627-6.75s0.123-5-0.356-8.75s-4.021-3.5-10.021-8.25
			s-3,0.75-11.25,0s-9.5-2.25-11.75-5s3-8.5,5-11.75s2.5-4.75,2-8.25s-0.75-3.5-2.25-6s-0.5-7,0.25-7.782s6.833-11.468,6.833-11.468
			"/>
		<path fill="#EEEEEE" d="M100.105,10.997v3.158c0.65,0.615,1.036,1.72,1.036,2.822c2.369,0.482,5.92,3.32,5.92,6.312
			c0,2.356-3.947,6.309-5.258,6.309c-2.633,0-3.68,4.562-3.68,7.871c0,1.88,1.178,2.511,1.981,2.677
			c-0.403,4.262-3.565,4.572-3.946,7.561h-3.549c-2.244,0-3.044,5.05-6.324,5.05c-1.055,0-2.889-6.618-2.889-7.389
			c0-0.499,0.256-1.125,0.256-1.597c-2.227-2.677-1.978-4.888-2.893-8.358c-0.651-2.351-2.626-2.993-2.626-5.814
			c0-0.771,0.369-1.671,0.656-2.261c-1.449-0.937-1.775-2.258-2.632-3.742c-2.752,4.749-6.969,10.726-12.495,10.726
			c-0.792,0-5.93-3.791-5.93-4.418c0-1.259,1.722-2.04,2.252-2.366V25.18c-1.853,0-1.853,0-3.429,0.776
			c0-1.092,1.445-2.987,2.112-4.079c-1.981-2.85-2.233-6.785-2.233-11.198c0,0-0.608-3.737,2.892-5.737s-2.5-8,7-3s13.74-2,18.12,0
			s6.581,3,9.48,4S100.105,10.997,100.105,10.997z"/>
		<path fill="#EEEEEE" d="M33.674,163.868"/>
		<path fill="#EEEEEE" d="M17.626,162.754"/>
	</g>
	<path fill="#EEEEEE" d="M0,73.237c0,1.911,1.705,3.625,3.282,3.625c0.792,0,1.852-0.145,2.5-0.615
		c1.061-0.799,2.626-3.471,4.747-3.471c1.298,0,2.618,0.15,3.417-0.786c1.044-1.27,0.131-3.159,0.131-4.423v-5.354
		c0-1.259,2.364-1.093,2.364-2.361c0-2.694-1.451-6.463-4.476-6.463H9.731c-1.323,0-3.949,1.891-3.949,2.992
		c0,0.776,0.268,1.099,0.792,2.041c-0.792,0.953-3.03,1.735-3.812,1.735c-0.391,0-1.451-0.306-1.451,1.74
		c0,1.578,1.191,2.527,2.501,3.303C3.282,68.992,0,69.302,0,73.237z"/>
	<path fill="#EEEEEE" d="M11.828,36.993c1.464,0,2.512-1.886,2.512-3.615c-1.047,0-3.285,0.783-3.285,1.729
		C11.054,35.739,11.435,36.993,11.828,36.993z"/>
	<path fill="#EEEEEE" d="M16.042,41.571v1.258c0,0.149-0.916,1.259-0.916,2.04c0,0.644,1.178,1.114,1.965,1.27v1.413
		c-0.388,0.316-0.525,0.627-0.525,1.104v2.532h1.06c-0.262-0.637-0.661-1.103,0-2.377c0.399,0.315,1.191,0.792,2.239,0.792
		c-0.399,1.254,0,1.585,0,2.999c0,1.253-1.315,2.057-1.315,3.309c0,1.247,0.916,1.247,2.102,1.247c1.055,0,1.715-0.776,3.025-0.776
		c0.386,0,0.784,0.15,1.178,0.15c-0.262,0.626-0.916,0.948-0.916,2.206c0,1.585,1.829,1.911,3.162,1.73v2.366
		c-0.656,1.591-3.562,2.993-5.925,2.993c0,1.74,1.06,2.532,1.06,4.588c0,2.352-3.687,2.517-3.687,4.878
		c0,0.311,0.385,0.788,0.654,0.788c0.661,0,0.524-0.788,1.322-0.788c1.441,0,1.971,1.896,3.677,1.896
		c0.929,0,1.833-0.632,2.369-1.586c0,0.312,0.268,0.794,0.268,1.114c0,2.19-2.637,1.425-4.472,2.041
		c-0.401,0.149-4.342,5.193-4.615,5.83v0.954h0.916c0.536-0.639,0.924-1.26,1.858-1.26h1.842c0-1.273,0.78-2.682,2.094-2.682
		c0.924,0,1.455,0.941,2.378,0.941c1.971,0,5.512-1.413,6.835-1.413h5.258c1.58,0,2.509-0.953,3.682-2.371v-1.092
		c-0.787,0-1.304-0.173-2.632-0.639c1.052-2.051,4.222-3.464,4.222-6.308c0-1.563-1.199-2.987-2.763-2.987
		c-1.06,0-0.806-0.166-1.721,0.626l0.661-0.626c-0.525,0.31-0.661,0.788-1.58,1.104v-1.104c0.407-0.166,0.651-0.632,0.651-1.113
		c0-1.243-1.436-2.046-1.436-3.31c0-3.77-3.424-4.889-5.526-7.4c-1.585-1.896-1.186-5.67-3.681-6.623
		c-1.061-0.316-1.708,0.315-3.042-0.161c0.147-0.61,0.546-1.097,1.071-1.258c0-3.32,4.066-5.2,3.542-9.617h-7.759
		c-0.255-0.466-0.386-0.781-0.386-1.258c0.386-2.195,3.28-1.886,3.28-4.081c0-0.315-0.792-1.423-1.314-1.423h-3.808
		c-0.803,0-2.112,1.252-2.112,2.033c0,0.799-0.53,1.42-0.53,2.684c-0.904,0-1.834,0.627-1.834,1.89c0,0.316,0.386,0.798,0.648,0.948
		c0,0.315-0.262,0.937-0.525,0.937c-0.254,0-0.916-0.466-0.916-1.396h-2.102C13.024,40.624,14.077,41.094,16.042,41.571z"/>
	<path fill="#EEEEEE" d="M20.521,59.375c-0.788,0.477-0.929,1.098-0.929,1.89h1.454c0-0.792,0.131-1.413,0.131-1.89H20.521z"/>
	<path fill="#EEEEEE" d="M93.926,151.483c-1.984-0.486-2.771,1.039-4.479,1.039c-1.845,0-3.036-2.056-5.794-0.487v1.113
		c0.386,0.782,1.441,0.627,1.835,0.782c2.114,0.792,3.823,3.476,6.056,4.097c0,0.471,0.667,0.646,1.055,0.646
		c0.399,0,0.79-0.646,0.79-1.107c0-1.259-0.667-1.419-0.667-2.539c0-0.626,0.667-1.718,0.667-1.718L93.926,151.483z"/>
	<path fill="#EEEEEE" d="M71.683,133.926c0.394-0.954,0.787-4.418,1.187-6.298c-0.399-0.176-0.535-0.954-0.535-1.746
		c-0.651,0.161-1.176,1.57-2.097,1.57c-0.256,0-0.667,0.32-0.923,0.32C69.981,129.026,70.369,133.616,71.683,133.926z"/>
	<path fill="#EEEEEE" d="M69.708,140.393c0,1.099-0.651,1.875-0.782,3.149c0,1.263,0,3.293,1.312,3.293
		c1.047,0,3.441-2.223,3.441-4.418c0-2.527,0.334-3.946-0.809-6.458c-0.399,0-0.792-0.926-1.711-0.926
		c-1.178,0-1.315,1.559-2.763,2.051C68.535,138.321,69.708,139.115,69.708,140.393z"/>
	<path fill="#EEEEEE" d="M49.979,143.858c0-0.481-0.661-1.435-0.661-1.735c-0.785,0.146-1.31,0.61-2.096,1.104
		c0.131,0.149,1.186,1.407,1.702,1.407C49.318,144.634,49.979,144.319,49.979,143.858z"/>
	<path fill="#EEEEEE" d="M77.865,54.658c0-1.596-0.919-1.275-0.919-3.165h-2.505v1.569c0,1.596,1.454,2.066,3.025,2.066v1.252
		C77.598,55.583,77.865,55.91,77.865,54.658z"/>
	<path fill="#EEEEEE" d="M79.437,56.236l-0.25-0.642c-0.144,0.149-0.53,0.466-0.661,0.786c0.131,0.15,0.911,0.943,1.844,0.943
		c2.895,0,1.848-5.521,4.075-6.312c-0.656-2.662-0.793-4.092-3.418-4.092c-0.918,0-2.501,4.092-2.501,4.744
		c0,0.938,1.446,2.19,2.757,2.517C81.284,54.968,80.371,56.06,79.437,56.236z"/>
	<path fill="#EEEEEE" d="M107.717,35.413c-2.349,0.166-3.016,2.999-3.016,3.937c0,0.791-0.404,1.43,0,2.061
		c0.93-1.43,1.979-2.2,1.979-3.94C106.68,36.667,107.454,36.05,107.717,35.413z"/>
	<path fill="#EEEEEE" d="M119.567,34.642c0.524,0,2.228-1.12,2.228-1.58v-1.896c0.267-0.161,0.934-1.253,1.052-2.057
		c-0.512-0.311-0.785-0.632-1.447-1.573c0,0-1.172,0.808-1.172,1.573c0,0.804,0.518,1.27,0.916,1.896
		c-1.052,0.161-1.85,1.099-2.895,1.254C118.249,33.217,118.375,34.642,119.567,34.642z"/>
	<path fill="#EEEEEE" d="M134.69,166.696c-2.242-0.788-5.4-1.564-8.294-0.943c1.459,0.943,3.949,1.254,5.001,1.254
		C132.327,167.006,132.981,167.803,134.69,166.696z"/>
</g>
</svg>
