<?xml version="1.0" encoding="utf-8"?>
<!-- Generator: Adobe Illustrator 16.0.0, SVG Export Plug-In . SVG Version: 6.00 Build 0)  -->
<!DOCTYPE svg PUBLIC "-//W3C//DTD SVG 1.1//EN" "http://www.w3.org/Graphics/SVG/1.1/DTD/svg11.dtd">
<svg version="1.1" id="Capa_1" xmlns="http://www.w3.org/2000/svg" xmlns:xlink="http://www.w3.org/1999/xlink" x="0px" y="0px"
	 width="687px" height="458px" viewBox="0 0 687 458" enable-background="new 0 0 687 458" xml:space="preserve">
<path fill="#EFCE4A" d="M480.3,458H126.858c-8.133,0-14.048-7.723-11.924-15.58l80.276-220.084
	c1.453-5.386,6.341-9.128,11.924-9.128h353.442c8.134,0,11.924,7.77,11.924,15.58l-80.276,220.084
	C490.771,454.257,485.883,458,480.3,458z"/>
<path fill="#EBBA16" d="M511.444,142.138h-17.91v71.069h31.587v-57.392C525.121,148.258,518.993,142.138,511.444,142.138z"/>
<path fill="#EBBA16" d="M146.086,86.862h-17.91c-7.549,0-13.677,6.12-13.677,13.677v337.403c0.545,0.017,1.09,0.048,1.619,0.079
	l29.968-81.713V86.862z"/>
<path fill="#F4EFDC" d="M195.21,222.335c1.453-5.386,6.341-9.128,11.924-9.128h15.793h270.606v-94.759V0H375.086H193.465v227.113
	L195.21,222.335z"/>
<g>
	<path fill="#CEC9AE" d="M248.741,126.345h189.518c4.358,0,7.896-3.53,7.896-7.896s-3.538-7.896-7.896-7.896H248.741
		c-4.359,0-7.896,3.53-7.896,7.896S244.382,126.345,248.741,126.345z"/>
	<path fill="#CEC9AE" d="M248.741,71.069h78.966c4.359,0,7.896-3.53,7.896-7.896s-3.538-7.896-7.896-7.896h-78.966
		c-4.359,0-7.896,3.53-7.896,7.896S244.382,71.069,248.741,71.069z"/>
	<path fill="#CEC9AE" d="M438.259,165.828H248.741c-4.359,0-7.896,3.53-7.896,7.896s3.538,7.896,7.896,7.896h189.518
		c4.358,0,7.896-3.53,7.896-7.896S442.617,165.828,438.259,165.828z"/>
</g>
<polygon fill="#CEC9AE" points="193.465,227.113 193.465,15.793 169.776,15.793 169.776,292.062 "/>
<polygon fill="#D1BF86" points="169.776,292.062 169.776,31.586 146.086,31.586 146.086,357.011 "/>
<g>
	<g>
		<polyline fill="#FFFFFF" points="276.205,363.375 274.354,366.79 272.835,370.204 271.514,373.421 270.522,376.507 
			269.795,379.593 269.465,382.417 269.532,385.109 269.994,387.604 270.919,389.902 272.306,391.938 274.222,392.201 
			276.205,391.873 278.253,390.952 279.244,390.297 280.235,389.442 281.292,388.459 282.284,387.342 284.266,384.519 
			286.248,381.038 288.23,376.9 289.815,371.977 291.071,367.249 291.996,362.719 		"/>
		<polyline fill="#FFFFFF" points="305.409,361.996 304.946,365.738 304.352,369.351 303.625,372.765 302.7,376.179 
			301.708,379.332 300.519,382.483 299.264,385.372 297.876,388.195 296.291,390.757 294.639,393.251 292.987,395.549 
			291.137,397.52 289.221,399.424 287.305,401.132 285.257,402.575 283.208,403.823 280.962,404.809 278.781,405.597 
			276.602,406.121 274.354,406.449 272.042,406.449 269.729,406.187 267.483,405.728 265.17,404.939 263.453,403.561 
			261.933,402.115 260.611,400.54 259.488,398.898 258.497,397.126 257.705,395.287 257.11,393.316 256.647,391.347 256.383,389.18 
			256.25,387.014 256.317,384.781 256.449,382.483 257.308,377.623 258.762,372.567 260.678,367.381 263.188,361.996 		"/>
		<polyline fill="#FFFFFF" points="368.839,396.272 367.187,398.307 365.402,400.146 363.619,401.722 361.702,403.101 
			359.787,404.283 357.738,405.137 355.69,405.859 353.576,406.252 351.461,406.318 349.28,406.187 347.101,405.728 344.92,404.939 
			342.74,404.021 340.692,402.969 338.974,401.722 337.454,400.343 336.066,398.767 334.943,397.126 334.019,395.221 
			333.292,393.251 332.697,391.15 332.234,388.918 332.036,386.619 332.036,384.19 332.168,381.694 332.433,379.134 333.49,373.749 
			335.142,368.168 337.322,362.456 		"/>
		<polyline fill="#FFFFFF" points="445.482,395.484 443.896,397.65 442.179,399.62 440.395,401.394 438.413,402.969 
			436.431,404.349 434.25,405.466 432.004,406.318 429.626,406.909 427.181,407.304 424.538,407.304 421.961,407.106 
			419.119,406.581 417.666,405.334 416.278,404.021 415.089,402.51 413.899,400.934 412.909,399.161 412.05,397.323 		"/>
		<polyline fill="#FFFFFF" points="228.699,308.677 230.086,301.586 231.738,294.626 233.72,287.862 235.967,281.296 
			238.543,274.927 241.318,268.82 244.424,263.107 247.794,257.723 251.428,252.798 253.41,250.436 255.458,248.202 257.44,246.167 
			259.687,244.196 261.867,242.358 264.113,240.716 266.493,239.141 268.937,237.762 271.381,236.514 273.958,235.397 
			276.602,234.479 279.31,233.757 282.085,233.164 284.926,232.771 286.975,232.968 288.891,233.362 290.807,234.02 
			292.657,234.873 294.44,235.988 296.225,237.17 297.942,238.681 299.661,240.322 301.378,242.161 303.097,244.196 
			306.598,248.858 310.166,254.177 313.932,260.284 318.028,255.491 322.257,250.96 326.618,246.823 328.798,244.984 
			331.111,243.146 333.424,241.57 335.736,239.994 338.115,238.681 340.559,237.433 343.07,236.447 345.58,235.594 348.158,234.938 
			350.801,234.412 353.576,234.938 356.351,235.594 358.927,236.447 361.438,237.433 363.883,238.55 366.262,239.994 
			368.574,241.504 370.821,243.146 373.001,245.115 375.115,247.151 377.229,249.449 379.278,251.945 381.326,254.637 
			383.309,257.592 387.339,264.027 390.973,258.38 394.739,253.192 398.571,248.529 400.619,246.363 402.602,244.394 
			404.716,242.621 406.83,240.979 409.011,239.535 411.19,238.155 413.438,237.039 415.684,236.12 418.129,235.397 420.508,234.807 
			422.688,235.267 424.802,235.792 428.897,237.368 432.797,239.469 434.779,240.716 436.629,242.095 438.413,243.605 
			440.131,245.182 441.849,246.955 443.501,248.792 446.738,252.798 449.778,257.263 452.685,262.122 455.394,267.31 
			457.971,272.892 460.415,278.735 462.728,284.908 464.842,291.342 466.824,297.909 468.739,304.935 471.978,320.301 
			472.771,325.29 473.365,330.346 473.761,335.402 474.026,340.393 474.026,345.384 473.96,350.374 473.695,355.364 
			473.299,360.288 472.771,365.147 471.978,369.941 471.185,374.669 470.193,379.332 469.005,383.862 467.749,388.326 
			466.361,392.595 464.776,396.863 463.124,400.934 461.34,404.809 459.425,408.617 457.375,412.229 455.262,415.643 
			452.949,418.86 450.637,421.946 448.126,424.704 445.615,427.331 442.906,429.693 440.131,431.927 437.29,433.766 
			434.383,435.474 431.343,436.786 428.172,437.902 425,438.69 421.498,438.1 418.129,437.311 415.023,436.326 412.05,435.079 
			409.209,433.7 406.565,432.058 404.055,430.285 401.743,428.314 399.496,426.083 397.514,423.784 395.598,421.289 
			393.813,418.729 392.097,415.971 390.51,413.146 387.668,406.974 383.309,413.082 379.079,418.729 376.966,421.289 
			374.852,423.719 372.67,426.018 370.357,428.118 368.045,430.088 365.602,431.927 363.023,433.503 360.381,434.882 
			357.539,436.063 354.501,437.048 351.263,437.771 347.827,438.296 344.523,437.246 341.353,435.998 338.313,434.686 
			335.34,433.24 332.565,431.664 329.855,429.892 327.345,428.053 324.9,426.083 322.72,423.915 320.605,421.684 318.689,419.319 
			316.972,416.76 315.385,414.133 313.932,411.309 312.743,408.42 311.752,405.334 307.722,412.097 305.673,415.38 303.492,418.466 
			301.312,421.289 299.066,424.113 296.687,426.543 294.309,428.906 291.864,430.942 289.419,432.78 286.842,434.291 
			284.332,435.604 281.688,436.523 278.98,437.18 276.337,437.508 273.562,437.442 270.655,436.72 267.88,435.867 265.17,434.686 
			262.528,433.306 260.083,431.664 257.639,429.826 255.26,427.724 253.08,425.492 250.965,423.062 248.917,420.436 
			247.001,417.612 245.084,414.592 241.715,408.157 238.675,401.065 236.033,393.383 233.72,385.306 231.87,376.771 230.351,367.84 
			229.293,358.582 228.5,349.06 228.17,339.343 		"/>
		<polyline fill="#FFFFFF" points="350.14,361.799 348.29,365.213 346.771,368.628 345.383,371.846 344.392,374.997 
			343.731,378.018 343.4,380.841 343.4,383.533 343.929,386.028 344.788,388.326 346.176,390.362 348.158,390.625 350.14,390.297 
			352.188,389.377 353.18,388.721 354.171,387.867 355.227,386.883 356.219,385.766 358.201,382.942 360.183,379.463 		"/>
	</g>
	<g>
		<polygon fill="#0066AB" points="290.755,341.83 285.402,349.166 280.512,356.502 276.216,363.771 274.365,367.208 
			272.845,370.645 271.524,373.883 270.532,376.988 269.805,380.096 269.475,382.937 269.541,385.646 270.003,388.157 
			270.929,390.471 272.316,392.52 274.233,392.783 276.216,392.454 278.265,391.528 279.256,390.868 280.247,390.009 
			281.305,389.017 282.296,387.894 284.278,385.053 286.261,381.55 288.244,377.386 289.83,372.429 291.085,367.671 
			292.011,363.111 292.54,358.683 292.671,354.453 292.473,350.289 291.812,345.994 		"/>
		<polygon fill="#0066AB" points="228.236,329.67 232.267,326.696 236.365,324.054 240.595,321.74 244.824,319.757 249.12,318.105 
			253.35,316.85 257.513,315.99 261.677,315.528 265.642,315.528 269.475,315.924 273.109,316.783 276.546,318.105 279.718,319.955 
			281.172,321.013 282.626,322.269 283.948,323.59 285.204,325.044 286.327,326.696 287.451,328.348 282.428,334.099 
			277.802,339.849 273.506,345.531 269.607,351.215 266.171,356.898 263.196,362.383 260.685,367.803 258.769,373.024 
			257.314,378.112 256.456,383.003 256.323,385.315 256.257,387.563 256.39,389.744 256.654,391.925 257.116,393.907 
			257.711,395.89 258.504,397.74 259.496,399.525 260.619,401.177 261.941,402.763 263.461,404.217 265.179,405.604 
			267.492,406.398 269.739,406.861 272.052,407.125 274.365,407.125 276.612,406.795 278.793,406.266 280.974,405.473 
			283.221,404.482 285.27,403.226 287.319,401.771 289.235,400.054 291.152,398.138 293.002,396.155 294.654,393.841 
			296.307,391.33 297.893,388.753 299.28,385.911 300.536,383.003 301.726,379.831 302.717,376.659 303.642,373.222 
			304.369,369.785 304.964,366.15 305.426,362.383 305.691,358.55 305.757,354.585 305.625,350.488 305.36,346.39 304.898,342.228 
			304.104,337.931 303.246,333.569 302.122,329.208 307.079,326.366 311.771,323.789 316.397,321.74 320.825,319.955 
			325.055,318.634 329.085,317.709 332.919,317.18 336.62,317.048 340.123,317.245 343.427,317.841 346.533,318.832 
			349.572,320.153 352.349,321.938 354.926,323.986 357.371,326.432 359.618,329.208 354.992,334.429 350.696,339.849 
			346.731,345.465 343.163,351.215 339.99,357.03 337.347,362.846 335.166,368.596 333.514,374.214 332.457,379.633 332.192,382.21 
			332.06,384.722 332.06,387.166 332.258,389.479 332.721,391.727 333.315,393.841 334.042,395.824 334.968,397.74 336.091,399.393 
			337.479,400.979 338.999,402.366 340.717,403.622 342.766,404.68 344.947,405.604 347.127,406.398 349.309,406.861 
			351.489,406.993 353.604,406.927 355.719,406.53 357.769,405.804 359.816,404.944 361.732,403.754 363.649,402.366 
			365.434,400.78 367.219,398.93 368.87,396.881 370.522,394.701 371.977,392.256 374.687,387.034 376.934,381.219 378.65,374.874 
			379.312,371.636 379.841,368.265 380.237,364.828 380.502,361.326 380.568,357.758 380.437,354.188 380.171,350.62 
			379.709,346.985 379.048,343.351 378.255,339.716 377.197,336.146 375.942,332.578 379.907,329.604 383.872,326.96 
			387.838,324.581 391.869,322.532 395.834,320.946 399.8,319.624 403.699,318.699 407.599,318.237 411.431,318.105 
			415.132,318.435 418.767,319.162 422.336,320.353 425.772,321.938 429.011,324.054 432.182,326.631 433.636,328.084 
			435.156,329.67 432.645,332.38 430.266,335.156 425.904,340.773 422.071,346.456 418.767,352.206 415.926,357.956 
			413.679,363.573 411.894,369.19 410.639,374.609 409.911,379.831 409.713,384.854 409.978,389.546 410.77,393.907 
			412.092,397.938 412.951,399.79 413.942,401.574 415.132,403.16 416.321,404.68 417.709,406.001 419.163,407.257 422.005,407.786 
			424.583,407.984 427.227,407.984 429.671,407.587 432.051,406.993 434.298,406.133 436.478,405.01 438.461,403.622 
			440.443,402.037 442.228,400.252 443.946,398.27 445.532,396.089 446.986,393.71 448.374,391.198 449.63,388.555 450.753,385.712 
			452.604,379.765 453.926,373.42 454.785,366.812 455.115,359.872 454.851,352.867 453.992,345.861 452.67,338.923 
			451.744,335.552 450.687,332.182 453.132,329.802 455.71,327.688 458.287,325.771 460.997,324.186 463.641,322.863 
			466.416,321.807 469.258,320.946 472.033,320.419 472.826,325.441 473.422,330.529 473.817,335.618 474.082,340.641 
			474.082,345.664 474.016,350.687 473.752,355.709 473.355,360.666 472.826,365.557 472.033,370.381 471.24,375.139 
			470.249,379.831 469.06,384.391 467.804,388.885 466.416,393.181 464.83,397.476 463.178,401.574 461.393,405.473 
			459.477,409.306 457.428,412.94 455.312,416.377 452.999,419.615 450.687,422.722 448.176,425.497 445.664,428.141 
			442.955,430.52 440.18,432.767 437.338,434.618 434.431,436.336 431.39,437.657 428.217,438.781 425.045,439.574 421.542,438.979 
			418.172,438.186 415.066,437.194 412.092,435.939 409.25,434.551 406.606,432.898 404.096,431.115 401.782,429.132 
			399.535,426.885 397.553,424.572 395.636,422.061 393.852,419.483 392.133,416.708 390.548,413.865 387.706,407.653 
			383.344,413.8 379.114,419.483 377,422.061 374.885,424.506 372.703,426.819 370.39,428.934 368.077,430.916 365.632,432.767 
			363.055,434.353 360.411,435.74 357.57,436.931 354.529,437.922 351.292,438.648 347.855,439.177 344.551,438.12 341.378,436.864 
			338.338,435.542 335.364,434.088 332.589,432.503 329.879,430.719 327.368,428.868 324.922,426.885 322.742,424.704 
			320.626,422.458 318.71,420.078 316.992,417.501 315.406,414.856 313.952,412.016 312.762,409.107 311.771,406.001 
			307.74,412.809 305.691,416.113 303.51,419.219 301.329,422.061 299.082,424.902 296.703,427.348 294.324,429.728 
			291.878,431.775 289.433,433.627 286.856,435.146 284.345,436.468 281.701,437.394 278.992,438.054 276.348,438.385 
			273.572,438.318 270.665,437.592 267.889,436.731 265.179,435.542 262.536,434.154 260.091,432.503 257.646,430.652 
			255.267,428.537 253.085,426.29 250.97,423.846 248.922,421.201 247.005,418.359 245.088,415.319 241.718,408.844 
			238.678,401.706 236.034,393.973 233.721,385.845 231.871,377.254 230.351,368.265 229.293,358.947 228.5,349.364 228.17,339.584 
					"/>
		<polygon fill="#0066AB" points="313.952,260.014 310.185,253.867 306.616,248.515 303.114,243.822 301.396,241.773 
			299.677,239.923 297.958,238.271 296.24,236.751 294.456,235.562 292.671,234.438 290.821,233.579 288.904,232.919 
			286.988,232.521 284.939,232.323 282.098,232.72 279.322,233.314 276.612,234.042 273.969,234.967 271.392,236.09 
			268.946,237.346 266.501,238.733 264.122,240.32 261.875,241.972 259.694,243.822 257.447,245.805 255.464,247.854 
			253.416,250.102 251.433,252.48 247.798,257.437 244.428,262.855 241.321,268.604 238.546,274.751 235.968,281.162 
			233.721,287.771 231.739,294.578 230.087,301.583 228.699,308.721 232.466,306.738 236.497,305.085 240.727,303.565 
			245.088,302.311 249.649,301.318 254.275,300.724 258.901,300.327 263.527,300.261 268.153,300.525 272.713,301.253 
			277.141,302.311 281.371,303.764 285.402,305.681 289.235,307.994 291.02,309.382 292.671,310.836 294.324,312.421 
			295.844,314.206 300.933,311.166 305.955,308.588 310.978,306.341 315.802,304.557 320.693,303.169 325.517,302.244 
			330.275,301.648 334.902,301.517 339.528,301.781 344.021,302.442 348.449,303.565 352.812,305.085 357.041,307.002 
			361.204,309.382 365.302,312.158 369.268,315.396 374.753,312.487 380.104,309.976 385.393,307.795 390.548,306.011 
			395.505,304.623 400.461,303.632 405.153,303.037 409.845,302.905 414.339,303.103 418.701,303.83 422.93,304.953 426.962,306.54 
			430.993,308.588 434.76,311.1 438.461,314.074 440.18,315.726 441.896,317.511 445.268,315.197 448.639,313.082 452.009,311.166 
			455.312,309.58 458.75,308.06 462.055,306.805 465.425,305.747 468.795,304.953 466.879,297.882 464.896,291.273 462.78,284.797 
			460.468,278.584 458.022,272.703 455.445,267.086 452.736,261.864 449.828,256.975 446.787,252.48 443.55,248.448 
			441.896,246.598 440.18,244.813 438.461,243.228 436.677,241.707 434.826,240.32 432.844,239.064 428.944,236.949 
			424.846,235.364 422.732,234.835 420.551,234.372 418.172,234.967 415.727,235.693 413.48,236.619 411.233,237.743 
			409.052,239.131 406.871,240.584 404.757,242.236 402.642,244.021 400.658,246.004 398.61,248.184 394.776,252.877 
			391.01,258.098 387.375,263.78 383.344,257.305 381.361,254.331 379.312,251.621 377.264,249.109 375.149,246.796 
			373.034,244.748 370.854,242.766 368.606,241.113 366.294,239.593 363.914,238.139 361.469,237.015 358.958,236.024 
			356.38,235.165 353.604,234.504 350.828,233.976 348.185,234.504 345.607,235.165 343.096,236.024 340.585,237.015 
			338.14,238.271 335.76,239.593 333.448,241.18 331.135,242.766 328.822,244.616 326.641,246.467 322.279,250.629 318.049,255.189 
					"/>
		<polygon fill="#FFFFFF" points="274.365,292.133 275.952,292.066 277.472,291.802 280.445,290.877 283.089,289.423 
			284.278,288.563 285.336,287.572 286.327,286.449 287.252,285.26 288.707,282.616 289.565,279.708 289.83,278.188 
			289.896,276.603 289.83,275.016 289.565,273.496 288.707,270.521 287.252,267.945 286.327,266.689 285.336,265.632 
			284.278,264.641 283.089,263.714 280.445,262.261 277.472,261.401 275.952,261.138 274.365,261.071 272.845,261.138 
			271.259,261.401 268.352,262.261 265.708,263.714 264.518,264.641 263.395,265.632 262.404,266.689 261.544,267.945 
			260.091,270.521 259.165,273.496 258.967,275.016 258.835,276.603 258.967,278.188 259.165,279.708 260.091,282.616 
			261.544,285.26 262.404,286.449 263.395,287.572 264.518,288.563 265.708,289.423 268.352,290.877 271.259,291.802 
			272.845,292.066 		"/>
		<polygon fill="#0066AB" points="364.707,340.244 359.354,347.58 354.463,354.916 350.168,362.186 348.317,365.622 
			346.798,369.059 345.409,372.297 344.418,375.47 343.757,378.509 343.427,381.351 343.427,384.061 343.956,386.571 
			344.814,388.885 346.203,390.934 348.185,391.198 350.168,390.868 352.217,389.942 353.208,389.281 354.199,388.423 
			355.257,387.431 356.248,386.308 358.23,383.466 360.213,379.963 362.195,375.865 363.782,370.843 365.038,366.085 
			365.896,361.524 366.491,357.163 366.623,352.867 366.359,348.704 365.698,344.407 		"/>
		<polygon fill="#0066AB" points="440.972,341.83 435.686,349.166 430.729,356.502 426.433,363.771 424.583,367.208 
			423.062,370.645 421.741,373.883 420.75,376.988 420.021,380.096 419.692,382.937 419.759,385.646 420.221,388.157 
			421.146,390.471 422.533,392.52 424.45,392.783 426.433,392.454 428.481,391.528 429.474,390.868 430.465,390.009 
			431.521,389.017 432.513,387.894 434.496,385.053 436.478,381.55 438.461,377.386 440.047,372.429 441.303,367.671 
			442.228,363.111 442.757,358.683 442.889,354.453 442.691,350.289 442.029,345.994 		"/>
		<polygon fill="#FFFFFF" points="343.559,292.133 345.146,292.066 346.731,291.802 349.639,290.877 352.282,289.423 
			353.472,288.563 354.529,287.572 355.587,286.449 356.446,285.26 357.899,282.616 358.759,279.708 359.023,278.188 
			359.155,276.603 359.023,275.016 358.759,273.496 357.899,270.521 356.446,267.945 355.587,266.689 354.529,265.632 
			353.472,264.641 352.282,263.714 349.639,262.261 346.731,261.401 345.146,261.138 343.559,261.071 342.039,261.138 
			340.453,261.401 337.545,262.261 334.902,263.714 333.712,264.641 332.654,265.632 331.663,266.689 330.738,267.945 
			329.284,270.521 328.425,273.496 328.161,275.016 328.029,276.603 328.161,278.188 328.425,279.708 329.284,282.616 
			330.738,285.26 331.663,286.449 332.654,287.572 333.712,288.563 334.902,289.423 337.545,290.877 340.453,291.802 
			342.039,292.066 		"/>
		<polygon fill="#FFFFFF" points="419.891,292.926 421.476,292.859 422.996,292.596 425.904,291.67 428.548,290.217 
			429.736,289.356 430.861,288.365 431.853,287.242 432.711,286.053 434.165,283.409 435.09,280.502 435.355,278.981 
			435.421,277.395 435.355,275.809 435.09,274.289 434.165,271.315 432.711,268.671 431.853,267.481 430.861,266.425 
			429.736,265.434 428.548,264.509 425.904,263.055 422.996,262.195 421.476,261.931 419.891,261.864 418.305,261.931 
			416.784,262.195 413.811,263.055 411.233,264.509 409.978,265.434 408.92,266.425 407.928,267.481 407.003,268.671 
			405.615,271.315 404.69,274.289 404.426,275.809 404.359,277.395 404.426,278.981 404.69,280.502 405.615,283.409 
			407.003,286.053 407.928,287.242 408.92,288.365 409.978,289.356 411.233,290.217 413.811,291.67 416.784,292.596 
			418.305,292.859 		"/>
	</g>
</g>
</svg>
