<?xml version="1.0" encoding="utf-8"?>
<!-- Generator: Adobe Illustrator 16.0.0, SVG Export Plug-In . SVG Version: 6.00 Build 0)  -->
<!DOCTYPE svg PUBLIC "-//W3C//DTD SVG 1.1//EN" "http://www.w3.org/Graphics/SVG/1.1/DTD/svg11.dtd">
<svg version="1.1" id="OBJECTS" xmlns="http://www.w3.org/2000/svg" xmlns:xlink="http://www.w3.org/1999/xlink" x="0px" y="0px"
	 width="282.923px" height="262.768px" viewBox="0.002 12.985 282.923 262.768"
	 enable-background="new 0.002 12.985 282.923 262.768" xml:space="preserve">
<g>
	<path fill="#5B6A7F" d="M91.979,218.79v0.86c-0.243-0.116-0.726-0.284-0.819-0.284c0,4.188-1.102,7.07-2.159,10.342
		c-0.862,2.594-1.294,6.438-4.22,6.438c-1.203,0-2.255-1.665-2.255-3.156c0-0.744,0.144-1.037,0.096-1.436
		c-0.578-0.52-0.578-1.439-0.578-2.305c0-0.226,0.864-1.152,0.967-1.152c0,0,0.956-2.473,0.956-2.583
		c0-0.632-0.724-2.067-0.724-2.991c0-2.816,1.729-2.643,3.119-3.617c1.104-0.75,2.591-2.938,3.36-3.855
		c0.243-0.283,0.091-1.26,0.286-1.719C91.64,213.558,91.498,217.293,91.979,218.79z"/>
	<path fill="#5B6A7F" d="M131.989,181.536c0,0.803,0.528,1.609,1.206,1.609c0.901,0,1.526-1.318,1.526-2.357
		c0-1.834-1.39-2.531-2.062-3.904C132.659,178.606,131.989,179.87,131.989,181.536z"/>
	<path fill="#5B6A7F" d="M167.585,201.542c0-0.574-0.236-1.375,0.248-1.606v-2.478c0-0.576-0.678-0.744-0.965-1.084
		c-0.525-0.635-1.105-0.978-1.105-2.188c-0.527,0-0.907-0.172-0.907-0.916l0.19-0.577c-0.098-0.23-0.245-0.521-0.432-0.521h-0.381
		c0-0.061,0.09-0.231,0.09-0.281c0-0.866-0.814-1.152-1.534-1.441c-1.344-0.521-1.872-1.263-2.784-2.355
		c-0.476-0.576-0.814-1.268-1.531-1.551c-0.193-0.058-0.435,0-0.523-0.289c-0.389-0.918-0.726-1.78-1.779-2.185h-1.581
		c-0.389-0.231-0.479-0.519-0.96-0.519h-0.289v0.459c0.142,0.58,0.91,2.189,1.295,2.305c0.432,0.107,0.91,0,1.102,0.512
		c0.293,0.69,0.434,1.038,0.719,1.727c0.336,0.804,1.439,0.576,1.778,1.896c0.096,0.465,0.428,1.836,0.672,2.014
		c0.139,0.115,0.719,0.176,0.767,0.293c0.096,0.172,0,0.516,0.143,0.516c0.142,0,0.72,1.145,0.812,1.434
		c0.53,1.32,0.917,2.355,1.875,3.506c0.86,1.035,1.73,1.496,2.637,2.586c0.05,0.052,0.914,1.554,1.151,1.554
		C166.628,202.347,167.585,202.174,167.585,201.542z"/>
	<path fill="#5B6A7F" d="M172.054,191.426c0,0.283,0.478,2.353,0.717,2.41c0.243,0.06,0.525,0.06,0.623,0.349
		c0,0.056-0.048,0.228-0.048,0.286c0.626,1.154-0.146,3.164,1.631,3.164c0.387,0,0.624-0.352,1.013-0.287
		c0.039,0.224,0,0.859,0.093,0.859c0.142,0,0.235,0.285,0.381,0.285c0.577,0,0.814-0.628,1.196-0.628
		c0.816,0,1.349,0.683,2.116,0.923c0,0.344,0.141,0.803,0.618,0.803c0.626,0,0.724-0.688,1.492-0.924
		c0-0.637,0.574-1.484,0.574-1.953c0-0.285-0.237-0.403-0.237-0.799c0-0.35,0.479-1.213,1.054-1.328c0-0.978,0.385-1.317,0.63-2.586
		l0.232-0.574c0.146-0.059,0.341-0.113,0.482-0.113c0.523,0,0.91,0.279,1.056-0.578c-0.862,0-2.161-2.872-2.161-3.738
		c0-0.172,0.188-0.346,0.336-0.397c-0.048-0.179-0.147-0.347-0.19-0.521c0,0,1.299-0.629,1.392-0.804c-0.093,0-0.19-0.172-0.19-0.29
		c0-0.513,1.06-0.172,1.06-0.689c0-1.147-2.016-0.459-2.016-1.664c0-0.86,0.089-1.436-0.726-1.436c-0.767,0-1.824,2.182-2.209,3.1
		c-0.187,0.461-1.292,0.178-1.723,0.689c-0.1,0.118-0.147,0.408-0.297,0.465c-0.229,0.108-0.183,0.23-0.477,0.403
		c0,0-0.519,0.461-0.33,0.688c-0.389,0.455-0.389,1.035-1.105,1.207c-0.525,0.114-1.012,0.114-1.347,0.51
		c-0.667,0.812-0.478,2.596-1.961,2.596C173.062,190.853,172.054,190.447,172.054,191.426z"/>
	<path fill="#5B6A7F" d="M188.933,192.11c0.816,0,1.155-0.222,1.831-0.222c0.621,0,1.054,0.394,1.677,0.394
		c0.96,0,1.297-0.97,1.439-1.835c0.146,0,0.189-0.284,0.239-0.465h-0.289c-0.582,0.465-1.246,0.981-1.533,1.33h-0.387l-3.355-0.696
		c-1.247,0-1.82,1.906-1.82,3.279c0,0.344-0.387,0.631-0.435,0.865c-0.334,1.322-0.862,1.841-0.862,3.102
		c0,0.689,0.667,0.689,0.958,0.747v2.759c0,0.346,0.382,0.745,0.763,0.745c0.534,0,0.725-2.014,0.725-2.295
		c0-0.748-0.428-1.146-0.428-1.897c0-0.403,0.381-0.69,0.72-0.69c0.139,0,0.238,0.058,0.38,0l-0.193,1.21
		c0,0.744,0.771,1.032,0.771,1.777c0,0.17,0.048,0.349,0,0.519h0.617c0-0.636,1.06-0.569,1.06-1.202
		c-0.192-0.062-0.669-0.691-0.669-1.039c0-0.115,0.146-0.227,0.188-0.342c-0.28-0.176-1.195-2.238-1.195-2.412
		c1.338,0,1.437-1.27,2.544-1.669v-0.462c-0.291-0.059-2.835,0.861-2.883,1.03l0.103-0.228c-0.195,0.289-0.243,0.574-0.534,0.574
		c-0.719,0-1.006-1.092-1.006-1.953C187.355,191.889,188.122,192.11,188.933,192.11z"/>
	<path fill="#5B6A7F" d="M179.729,206.655c0.575,0,0.525,0.4,1.003,0.4c0.099,0,0.435-0.4,0.523-0.627
		c-0.332-0.168-0.332-0.346-0.762-0.525c-0.431-0.168-0.814,0.299-1.147-0.105c-0.098-0.11-0.098-0.519-0.395-0.519
		c-0.86,0-1.481-0.125-2.008-0.747c0.096,0.055,1.729-0.115,1.779-0.4h-0.387l-1.439,0.227c-0.869,0-1.204-1.035-2.162-1.035
		c-0.57,0-0.714,0.863-1.439,0.863c-1.581,0-2.207-1.839-3.645-1.839c-0.291,0-0.48,0.346-0.768,0.346
		c-0.143,0-0.24-0.233-0.386-0.233c-0.287,0-1.149,1.039-1.197,1.213c0.719,0,1.105,0.687,1.583,1.262
		c0.477,0.58,1.199,0,1.916,0.293c0.965,0.337,1.731,0.396,2.642,0.396c0.478,0,0.628,0.748,1.201,0.748
		c1.872,0,3.503,0.111,5.087,0.865C179.68,207.056,179.584,206.655,179.729,206.655z"/>
	<path fill="#5B6A7F" d="M189.806,207.404c0.619-0.225,1.047-0.396,1.386-1.143c-0.428,0.221-0.669,0.569-1.386,0.569
		c-0.726,0-1.056-0.402-1.923-0.402c-0.336,0-0.868-0.061-0.868,0.402c0,0.629,0.723,0.572,1.058,0.572L189.806,207.404
		L189.806,207.404z"/>
	<path fill="#5B6A7F" d="M184.618,206.482c0,0.179-0.047,0.297-0.047,0.462c-0.235-0.115-0.48-0.227-0.91-0.227
		c-0.435,0-0.819-0.059-0.819,0.572c0,0.229,0.578,0.403,0.962,0.403c0.48,0,0.676-0.349,1.156-0.573l0.38,0.226h0.433
		c-0.096-0.109,0-0.401,0-0.863H184.618L184.618,206.482z"/>
	<path fill="#5B6A7F" d="M187.355,208.095h-0.48c-0.336,0-0.909-0.111-0.909,0.354c0,0.567,0.772,0.627,1.246,0.627
		c0,0.17,0.046,0.744,0.285,0.744h0.195c0.144,0,0.38-0.226,0.38-0.404C188.072,208.732,187.355,208.898,187.355,208.095z"/>
	<path fill="#5B6A7F" d="M182.171,206.429h-0.435v0.579c0,0.172,0.243,0.396,0.389,0.396c0.239,0,0.433-0.225,0.484-0.573
		C182.416,206.719,182.416,206.429,182.171,206.429z"/>
	<path fill="#5B6A7F" d="M194.026,208.215c0.764,0,2.35-0.465,2.832-1.327c-0.435-0.337-2.546-0.108-3.028,0.467
		c-0.093,0.108-0.093,0.454-0.238,0.515c-0.72,0.282-1.632,0.282-1.632,1.549c0,0.236,0.148,0.521,0.337,0.521
		c0.525,0,1.345-0.69,1.583-0.978C194.026,208.786,193.785,208.215,194.026,208.215z"/>
	<path fill="#5B6A7F" d="M207.267,202.459c0-0.396-0.094-0.166-0.191-0.625c-0.334,0.049-0.288,0.569-0.288,0.98
		c0,0.333-0.48,0.395-0.48,0.967c0,0.178,0.139,0.463,0.282,0.463c0.389,0,0.293-0.637,0.293-1.213
		C207.121,203.032,207.267,202.815,207.267,202.459z"/>
	<path fill="#5B6A7F" d="M195.42,198.09c0,0.461,0.569,1.094,0.856,1.094c0.147,0,0.484-0.633,0.484-0.744
		C196.761,197.866,195.42,197.402,195.42,198.09z"/>
	<path fill="#5B6A7F" d="M197.912,198.09c0,0,0.669,0.234,0.862,0.234h1.105c0.671,0,1.001,0.576,1.677,0.576
		c0.098,0,0.286,0,0.286-0.113c0-0.463-0.525-0.58-0.575-1.039l-0.146,0.058c-0.287,0-0.621,0.171-0.715-0.234h-2.163
		C198.152,197.694,197.912,197.806,197.912,198.09z"/>
	<path fill="#5B6A7F" d="M197.721,188.954c-0.387,0.23-0.433,0.693-0.433,1.152c0,0.751,0.383,0.975,0.383,1.604v0.752
		c0,0.343,0.143,1.09,0.621,1.09c-0.239-0.399-0.339-0.629-0.525-0.975v-0.406c0.38,0,0.907-0.061,1.103-0.113
		c-0.048-0.459-0.384-0.573-0.384-0.866c0-0.333,0.479-0.396,0.479-0.743C198.146,190.215,197.813,189.758,197.721,188.954z"/>
	<path fill="#5B6A7F" d="M226.266,201.834c0.128,0.666,0.834,0.601,1.258,0.994c0.013,0.014,0.013,0.021,0.03,0.033
		c0.035,0.035,0.074,0.072,0.104,0.114l-0.089-0.101c0.208,0.182,0.573,0.393,0.712,0.393c1.004,0,1.436-0.633,2.301-0.864
		c0-1.036,1.01-0.8,1.01-2.019c0-0.34-0.144-0.854-0.431-0.854c-0.673,0-0.389,1.262-1.058,1.664
		c-0.432,0.223-1.151,0.172-1.872,0.465c0,0-0.433,0.223-0.527,0.174H226.266L226.266,201.834z"/>
	<path fill="#5B6A7F" d="M223.865,202.347c-1.15-0.687-1.101-2.241-2.641-2.813c-0.237-0.059-0.624-0.115-0.624-0.574
		c-0.571,0-0.857-0.807-1.436-0.807c-1.07,0-2.541-0.593-3.26-1.21v-0.062c-0.024-0.006-0.067-0.02-0.098-0.03
		c-0.048-0.045-0.104-0.091-0.144-0.138l0.108,0.127c-0.243-0.075-0.63-0.231-0.832-0.467h-1.299
		c-0.28-0.181-0.667-0.867-1.247-1.093c-0.141-0.063-0.525,0-0.566-0.294c-0.575,0.114-1.155,1.148-1.588,1.322
		c-0.669,0.234-0.769,0.292-1.149,0.748c-0.098,0.115-0.531,0.973-0.859,0.973c-0.294,0-0.965-0.906-0.965-1.148
		c-0.43,0-0.721-0.223-0.721-0.508v-2.07c-0.862-0.233-1.492-1.151-2.305-1.151c-0.864,0-1.197,0.979-1.774,0.979
		c-0.289,0-0.672,0.172-0.672,0.509c0,0.81,1.153,0.462,1.488,1.274c0.046,0.168,0.146,0.459,0.291,0.514
		c0.234,0.058,0.43,0.174,0.667,0.174c0.53,0,0.864-0.059,1.39-0.229h0.337c-0.337,0.685-1.774,0.568-2.445,0.975
		c0.098,0.458,0.623,0.224,0.862,0.684c0.238,0.463,0,0.694,0.238,1.27c0.048,0.175,0.337,0.175,0.482,0.175
		c0.382,0,0.578-0.573,0.722-1.035v0.519c0.762-0.291,1.058,1.203,1.776,1.203c0.767,0,2.062,0.291,2.589,0.574
		c0.48,0.292,1.827,0.926,2.012,1.611c0.241,0.861-0.046,1.672,0.63,2.472c-0.291,0.175-1.201,0.462-1.201,1.15
		c0,0.46,0.43,0.46,0.762,0.46h1.015c0-0.286,0.525-0.346,0.719-0.346c1.243,0,1.579,1.785,2.824,1.785h1.831
		c0-0.408,0.428-0.633,0.236-1.387c0.674-0.398,0.576-1.431,1.774-1.431c1.588,0,2.448,1.604,3.408,2.757
		c0.096,0.115,0.478,0.22,0.478,0.464c0,0.626,1.104,1.261,1.825,1.433h1.249c0.098,0.117,0.814,0.692,0.907,0.692h0.285
		c0-0.405,0.339-0.692,0.63-0.925c-0.14-0.057-0.867,0.061-0.956-0.227c-0.102-0.229-0.195-0.578-0.484-0.689
		c-0.188-0.059-0.474,0.176-0.571-0.109c-0.1-0.236-0.245-0.639-0.389-0.639c-0.339,0-0.91-0.288-1.049-0.572
		c-0.389-0.689-0.291-1.094-0.771-1.674c-0.096-0.109-0.914-1.088-0.914-1.377c0-0.516,0.914-0.286,0.914-0.917
		C225.355,202,224.346,202.636,223.865,202.347z"/>
	<path fill="#5B6A7F" d="M231.878,198.609c-0.529-0.633-0.96-1.321-1.87-1.667c0.144,0.462,0.48,0.4,0.862,0.691
		c0.624,0.455,0.532,1.098,1.153,1.437c-0.095,0.57-0.095,0.981,0.482,1.097c0.092,0.106,0.189,0,0.282,0
		c-0.043-0.113,0-0.293,0-0.408C232.788,198.958,232.263,199.07,231.878,198.609z"/>
	<path fill="#5B6A7F" d="M234.995,201.661c-0.091,0.578,0.1,1.154,0.676,1.262v0.464c0,0.172,0.146,0.396,0.286,0.396
		c0.142,0,0.335-0.283,0.335-0.46C236.292,203.148,235.286,201.883,234.995,201.661z"/>
	<path fill="#5B6A7F" d="M244.255,209.36c-0.044,0.344,0.289,1.203,0.771,1.203c-0.05-0.111,0-0.225,0-0.338
		C245.025,209.761,244.642,209.65,244.255,209.36z"/>
	<path fill="#5B6A7F" d="M242.146,208.446c0,0.684,0.767,0.912,1.34,0.912c0.053,0,0.196-0.111,0.246-0.111
		C243.391,208.668,242.912,208.446,242.146,208.446z"/>
	<path fill="#5B6A7F" d="M242.389,206.202c0.05,0.453,0.908,1.826,1.393,1.826C243.533,207.174,243.056,206.655,242.389,206.202z"/>
	<path fill="#5B6A7F" d="M239.557,204.993h-0.096c0,0.629,1.102,1.092,1.485,1.092c0.144,0,0.289-0.058,0.383-0.115
		c-0.287-0.516-1.247-0.863-1.679-1.15L239.557,204.993z"/>
	<path fill="#5B6A7F" d="M237.298,203.386l0.241,0.172c0,0.051-0.193,0.051-0.241,0.051l0.721,0.577h0.435
		C238.162,203.67,237.827,203.842,237.298,203.386z"/>
	<path fill="#5B6A7F" d="M223.432,264.026c-0.044,0-2.635-0.918-2.635,0c0,1.211,1.585,5.46,3.019,5.46
		c0.965,0,2.259-3.036,2.259-4.306c0-0.692-0.384-1.03-0.532-1.721C224.867,263.687,224.057,264.026,223.432,264.026z"/>
	<path fill="#5B6A7F" d="M225.836,262.877c0.05-0.287,0.144-0.399,0.144-0.971c-0.144,0.055-0.387,0.055-0.624,0
		C225.355,262.362,225.396,262.709,225.836,262.877z"/>
	<path fill="#5B6A7F" d="M209.763,254.429c0.43,0.518,1.148,0.403,1.679,0C210.764,254.024,210.673,253.911,209.763,254.429z"/>
	<path fill="#5B6A7F" d="M202.228,212.288h0.476v-0.856c-0.715-0.054-1.049,0.062-1.918,0.29
		C200.983,211.954,201.654,212.288,202.228,212.288z"/>
	<path fill="#5B6A7F" d="M231.878,234.651c-0.91-1.092-2.732-2.072-2.732-4.365c-0.625,0-1.392,0-1.583-0.746
		c-0.197-0.806-0.291-1.9-0.869-2.592c-0.808-0.976-2.878-1.494-3.262-2.869c-0.381-1.447-0.765-2.183-1.195-3.738
		c-0.241-0.926-0.241-2.758-0.821-3.219c-0.188-0.113-1.101-0.461-1.581-0.633c-0.529-0.463-0.286-1.496-0.479-2.296
		c-0.291-1.103-0.912-2.13-1.054-3.687c-0.814,0.52-0.58,1.269-1.345,1.951v5.186c-0.234,1.314-0.529,4.71-2.016,4.71
		c-0.91,0-1.148-1.265-1.822-1.554c-1.196-0.575-1.916-0.864-3.217-1.434c-0.187-0.057-0.187-0.925-0.476-1.15
		c-0.28-0.23-0.962-0.117-0.962-0.572l0.58-2.878c0.382-0.347,1.097-0.399,1.097-1.149c0-0.463-0.669-1.041-0.956-1.041
		c-0.525,0-0.721,0.465-1.345,0.465c-1.725,0-2.687-0.809-4.317-1.608c0.1,0.633,0.573,0.801,0.862,1.321
		c-0.142,0.051-0.526,0.4-0.862,0.4c-0.817,0-2.737,0.518-2.737,1.322c0,0.807-0.717,1.218-0.717,2.014
		c0,0.52,0.144,0.92-0.144,1.434c-0.098-0.055-0.478-0.455-0.717-0.455c-0.434,0-0.816,0.227-1.056,0.632
		c-0.1-1.036-0.584-2.183-1.439-2.183c-1.008,0-1.251,1.146-2.542,1.146c-0.102,1.326-1.055,1.554-1.055,3.162
		c-0.392,0-0.628-0.229-1.008-0.459c-0.244,0.634,0,1.493-0.53,1.894c-0.193-0.398-0.478-0.627-0.726-1.142
		c-0.476,0.282-0.621,0.853-0.621,1.435v0.973c0,1.957-3.93,3.563-5.66,3.912c-0.91,0.168-2.642,0.285-3.215,0.979
		c-0.525,0.624-1.634,2.062-2.539,2.182c0-0.174,0-0.404-0.053-0.576c-0.193,0.119-0.529,0.23-0.529,0.693v3.329
		c0,1.435,0.582,2.128,0.582,2.992c0,0.288,0.135,0.517,0,0.746c-0.144-0.173-0.342-0.458-0.433-0.746
		c-0.149,0.288-0.195,0.517-0.293,0.746c-0.232,0.862,0.726,1.149,0.96,2.017c0.628,2.242,0.773,3.047,1.342,5.579
		c0.246,1.03,0.963,1.952,0.963,3.618c0,1.322-1.102,1.725-1.102,2.587c0,0.802,2.307,2.007,3.119,2.007
		c2.157,0,2.874-1.889,4.557-1.889c0.574,0,0.574-0.464,1.343,0c1.054,0,1.872-0.296,2.878-0.41c0.382-2.93,3.406-1.893,5.852-2.873
		c1.058-0.4,1.395-1.314,3.119-1.314c1.583,0,4.416,0.567,5.185,1.72c0.38,0.635,1.44,3.452,1.774,3.452
		c0,0-0.191,1.033,0.383,1.033c1.008,0,2.209-2.99,3.075-4.027c0.041,0.863-0.195,3.854-1.398,4.143
		c0,0.289,0.243,0.571,0.484,0.571c0.719,0,0.769-1.03,1.203-1.265c0-0.176,0.094-0.398,0.094-0.569
		c0.188,0.226,0.476,0.456,0.476,1.147c0,0.576-0.193,0.914-0.337,1.26h0.575c0.387-0.109,0.626-0.174,0.958-0.396
		c0,0.053,0.05,0.287,0.05,0.287c0.051,0.743,0.674,1.436,0.674,2.296c0,2.358,3.069,3.851,4.941,3.851
		c1.201,0,0.823-1.146,1.92-1.268c0.048,0.352,2.014,1.665,2.398,1.73c0.382-2.762,4.317-1.549,4.848-4.197v0.113
		c0-2.014,1.01-3.793,1.39-5.176c0.484-1.836,1.347-2.41,2.209-4.022c0.239-0.455,0.099-0.683,0.337-1.146v-1.612
		c0.428-0.517,0.715-2.3,0.715-3.562c0-1.726-0.478-4.838-1.247-6.041L231.878,234.651z"/>
	<path fill="#5B6A7F" d="M260.474,264.32c-0.239,0.111-0.479,0.515-0.814,0.515c-0.289,0-0.242-0.402-0.242-0.809
		c-0.146,0-0.336-0.174-0.336-0.566c-0.43,0.228-1.146,1.028-1.146,1.893c0,0.115-0.053,0.229-0.053,0.348
		c-0.38,0.057-0.671,0.172-0.862,0.631c-0.05,0.17-0.05,0.573-0.05,0.573s-0.676,1.267-0.91,1.38
		c-0.814,0.461-1.533,1.899-2.688,1.899c-0.335,0-0.576,0.347-0.765,0.749c-0.482,0.855-1.918,1.662-1.918,3.158
		c0,0.117,0.144,0.229,0.236,0.229c0,0.284,1.87,1.146,2.159,1.146c0.287,0,0.86,0.287,1.056,0.287c0.53,0,1.393-0.857,1.829-1.373
		c0,0,1.338-3.332,1.481-4.028c0.382,0,1.541-0.286,1.767-0.286c0.104-0.691-0.137-0.915,0-1.783c0.777,0,1.732-2.127,1.88-2.875
		c-0.19-0.113-0.284-0.404-0.284-0.865C260.662,264.542,260.523,264.488,260.474,264.32z"/>
	<path fill="#5B6A7F" d="M266.617,257.592c-0.773,0-0.72,0.576-1.632,0.576c-1.151,0-1.778-0.859-1.778-2.359h-0.283
		c-0.246,0-0.432,0.229-0.432,0.574h-0.287c-0.246-0.284-0.82-1.551-0.82-1.838c0-0.174,0.146-0.228,0.197-0.406
		c-0.287-0.172-0.287-0.568-0.582-0.915c-0.477-0.579-1.295-0.634-1.82-1.608c0.289,1.375,0.955,3.273,2.062,3.506
		c-0.05,0.172-0.146,0.401-0.146,0.572c0,0.46,0.381,0.633,0.531,1.092v-0.035c0.066,0.295,0.192,0.77,0.192,1.123
		c0,0.863-0.099,1.672-0.578,2.246c-0.243,0.289-0.673,0.346-0.673,0.924c0,1.035,1.773,0.568,1.773,1.724
		c0,0.692-0.572,0.978-0.572,1.666c0,0.464,0.285,0.749,0.721,0.749c1.006,0,1.293-1.154,1.771-2.02
		c0.092-0.168,0.672-0.738,0.672-1.142c0-0.174-0.189-0.409-0.189-0.576c0-0.457,0.477-0.63,0.959-0.752
		c0.043,0,0.092-0.167,0.139-0.167l0.203,0.289c0.476-0.868,0.277-2.078,0.953-2.874
		C266.908,257.762,266.757,257.592,266.617,257.592z"/>
	<path fill="#5B6A7F" d="M266.757,222.631v-0.68c-0.236-0.056-0.434-0.232-0.575-0.517c-0.431,0.174-1.099,0.339-1.099,1.087
		c0,0.234,0.621,0.348,1.008,0.348C266.468,222.87,266.468,222.979,266.757,222.631z"/>
	<path fill="#5B6A7F" d="M266.998,220.518c0,0.164,0.145,0.516,0.289,0.516c0.482,0,0.625-0.578,1.197-0.752v-0.516
		C268.195,219.766,266.998,219.825,266.998,220.518z"/>
	<path fill="#5B6A7F" d="M194.602,176.56c-0.041,0.149-0.011,0.847-0.144,1.198c-0.139,0.296-0.919,0.078-0.934,0.775
		c-0.263,0.045-0.397,0.297-0.406,0.646c-0.089-0.005-0.17-0.007-0.261-0.007c-0.307-0.012-0.206-0.807-0.773-0.813
		c-0.786-0.021-0.589,1.091-1.508,1.065c-0.093,0.5-0.271,0.793-0.277,1.291c-0.005,0.152,0.169,0.354,0.163,0.502
		c0,0.203-0.365,1.15-0.018,1.152c0.484,0.008,0.424-1.636,0.866-2.132c0,0,0.302,0.407,0.431,0.462
		c0.041-0.052,0.137-0.25,0.137-0.25c0.082,0.102,0.171,0.256,0.432,0.256c-0.036-0.15,0.007-0.3,0.012-0.445l0.607,0.02
		c0.044,0.146,0.126,0.348,0.17,0.499c-0.135,0.091-0.222,0.248-0.229,0.591c-0.013,0.957,0.5,1.762,1.112,1.775
		c0.13,0,0.302,0.053,0.438-0.033c0,0.141,0.083,0.404,0.218,0.404c0.302,0.002,0.486-0.299,0.486-0.696
		c0.007-0.548-0.515-0.708-0.509-1.062c0-0.295,0.222-0.393,0.406-0.692c0.087,0.151,0.211,0.256,0.252,0.406l-0.025-0.121
		c0.076,0.278,0.387,1.136,0.536,1.183c0.013-0.849,0.543-1.136,0.554-1.691c0.002-0.443-0.699-3.412-1.04-3.824
		C195.125,176.821,194.907,176.564,194.602,176.56z"/>
	<path fill="#5B6A7F" d="M184.378,178.543l0.304,0.013c0.53-0.394,1.368-1.022,1.566-2.173c0.352,0.007,0.655-0.084,0.751-0.527
		c0.218,0,0.266-0.152,0.439-0.292c-0.17-0.204-0.387-0.313-0.381-0.812c-0.132,0.144-0.139,0.393-0.23,0.642
		C186.332,176.483,184.836,177.057,184.378,178.543z"/>
	<path fill="#5B6A7F" d="M186.806,167.995c-0.006,0.299,0.771,0.909,0.951,0.914c0.131,0.004,0.22-0.195,0.313-0.341l0.258,0.002
		l-0.009,0.501c-0.086,0.105-0.263,0.246-0.267,0.547c-0.007,0.256,0.339,0.707,0.641,0.717c0.265,0.008,0.445-0.289,0.706-0.287
		c0.612,0.01,0.639,1.111,1.256,1.129c-0.124-0.407-0.255-0.614-0.031-0.955c0.255,0.453,1.297,0.926,1.554,1.535
		c0.043,0.146,0.08,0.4,0.215,0.406c0.085,0.002,0.176-0.199,0.178-0.297c0-0.154,0.005-0.25,0.005-0.4
		c-0.302-0.008-0.567-0.213-0.559-0.616c-0.087,0.05-0.307,0.095-0.307,0c0.005-0.259,0.222-0.295,0.271-0.599
		c-0.086-0.002-0.171-0.107-0.258-0.107c-0.179,0-0.229,0.348-0.399,0.341c-0.268-0.002-0.381-1.149-0.906-1.166
		c-0.259-0.004-0.482,0.187-0.484,0.39c-0.002,0.049-0.002,0.203-0.004,0.246c-0.48-0.262-1.071-1.523-1.061-2.271
		c0.011-1.047,0.802-1.125,0.819-2.23c0.011-0.852-0.55-1.609-0.537-2.261c0.005-0.099-0.087-0.259-0.087-0.351
		c0.005-0.055-0.08-0.209-0.08-0.254c-0.174,0.094-0.314,0.49-0.575,0.488c-0.394-0.012-0.294-0.908-0.778-0.92
		c-0.35-0.004-0.442,0.494-0.444,0.991c-0.016,0.601,0.199,1.008,0.187,1.604c-0.002,0.455-0.103,1.149-0.28,1.496
		C186.656,166.139,186.816,167.191,186.806,167.995z"/>
	<path fill="#5B6A7F" d="M194.137,172.504c-0.35-0.018-0.608-0.221-0.96-0.23c-0.131,0-0.261,0.146-0.396,0.191
		c0.076,0.408,1.043,0.775,1.029,1.473c0,0.107-0.139,0.296-0.222,0.296c-0.047,0-0.352-0.005-0.573-0.01l-0.004,0.3
		c0.043,0.146,0.348,0.664,0.653,0.664l-0.009,0.301c-0.178,0.295-0.098,0.7,0.209,0.707c0.13,0,0.261,0.006,0.396,0.006V175.9
		c-0.17-0.101-0.342-0.606-0.374-1.005l0.654,0.009c0.043-0.198,0.134-0.344,0.187-0.644c-0.048,0-0.344-0.459-0.344-0.459
		s0.048-0.502,0.009-0.797c-0.089-0.006-0.176-0.006-0.265-0.006C194.176,172.845,194.137,172.649,194.137,172.504z"/>
	<path fill="#5B6A7F" d="M190.375,173.479c-0.057-0.076-0.124-0.163-0.188-0.168c-0.089,0-0.271,0.141-0.271,0.243
		c-0.004,0.454,0.161,1.407,0.146,2.26c0.396-0.293,1.416-0.722,1.423-1.576C191.489,173.859,190.718,173.679,190.375,173.479z"/>
	<path fill="#5B6A7F" d="M191.697,174.946c-0.224,0.049-0.46,1.295-0.467,1.438c-0.128,0-0.394,0.145-0.394,0.299
		c-0.004,0.348,0.773,1.316,0.945,1.318c0.085,0,0.267-0.146,0.267-0.242c0.005-0.309-0.217-0.209-0.215-0.658
		c0.014-0.604,0.502-0.987,0.513-1.585C192.347,175.217,192.136,174.801,191.697,174.946z"/>
	<path fill="#5B6A7F" d="M192.108,176.907h0.213c0.015-0.75,0.588-0.984,0.599-1.886c-0.135,0-0.267-0.002-0.395-0.002
		C192.51,175.917,192.245,176.315,192.108,176.907z"/>
	<path fill="#5B6A7F" d="M193.468,176.282c-0.135,0.197-0.35,0.092-0.559-0.012c-0.146,0.303-0.41,0.443-0.412,0.74
		c0,0.103,0.167,0.252,0.254,0.252C193.146,177.279,193.463,176.838,193.468,176.282z"/>
	<path fill="#5B6A7F" d="M192.547,173.513c0.011-0.642-0.559-0.81-0.683-1.263l-0.391-0.015c-0.009,0.209-0.009,0.401-0.016,0.755
		c0.22,0.008,0.394-0.037,0.617,0.014C192.069,173.252,192.547,173.768,192.547,173.513z"/>
	<path fill="#5B6A7F" d="M189.059,172.595c0.176,0,0.399-0.597,0.319-0.997c-0.124-0.604-0.602-0.516-1.125-0.926l-0.438-0.004
		C187.815,170.668,188.796,172.588,189.059,172.595z"/>
	<path fill="#5B6A7F" d="M189.521,170.999c0.085,0.104,0.344,0.06,0.438,0.014C189.873,170.909,189.61,170.95,189.521,170.999z"/>
	<path fill="#5B6A7F" d="M188.983,150.228c-0.674-0.024-1.761,2.185-1.803,3.386c-0.029,0.86-0.203,1.608,0.662,1.639
		C188.944,155.29,190.175,150.269,188.983,150.228z"/>
	<path fill="#5B6A7F" d="M174.735,159.975c0-0.338-0.332-0.859-0.57-0.859c-0.626,0-2.26,1.439-2.644,1.439
		c-0.239,0,0,0.518,0,0.863c0,0.744,0.334,1.145,1.06,1.145C173.296,162.562,174.735,160.779,174.735,159.975z"/>
	<path fill="#5B6A7F" d="M167.92,196.432c0.05,0.17,0.243,0.798,0.341,0.798c0.193,0,0.335,0.342,0.623,0.342h0.335
		c-0.048-0.167-0.048-0.39-0.048-0.571c-0.673,0-0.96-1.086-1.201-1.949c-0.337,0.052-1.006,0.457-1.006,0.746
		C166.964,196.258,167.729,195.965,167.92,196.432z"/>
	<path fill="#5B6A7F" d="M170.8,197.92c0.289,0,0.482-0.344,0.534-0.69c-0.143-0.056-0.293-0.287-0.44-0.287h-0.474
		c-0.05,0,0,0.231,0,0.287C170.42,197.517,170.514,197.92,170.8,197.92z"/>
	<path fill="#5B6A7F" d="M158.621,194.413h-0.387v0.228c0,0.411,0.624,1.325,0.864,1.383c0.037-0.567-0.187-0.905-0.478-1.327
		L158.621,194.413L158.621,194.413z"/>
	<path fill="#5B6A7F" d="M156.742,190.913l-0.234,0.109h0.046c0.048,0.346,0.671,1.26,0.86,1.26
		C157.798,192.282,157.036,191.135,156.742,190.913z"/>
	<path fill="#5B6A7F" d="M200.306,136.241c0,0.284,0.245,0.631,0.479,0.631c0.147,0,0.337-0.234,0.578-0.234
		c-0.096-0.168,0-0.343,0-0.516c0.046,0.289,0.098,0.634,0.382,0.75l-0.188,0.8c0,0-0.479,0.811-0.479,0.929
		c0,0.228,0.285,0.912,0.667,0.912v-0.344c0,0.176,0,0.515,0.146,0.515c0.674,0,1.058-1.778,1.201-2.812
		c0.144,0.112,0.285,0,0.431,0c-0.094-0.177,0-0.402,0-0.577l-0.431-0.46c-0.144,0-0.048-0.407-0.048-0.575
		c-0.577,0-0.866-0.459-1.249-0.459C201.654,134.801,200.306,135.894,200.306,136.241z"/>
	<path fill="#5B6A7F" d="M204.726,136.695c0.621,0,0.723-0.919,1.148-1.436c0.144,0.057,0.339,0.403,0.715,0.403
		c0.482,0,1.062-2.011,0-2.011c-0.667,0-0.812,0.979-1.629,0.685c0,0.061-0.905,0.867-0.905,0.867c0,0.281,0.091,0.398,0.38,0.627
		C204.385,136.122,204.479,136.695,204.726,136.695z"/>
	<path fill="#5B6A7F" d="M209.901,129.683c-0.43,0-0.717,1.777-1.531,1.777h-2.974c-1.255,0-1.684,1.447-2.693,2.246
		c-0.183,0.115-0.619,0.23-0.619,0.406c0,0.225,0.339,0.225,0.671,0.225c1.006,0,1.868-0.454,2.496-0.8
		c0.378-0.234,0.671,0.052,1.056-0.172c0.139-0.062,0.191-0.458,0.48-0.458c0.577,0,0.864,0.342,1.444,0.515
		c0,0.23-0.15,0.629-0.15,0.976c0,0.169-0.147,0.463,0,0.463c0.337,0,0.289,0.45,0.674,0.567c0.238-0.567,0.816-1.491,1.146-1.491
		c0.144,0,0.337,0,0.482-0.054c-0.05,0-0.482-0.695-0.482-0.925c0-0.168,0.144-0.457,0.291-0.457c0.433,0,0.389,0.978,1.388,0.978
		c0.387,0,0.674-0.35,0.963-0.688h0.479c0,0.117,0.148,0.282,0.239,0.282c0.193-0.798,0.625-0.86,1.297-1.375
		c-0.048,0.4-0.241,0.458-0.048,0.916c0.573-0.224,0.573-0.801,1.155-1.153c-0.104-0.343-0.245-0.566-0.245-1.09
		c0-0.74,0.529-1.088,0.529-1.61c0-0.629-0.146-2.411,0.33-2.584c0.146-0.058,0.294,0.062,0.441-0.114v-0.342
		c0-0.749,0.669-0.864,0.669-1.785c0-0.807-0.669-1.206-0.669-2.01c0-0.4,0.046-0.743-0.1-1.147c-0.048-0.175-0.237-0.29-0.576-0.29
		c-0.141,0-0.05,0.521,0.096,0.521c0.053,0,0.1,0.057,0.139,0.057c-0.573,0.568-0.519-0.175-0.614-0.175
		c-0.628,0-1.107,1.433-1.107,2.125c0,0.287,0.187,0.287,0.187,0.689c0,1.841-1.627,4.257-2.635,4.659
		c-0.571,0.231-0.669,0.801-1.393,0.801c-0.093,0-0.24-0.168-0.24-0.289c0-0.23,0.104-0.455,0.24-0.632
		C210.581,128.308,209.949,129.683,209.901,129.683z"/>
	<path fill="#5B6A7F" d="M215.325,116.863c-0.096,0.403-0.86,0.81-0.86,1.438c0,0.229,0.239,0.346,0.239,0.576v1.315h0.28
		c0.387-0.459,0.777-0.226,1.155-0.859c-0.189-0.226-0.91-0.226-0.91-0.804c0-0.973,0.814-0.398,1.44-0.398
		c0-0.18,0.19-0.407,0.332-0.459c0.823,0.629,1.299,0.742,2.062,1.32c0.387-0.691,0.723-2.01,1.73-2.01
		c0.72,0,1.056-0.174,1.49-0.52c-0.191-0.056-0.58-0.403-0.58-0.746c0-0.292,0.195-0.404,0.291-0.695
		c-0.291-0.225-0.625,0.119-1.008,0.119c-1.87,0-2.445-1.842-3.74-2.875c-0.098,0.173-0.295,0.347-0.295,0.749
		c0,0.228,0.247,0.339,0.247,0.573c0,0.747-0.339,2.99-1.155,2.99c-0.139,0-0.337,0.053-0.482,0l0.103,0.111
		c-0.147-0.111-0.243-0.173-0.339-0.282V116.863L215.325,116.863z"/>
	<path fill="#5B6A7F" d="M222.236,115.142c-0.1,0.172-0.141,0.511,0,0.511c0.431,0,1.006-0.854,1.195-1.203l-0.161-0.154
		C222.895,114.347,222.419,114.816,222.236,115.142z"/>
	<path fill="#5B6A7F" d="M223.192,114.224l0.078,0.071c0.023-0.002,0.046-0.02,0.065-0.02L223.192,114.224z"/>
	<path fill="#5B6A7F" d="M225.886,112.149c-0.576,0-1.062,1.264-1.062,1.264c0,0.061-0.043,0.289,0,0.289
		c0.674,0,0.674-1.152,1.779-1.152v-0.4C226.409,112.207,226.168,112.149,225.886,112.149z"/>
	<path fill="#5B6A7F" d="M228.136,111.636c0.383,0,0.771-0.805,0.816-1.151c-0.098,0-0.671,0-0.767,0.347
		c-0.05,0.169,0.096,0.459-0.05,0.459C228.042,111.29,228.042,111.636,228.136,111.636z"/>
	<path fill="#5B6A7F" d="M219.02,95.594c-0.19-0.745-0.577-1.495-0.577-2.644h-0.33v1.212c0,0.282-0.198,0.399-0.198,0.74
		c-0.715,0.173-1.008,1.725-1.008,2.935c0,0.86,0.728,1.206,0.728,2.07v3.395c0,0.688-0.247,0.916-0.247,1.781
		c0,0.688,0.293,0.797,0.293,1.609c0,0.861-0.193,1.548-0.193,2.587c0,0.281-0.144,1.665,0,1.665c0.578,0,0.578-1.268,1.151-1.268
		h0.478c0.05,0.232,0.289,0.635,0.48,0.58c0.05,0,0.147-0.059,0.147-0.059c-0.389-0.981-1.396-1.61-1.396-2.934
		c0-1.493,0.147-3.335,1.439-3.335c0.428,0,0.773,0.346,1.011,0.754c-0.285-1.382-0.913-2.535-1.299-3.971
		c-0.094-0.343-0.433-0.982-0.333-1.551v-1.384C218.829,96.971,219.211,96.399,219.02,95.594z"/>
	<path fill="#5B6A7F" d="M94.28,49.204c0,0,1.293-0.06,1.438,0c0.812,0.286,0.384,1.207,0.721,2.012c0.092,0.288,0.862,0,1.194,0
		c0.146,0,0.241,0.348,0.335,0.404h3.747c-0.048-0.114-0.101-0.192-0.156-0.281c-1.062-1.14-2.627-1.66-2.627-3.746
		c0-3.677,3.311-7.53,5.759-8.334c0.862-0.289,1.101-1.558,2.302-1.558c0.576,0,0.768-1.148,1.056-1.32
		c1.582-0.92,2.778-0.457,4.462-1.433c1.201-0.688,4.894-1.037,4.894-2.993c0-0.629-1.345-1.437-1.92-1.437
		c-2.398,0-4.657,3.277-7.2,3.277c-0.574,0-0.862-0.69-1.437-0.69c-0.916,0-0.916,0.69-1.533,0.69c-1.774,0-3.121,2.757-4.317,2.757
		c-0.724,0-1.199,0.405-1.916,0.405c-0.341,0-0.482,0.344-0.482,0.577c0,0.344,0.334,0.574,0.334,1.034
		c0,1.611-2.493,2.469-2.493,3.448c0,0.459,0.671,0.575,0.717,1.262c-0.769,0.231-2.302,0.637-2.302,1.616v0.857
		c0,1.033-1.44,0.921-1.44,2.301C93.414,48.743,94.28,49.204,94.28,49.204z"/>
	<path fill="#5B6A7F" d="M101.522,51.274c0.015,0.019,0.028,0.044,0.037,0.064c0.052,0.056,0.108,0.105,0.156,0.165L101.522,51.274z
		"/>
	<g>
		<path fill="#5B6A7F" d="M282.925,64.321c-1.284,0.516-2.059,0.405-2.881,1.554c-0.525,0.749-0.715,2.875-1.678,2.875
			c-2.158,0-4.654-4.889-7.674-4.889c-0.951,0-0.479,1.439-0.72,2.014c-0.575,1.376-3.356,0.976-3.356,3.453
			c0,0.916,5.682,4.14-1.443,4.308c-3.737,0.085-6.764,6.612-11.031,6.612c-1.444,0-4.998-5.342-8.879,4.598
			c-0.463,1.195,0,1.894,0,2.587c0,1.032-1.675,1.551-1.675,3.452c0,1.205-2.163,1.55-1.92,3.156
			c-1.97,0.577-2.64,3.735-3.602,5.464c-1.345-1.266-1.922-8.222-1.922-10.35c0-2.472,1.681-3.795,2.884-4.596
			c1.437-0.979,2.351-3.164,3.36-4.891c0.858-1.495,2.044-0.996,3.352-2.01c3.763-2.899,1.254-4.143,0.724-4.023
			c-5.232,7.738-4.896,2.758-4.075,2.01c-1.631-0.289-2.018,0-2.882,0c-3.309,0-4.748,2.246-5.52,6.038h-2.639
			c-1.197,0-2.113-1.148-4.077-1.148c-1.581,0-7.29,0.575-9.116,1.148c-2.063,0.695-4.027,3.677-5.52,5.461
			c-1.003,1.207-3.592,2.988-3.592,4.599c0,0.347,1.473,4.291,4.317,1.722c0.956-0.861,3.039,2.165,3.039,3.718
			c0,1.269-0.562,2.566-0.841,3.163c-0.749,1.595-0.188,2.665-0.521,4.336c-0.286,1.496-1.353,3.368-2.12,4.286
			c-1.924,2.303-4.5,9.224-7.234,9.224c-1.483,0-3.352-0.578-3.36-0.581l-0.002,0.002c-1.149,1.095-1.536,2.009-2.157,3.566
			c-0.191,0.455-1.052,1.033-1.39,1.436c-0.387,0.463-0.862,0.863-1.44,0.863c-0.098,0.978,0.385,1.493,0.818,2.01
			c1.056,1.26,1.772,2.587,1.772,4.83c0,1.321-0.284,1.957-0.96,2.184c-0.291,0.117-1.494,0.172-1.494,0.687
			c-0.569,0.178-0.66,0.178-0.951,0.523h-0.722c0-0.289,0.239-0.462,0.291-0.753c-0.24-0.051-0.24-0.34-0.24-0.568
			c0-0.41,0.428-1.155,0.428-1.326c0-0.344-0.239-0.63-0.239-0.978c-0.286-0.054-0.382-0.285-0.479-0.398v-0.579
			c0.386,0,0.767-0.345,0.767-0.748c0-0.686-0.713-1.14-1.295-1.14c-0.337,0-0.525,0.276-0.671,0.276
			c-0.332,0-0.479-0.689-0.479-0.978c0-0.688,0.528-0.633,0.528-1.206c0-0.687-0.237-0.687,0-1.269c-0.724,0-0.96-0.626-1.536-0.626
			c-1.539,0-2.641,1.726-3.98,1.726c0-1.04,0.914-1.438,0.914-2.361c0-0.341-0.532-1.088-0.914-1.088
			c-0.479,0-0.67,0.571-0.77,0.747c-0.385,0.749-1.487,1.603-2.063,2.129c-0.671,0.573-2.063,0.167-2.063,1.377
			c0,0.571,0.819,0.799,1.013,0.976c0.568,0.521,0.38,1.092,0.958,1.553c0.382,0.287,0.861,0.119,1.244,0.119
			c0.287,0,0.287-1.267,0.669-1.267c0.534,0,0.726,0.46,1.056,0.687c0.674,0.52,1.393-0.113,1.776,0.52
			c-0.96,1.152-3.019,1.152-3.451,2.699c-0.195,0.688-1.012,0.745-1.012,1.438c0,0.806,0.91,1.378,1.299,1.439
			c0,0.169,0.048,1.092,0.048,1.092h0.098l-0.05,0.056c0.43,0.289,0.43,0.981,0.579,1.266c0.858,1.558,1.341,2.473,1.341,4.948
			c0,1.663-0.719,2.242-0.719,3.502c-0.722,0.174-2.017,2.465-2.303,3.16c-0.438,1.091-0.769,3.22-1.92,3.22
			c-0.092,0.577-0.337,0.81-0.715,1.033c-1.345,0.925-1.872,2.534-4.081,2.534c-0.479,0-0.724-0.465-1.199-0.465
			c-0.1,0-0.58,1.095-0.58,1.095c-0.575,0.688-1.487,0.459-2.396,0.978c-0.389,0.234-1.347,0.401-1.679,0.805
			c-0.387,0.461-0.101,1.205-0.626,1.205c-0.435,0-0.284-1.144-0.239-1.438c-0.914-0.516-1.487-0.171-2.307-0.633
			c-0.955,1.783-3.308,2.191-3.308,4.662c0,0.514,0.236,0.631,0.43,0.854c1.104,1.33,1.584,2.823,2.787,3.739
			c1.146,0.92,1.922,3.452,1.922,5.347c0,1.324-0.577,1.842-0.577,2.877c-1.54,0.461-1.684,1.09-2.931,1.834
			c-0.58,0.354-0.479,1.273-1.056,1.273c-0.146,0-0.146-0.346-0.146-0.521v0.633c0,0.574-0.958,1.438-1.146,1.438
			c-0.195,0-0.387-0.803-0.387-1.155c0-0.461,0-0.687,0.191-0.801c-0.191-0.113-0.287-0.57-0.335-0.867
			c-0.717,0-1.679-0.277-1.679-1.148c-1.058,0-0.525-0.854-1.105-1.553c-0.669-0.799-1.343-0.855-2.107-1.147
			c-0.098,0-0.243-0.744-0.243-0.744c-0.144-0.636-0.719-0.741-1.244-0.741c-0.387,0-0.289,0.344-0.289,0.625
			c0,0.521,0.191,0.633,0.191,1.094c0,1.727-1.395,2.185-1.395,3.732c0,1.782,1.631,1.092,1.631,2.766h-0.091
			c0.188,0.398,0.234,1.436,0.573,1.836c1.294,1.552,4.127,1.897,4.127,4.772c0,0.578-0.191,0.578-0.191,1.097
			c0,1.027,0.717,1.377,0.912,2.063c0.193,0.751,0.193,1.037,0.428,1.673c-0.38,0.053-0.428,0.053-0.623,0.053
			c-0.144,0-0.189,0.229-0.339,0.229c-0.478,0-0.521-0.402-0.811-0.514c-1.487-0.576-2.832-2.299-3.362-4.195
			c-0.428-1.67-0.525-2.874-1.051-4.197c-0.337-0.809-0.671-2.875-1.444-2.875c-0.474,0-0.183,0.348-0.619,0
			c-0.098,0,0-0.229,0-0.35c0-0.807,0.093-1.375,0.236-2.178h0.098h0.142c-0.383-0.244,0.002-1.557,0.002-2.188
			c0-2.532-1.249-4.02-1.249-5.866c-0.621,0,0.195-1.724-0.286-2.585c-0.142-0.287-0.53-0.171-0.626-0.287
			c-0.284-0.349-0.139-0.576-0.426-0.922c-0.814,0.975-1.153,2.645-2.5,2.645c-0.717,0-0.767-0.688-0.767-1.436
			c0-0.753,0.241-1.096,0.241-1.727c0-0.281-0.241-0.461-0.289-0.746c-0.332-1.215-0.91-2.127-1.388-3.049
			c-0.674-0.635-1.197-1.092-1.586-1.84c-0.385-0.69-0.286-1.611-0.478-2.3c-0.195-0.802-1.008-1.149-1.731-1.323
			c0,1.726-1.338,2.071-2.587,2.071c-0.769,0-0.769-0.282-1.153-0.573c-0.337,0.863-1.342,0.922-1.49,1.435
			c-0.187,0.807-0.141,1.438-0.571,1.958c-0.866,1.033-2.252,1.324-3.023,2.238c-0.964,1.146-1.82,2.304-2.732,3.39
			c-0.384,0.466-0.914,1.157-1.253,1.272c-0.858,0.346-1.868,0.512-1.868,1.725c0,1.031,0.339,1.605,0.339,2.527
			c0,1.434-0.578,2.354-0.578,3.449l0.239,1.493l-0.239,0.062c0,0.17-0.336,0.17-0.479,0.227c-0.674,0.23-0.528,1.721-0.915,1.951
			c-0.573,0.346-0.666,0.121-0.912,0.695c-0.188,0.461-0.236,1.153-0.621,1.153c-0.384,0.056-0.669-0.177-0.723-0.577
			c-0.237,0-0.378-0.406-0.429-0.576c-0.384-1.388-0.912-2.537-1.244-3.744c-0.195-0.795-0.864-1.373-1.058-1.834
			c-0.383-0.922-0.146-1.672-0.528-2.353c-0.382-0.756-0.382-1.103-0.58-1.843c-0.234-0.859-1.097-2.756-1.438-4.027
			c-0.287-1.144-0.816-2.242-0.816-3.336c0-0.17-0.074-0.646-0.074-0.812l0.037,0.041c0.018-0.766,0.23-0.922,0.23-1.643
			c0-0.921-0.476-1.604-0.476-2.357c0-0.166,0.282-0.573,0.282-0.801h-0.38c-0.624,0.746-0.674,2.699-1.918,2.699
			c-1.488,0-2.068-1.781-2.78-2.645c0.43-0.348,0.762-0.055,1.196-0.23c0.383-0.117,0.43-0.63,0.626-0.861
			c-0.383-0.119-0.726-0.119-1.11-0.119c-0.953,0-2.348-1.143-2.823-2.008c-0.392-0.746-0.676-2.069-1.251-2.301
			c-0.528-0.173-0.908-0.054-1.44-0.054c-0.575,0-0.717,0.458-1.206,0.458l-1.244-0.404c-0.189,0.118-0.33,0.291-0.424,0.404
			l-1.681,0.115c0,0.055-0.198,0-0.241,0c-0.91,0-3.028-0.692-4.318-0.692c-0.243,0-1.631-0.457-1.684-0.519
			c-0.478-0.569-0.478-2.297-1.479-2.297c-0.53,0-0.726,0.519-1.008,0.863h-2.402c-0.767-0.289-1.156-1.035-1.634-1.611
			c-0.575-0.692-1.342-0.346-1.87-0.973c-0.284-0.347-0.141-0.806-0.236-1.038c-0.53-1.26-1.588-3.045-2.931-3.045
			c-0.671,0-0.96,1.031-0.96,1.836c0,0.579,0,0.864,0.098,1.326c0.289,1.38,1.636,3.846,2.739,4.139c0,0.627,0.284,0.801,0.33,1.318
			c0.575-0.172,0.48-0.92,0.96-1.031c0.05,0.227,0.05,0.396,0.05,0.629c0,0.693-0.334,1.149-0.334,1.842
			c0,0.805,1.24,1.209,1.964,1.209c3.214,0,3.455-2.356,5.18-3.908v2.124c0.671,1.662,1.586,1.953,2.974,2.476
			c0.532,0.166,0.578,1.143,0.91,1.377v-0.062c0.243,0.521,0.914,0.407,0.914,0.925c0,1.32-1.392,1.777-1.392,3.158
			c-0.722,0-1.197,0.232-1.391,0.92c-0.191,0.691-0.144,1.671-0.717,1.671c-0.726,0-0.671,1.668-1.396,1.668
			c-0.428,0-1.338,0.978-1.338,1.66c-1.299,0.287-4.221,0.925-4.221,2.188c0,0.172,0.092,0.401,0.185,0.52
			c-1.099,0.631-2.584,1.033-3.74,1.376c-0.573,0.173-2.493,1.782-3.116,2.132h-1.488c-0.816,0.691-0.944,1.164-1.952,1.164
			l-0.3,0.217c-0.146,0-1.369-0.719-1.499-0.793c-0.119-0.07,0.256-0.072-0.059-0.643c-0.497-0.901-0.845-1.844-0.845-2.944
			c-0.523-0.052-0.152-1.144-0.055-1.655c0.239-1.272-0.571-1.789-1.095-2.42c-0.58-0.687-1.907-2.673-1.907-4.056
			c-1.677-0.456-2.074-1.632-2.074-3.817c0-1.324-0.623-1.613-0.818-2.703c-0.237-0.226-0.482-0.572-0.626-0.746
			c-0.193-0.23-0.812-0.117-0.956-0.285c-0.291-0.348-0.19-1.209-0.291-1.551c-0.143-0.582-0.478-1.041-0.671-1.387
			c-0.573-1.029-1.056-1.894-1.579-2.873c-0.147-0.287-0.814-1.205-0.814-1.376c0-0.392,0.152-1.123,0.25-1.825
			c-0.202,0.831-0.722,2.302-0.873,2.863c-1.013-0.177-1.829-2.763-2.644-3.738v0.976l4.562,9.659
			c-0.241,1.197,1.196,3.736,1.915,4.421v3.051c0.482,1.546,1.44,1.546,2.161,2.702c0.865,1.377,0.337,2.878,1.199,3.904
			c0.765,0.926,1.29,0.979,2.161,1.725c0.767,0.693,1.18,3.077,2.755,3.077c0,0.981,0.458,1.127-0.022,1.812
			c0.619,0.573,1.247,2.414,2.058,2.414c0.771,0,0.82-0.748,1.441-0.975c0.722-0.293,1.199,0.117,1.921,0
			c1.824-0.35,3.551-1.207,5.28-1.727c0.141,0.344,0.334,0.52,0.334,0.859c0,3.277-2.159,7.529-3.362,9.486
			c-1.438,2.299-2.057,4.371-3.836,6.035c-3.16,2.998-6.568,3.908-7.771,9.033c-0.332,1.428-1.583,1.827-1.583,3.45
			c0,1.779,0.382,2.579,0.382,4.308c0,1.953,1.781,2.927,1.781,4.018c0,0.352-0.293,0.753-0.343,0.867v1.434
			c0,0.926-0.142,2.012-0.142,3.625c0.291,0.342,0.385,0.686,0.385,1.154c0,4.48-6.334,3.966-6.859,7.752
			c-0.667,0.118-1.44,1.093-1.44,1.727c0,1.268,1.345,2.127,1.345,3.854c0,0.921-0.096,2.812-0.387,3.332
			c-0.287,0.458-1.104,0.234-1.438,0.4c-1.148,0.694-1.822,1.267-2.397,2.709c0.426,0.281,0.717,0.688,0.717,1.203
			c0,1.609-1.345,2.869-1.911,3.565c-1.062,1.259-1.16,2.592-1.925,3.739c-1.199,1.836-1.725,3.445-3.694,4.598
			c-0.814,0.46-2.016,0-2.164,1.037c-0.621,0.056-1.001,0.395-1.436,0.395c-0.523,0-0.814-0.57-1.345-0.57
			c-2.016,0-3.212,1.729-5.034,1.729c-0.814,0-1.247-0.521-1.54-1.156c-0.287,0.062-0.378,0.229-0.479,0.295
			c0-1.148-0.479-2.418-0.862-2.879c0.383-0.461,0.624-0.922,0.624-1.554c0-0.92-1.343-2.647-1.581-3.159
			c-1.729-3.512-3.938-6.902-3.938-11.959v-1.552c0-0.808-0.573-1.092-0.956-1.897c-1.346-2.697-2.782-4.885-2.782-8.623
			c0-4.021,3.023-5.002,3.023-8.051c0-1.433-0.479-2.013-0.623-3.271c-0.341-2.473-0.721-3.335-1.203-4.771
			c-0.383-1.146-0.191-2.47-0.812-3.443c-1.251-1.904-3.985-3.914-3.985-6.617c0-0.629,0.767-2.072,1.101-2.301
			c-0.188-0.516,0-0.635,0-0.857c0-0.697,0-2.418,0.482-2.879c-0.523-1.264-1.395-2.415-3.021-2.415h-2.014
			c-1.439,0-1.776-3.324-3.746-3.324c-2.394,0-4.169,1.313-5.995,2.007c-0.722,0.282-0.96,1.035-1.677,1.035
			c-0.724,0-1.925-0.863-2.88-0.863c-1.871,0-2.688,1.146-4.562,1.146c-0.573,0-1.243-0.281-1.436-0.454
			c-1.347-1.214-4.127-3.168-5.138-5.009c-0.91-1.663-1.198-3.045-2.396-4.189c-0.337-0.293-2.88-2.992-2.88-3.224
			c-0.239-0.345-0.385-0.451-0.626-0.804h0.15c0-0.867-0.246-1.323-0.246-1.838c0-0.811-0.382-1.1-0.719-1.896
			c1.056-0.632,2.014-3.736,2.014-5.171c0-2.535-0.958-4.147-0.958-6.438c0-1.152,1.105-1.849,1.345-2.766
			c0.625-2.242,2.063-5.285,3.217-7.186c0.669-1.089,1.916-0.973,2.78-1.548c0.721-0.521,1.92-1.668,2.159-2.591
			c0.575-2.127-0.144-3.045,0.814-4.484c1.246-1.896,2.878-3.684,4.081-5.463h-0.1c0.384-0.568,0.479-1.091,0.962-1.551
			c1.197,1.035,2.446,1.437,4.079,1.437c1.008,0,1.197-0.688,1.774-1.031c1.872-1.093,5.42-2.7,7.581-2.7
			c0.671,0,1.292,0.57,1.674,0.57c0.53,0,1.302-0.856,2.021-0.856c0.619,0,0.91,0.396,1.44,0.396c0.957,0,1.003-0.857,1.918-0.857
			c0.907,0,0.673,1.034,1.436,1.034c0.291,0,0.435-0.286,0.721-0.346c-0.05,0.861-0.721,0.742-0.721,1.493
			c0,0.518,0.623,0.747,0.623,1.267c0,0.861-0.623,1.316-0.623,2.185c0,1.431,1.246,2.698,2.161,2.698h1.347
			c3.114,0,4.22,4.6,7.768,4.6c0.432,0,0.957-0.577,0.957-0.863v-1.149c0-1.84,1.153-1.84,2.646-2.41l0.144,0.112h1.052
			c0,0.804,0.532,0.977,0.723,1.317c0.433,0.696,1.538,0.235,2.303,0.581c1.531,0.691,3.694,1.549,5.374,1.549
			c1.531,0,2.014-0.857,3.503-0.857c0.91,0,1.437,0.745,2.496,0.745c0.712,0,0.712-0.289,1.345-0.459
			c0.045,0.145,0.104,0.273,0.162,0.41l-0.265-0.758c0-0.397,0.339-0.397,0.387-0.63c0.339-1.265,0.48-1.898,0.767-3.052
			c0.289-1.149,1.247-1.434,1.247-2.759c0-0.975-0.237-1.779-0.237-2.464c0-0.348,0.237-0.469,0.335-0.576v-0.577
			c-0.385,0.175-0.528,0.515-0.912,0.515c-0.48,0-0.77-0.225-0.958-0.455c-0.769,0.687-1.008,1.432-2.4,1.432
			c-1.01,0-1.39-1.432-2.4-1.432c-1.01,0-0.816,1.318-1.674,1.318c-0.915,0-1.395-1.551-2.307-1.038H61.27
			c0.142-0.05,0.337-0.227,0.382-0.34c-0.291-0.343-1.679-1.209-1.2-1.782c-0.431-0.749-0.958-0.689-1.625-1.091
			c0.478-0.573,1.001-0.464,1.001-1.554c0-0.401-0.093-0.401,0-0.689c-0.334,0-0.812,0.06-0.812-0.294
			c0-1.774,3.454-1.431,4.314-1.95c-0.094-0.461-0.381-0.288-0.381-0.688c0-0.517,0.91-0.292,1.156-0.292h1.483
			c0.575,0,1.438-0.746,1.97-1.147c0.621-0.46,1.966-0.517,2.78-0.517c1.299,0,1.247,0.869,2.354,0.869
			c0,0.688,1.866,1.087,2.398,1.14h2.732c0.985,0,1.553-0.893,2.404-1.322c-0.016,0.01-0.037,0.014-0.055,0.021l-0.193,0.034
			c0-4.538-5.515-3.963-6.716-7.352c2.787-0.854,1.531-2.413,1.438-2.757c0.246-0.117,0.865-0.979,0.865-0.979
			c-1.299,0.575-4.796,2.127-4.796,2.583c0,0.697,0.623,0.861,0.814,0.861c0,0,1.246,0.231,1.342,0.231
			c-0.382,0.573-2.683,1.786-3.36,1.786c-0.669,0-2.873-4.312-3.735-4.312c-1.058,0-1.16,1.494-2.214,1.839
			c0.055,0.292,0,0.573,0.055,0.862c-0.482,0.113-0.995,0.396-0.995,0.972c-0.185,0.934-0.16,0.468-0.304,0.811v1.495
			c-0.482,0.576-1.345,1.724-1.345,2.529c0,1.151,1.297,1.953,1.588,2.468c-0.195,0.229-0.385,0.177-0.628,0.229
			c-0.432,0.174-0.765-0.053-1.198,0.174c-0.622,0.347-0.77,1.093-1.391,1.093c-0.721,0-1.155-1.148-2.016-1.148
			c-0.769,0-0.958,0.517-1.586,0.745c0.098,0.465,0.098,0.805,0,1.264c-0.717,0-0.81-0.86-1.244-0.86
			c-0.243,0-0.523,0.351-0.523,0.636l0.901,1.265c-0.041,0.342-0.189,0.518-0.189,0.687c0,0.179,1.299,1.61,1.684,1.61
			c0,0.172,0.096,0.403,0.189,0.519c-0.241,0.172-0.72-0.055-0.817,0.347h-0.096c-0.523-0.116-1.008-0.576-1.244-0.865v0.464
			c0.142,0.34,0.284,0.515,0.284,0.977c0,0.344-0.479,1.034,0,1.318h-0.666c-0.771,0-1.44-0.923-1.44-1.894
			c0-0.401,0.479-0.576,0.623-0.865h-0.82c-0.189,0-0.285-0.514-0.285-0.633c-0.195-0.799-0.571-1.322-1.003-1.836
			c-0.583-0.687-1.345-1.211-1.345-2.412v-1.499c0-0.81-1.061-2.014-1.729-2.412c-0.671-0.407-1.439-0.462-1.439-1.266h-0.674
			c-1.058,0-2.252-1.957-2.252-3.277h-1.438c-0.627,0-0.341-1.203-0.627-1.553c-0.53,0.403-1.584,0.403-1.584,1.033
			c0,0.114,0.146,0.344,0.243,0.344c-0.098,0.347-0.195,0.696-0.195,1.036c0,0.864,0.43,1.203,1.006,1.438
			c0.724,0.286,1.105,1.264,1.251,1.782c0.188,0.806,0.525,1.728,0.91,1.951c0.719,0.412,1.201,0.113,1.918,0.113
			c0,0.18,0,0.348-0.094,0.459c-0.195,0.697,0.958,0.988,1.247,1.156c0.96,0.575,2.111,1.032,1.972,2.237
			c-0.484-0.109-0.769-0.86-1.542-0.86c-0.575,0-1.051,0.351-1.051,0.922c0,0.75,0.862,0.92,0.862,1.665
			c0,0.287-0.626,0.287-0.626,0.287c-0.43,0.518-0.337,1.727-1.003,1.727c-0.337,0-0.53-0.172-0.53-0.403
			c0.578,0,0.811-0.862,0.811-1.554c0-0.856-0.381-1.088-0.48-1.602c-0.137,0-1.29-1.371-1.338-1.719
			c-0.189,0-0.912-0.243-0.912-0.59c-1.488-0.395-1.822-0.916-2.635-1.896c-0.341-0.403-1.062-0.63-1.158-1.034
			c-0.862-1.32-1.148-3.679-2.974-3.679c-0.859,0-0.91,0.745-1.342,0.979c-0.914,0.517-1.533,1.548-2.592,1.548
			c-1.058,0-1.727-0.63-2.687-0.63c-0.721,0-1.485,0.571-1.485,1.442l0.286,1.26c-0.286,1.151-1.342,1.558-2.353,1.842
			c-0.864,0.231-2.256,2.589-2.256,3.852c0,0.456,0.243,0.628,0.481,0.747c-0.625,1.146-0.912,1.836-1.918,2.412
			c-0.575,0.342-0.673,1.782-1.631,1.441v0.05c-0.435-0.165-1.247,0.119-1.487,0.119c-1.151,0-1.775,1.149-2.833,1.149
			c-0.717,0-0.767-2.125-1.87-2.125c-0.812,0-1.34,0.397-2.063,0.397c-0.286,0-0.38-0.283-0.38-0.46v-2.298
			c-0.387,0-0.767-0.341-0.767-0.806c0-0.744,0.525-0.917,0.525-1.317c0-1.439,0.43-2.931,0.43-4.422
			c0-0.872-0.527-1.675-0.527-2.193c0-0.343,1.634-1.554,1.918-1.554c0.191,0,0.437,0.346,0.724,0.231h2.156
			c0.191,0.231,0.578,0.292,0.816,0.349h2.303c0.576-0.176,0.867,0.224,1.343,0.224c0.334,0,1.056-0.28,1.201-0.28
			c0-1.157,0.621-1.496,0.621-2.586c0-0.234-0.05-1.24-0.05-1.586l-0.094,0.089c0.098-0.229,0.193-0.633,0.193-0.86
			c0-0.521-0.289-0.403-0.289-0.866c-0.96,0-1.249-1.032-1.249-1.953c-0.286-0.057-0.334-0.348-0.573-0.401
			c-0.765-0.289-2.878-0.75-2.878-1.614c-0.046,0-0.046-0.17-0.046-0.228c0-0.513,1.341-0.862,1.82-1.034
			c0.146,0.346,0.91,0.576,1.299,0.576c0.378,0,0.91-0.23,1.1-0.288v-0.398c-0.335-0.118-0.189-0.978-0.241-1.152v-0.462h0.481
			c0.383,0.462,0.863,0.745,1.437,0.745c0.387,0,0.723-0.399,0.818-0.859c1.442,0,1.82-1.268,2.111-2.646
			c0.289,0,0.435-0.058,0.674-0.118c0.286-0.112,2.202-1.029,2.394-1.26c0.387-0.461,0.241-1.153,0.241-1.842
			c0-0.229,0.43-0.571,0.481-0.632c0.672-0.802,1.347-1.726,2.446-1.726c0.625,0,0.337,0.174,0.671,0
			c0.144,0.174,0.289-0.283,0.383-0.396c0.336-0.409,0.767-0.062,1.2-0.062c0.287,0,1.056-0.517,1.056-0.977
			c0-0.29-0.332-1.384-0.332-1.44c-0.195-1.551-0.962-2.01-0.962-3.391c0-2.413,1.87-2.585,3.073-3.619v0.691
			c-0.241,0.574-0.289,0.918-0.289,1.492c0,0.582,0.525,0.634,0.912,0.634v0.461c0,0.283-0.434,0.399-0.577,0.574
			c-0.479,0.572-1.056,1.091-1.056,2.129c0,0.569,0.238,0.972,0.523,1.028c0,0.349,0.054,0.462,0,0.632
			c0.532,0,0.723,0.232,1.153,0.232c0.098,0.286,0.195,0.69,0.339,0.69c1.292,0,2.207-1.32,3.311-1.151
			c-0.051,0.287-0.287,0.461-0.287,0.635c0,0.112,0.814,0.804,0.814,0.804c0.525,0,0.573-0.401,0.816-0.513
			c0.812-0.465,1.44-0.291,2.155-0.697c0.435-0.229,1.198-1.091,1.778-1.091c0.621,0,1.297,0.061,1.629,0.231
			c-0.095,0.228-0.19,0.521-0.19,0.631c0.582,0,1.171-0.064,1.725-0.132c0.093-2.011,1.629-1.706,1.629-3.949
			c0-1.378,1.062-4.024,1.924-4.024c0.819,0,0.961,1.438,1.918,1.438c0.58,0,1.851-1.049-0.571-3.759
			c-0.736-0.823,1.678-1.991,2.735-1.991c1.051,0,1.579,0.406,2.397,0.406c0.621,0,2.062-0.807,2.637-1.267
			c-0.332-1.089-0.812-1.379-1.198-2.014c-0.48,1.151-2.688,1.323-3.598,1.151c-0.964,0.347-2.065,0.862-2.884,0.862
			c-0.617,0-1.05-0.115-1.05-0.752c-1.01,0-2.065-0.799-2.065-2.003c0-0.58,0.532-0.983,0.674-1.268
			c-0.482-0.232-0.915-1.558-0.915-2.186c0-0.404,0.096-0.752,0-1.151c2.016,0,3.076-3.162,4.32-4.024
			c0.669-0.458,1.818-0.747,1.818-1.725c0-1.438-1.577-1.725-2.782-1.725c-1.579,0-2.874,0.69-2.874,2.3
			c0,0.691,0.144,0.972,0,1.324c0,1.321-2.209,2.471-3.217,3.161c-0.816,0.576-1.681,0.809-2.159,1.84
			c-0.382,0.806,0.098,1.895-0.619,2.301v1.152c0.237,0.225,0.378,0.626,0.378,1.029c0.864,0.175,2.159,1.21,2.159,2.302
			c0,0.86-1.439,2.301-1.918,2.301c-0.96,0-1.342,1.665-1.342,2.872c0,0.685,0.43,0.915,0.723,0.976
			c-0.147,1.556-1.301,1.668-1.439,2.759h-1.295c-0.818,0-1.11,1.841-2.307,1.841c-0.385,0-1.054-2.414-1.054-2.694
			c0-0.182,0.094-0.41,0.094-0.582c-0.812-0.978-0.722-1.784-1.056-3.05c-0.237-0.856-0.958-1.091-0.958-2.121
			c0-0.281,0.135-0.609,0.239-0.824c-0.528-0.341-0.647-0.823-0.96-1.364c-1.004,1.731-2.542,3.912-4.558,3.912
			c-0.289,0-2.163-1.383-2.163-1.612c0-0.458,0.628-0.743,0.821-0.862v-0.859c-0.676,0-0.676,0-1.251,0.283
			c0-0.398,0.527-1.09,0.771-1.489c-0.723-1.038-0.814-2.475-0.814-4.083c0-0.862,0.763-0.805,1.052-1.325
			c0.575-0.976,1.105-1.67,2.161-2.012c0.868-0.284,1.056-1.669,2.782-1.438c-0.53-0.171-0.722-0.286-1.153-0.399
			c2.109-0.637,2.926-2.646,4.365-4.028c0.576-0.517,0.482-2.299,0.862-2.299c0,0,0.482-1.265,0.482-1.321
			c0.58-1.149,1.251-1.954,2.255-2.414c1.006-0.459,2.35-2.417,2.589-3.624c-1.196,0.291-1.675,1.038-2.832,1.038
			c0.243-0.405,0.773-0.691,0.962-0.806c-0.236,0-0.719-0.173-0.719-0.173c0.094-0.574,0.341-0.915,0.719-0.915
			c0.147,0,0.243,0.167,0.387,0.167c0.144-0.344,0.287-0.573,0.43-0.745c0.241,0.341,0.287,0.632,0.148,1.032
			c0.767,0,0.962,0.573,1.576,0.573c0.241,0,0.771-1.375,0.869-1.434c-0.339-0.114-0.339-0.172-0.769-0.114
			c0.241-0.459,0.621-0.922,1.101-0.922c0.339,0,0.624,0.113,0.96-0.114c-0.238-0.29-0.188-0.227-0.378-0.462
			c0.479-0.57,1.336-0.517,2.06-0.684v0.684c0.621-0.171,0.771-1.489,1.774-1.548v0.978c0.623-1.38,1.436-1.036,2.305-1.613
			c-0.382-0.173-0.719-0.288-0.719-0.691c0-0.282,0.86-0.518,1.003-0.86c0.291,0.401,0.578,0.86,1.008,0.86
			c0.724,0,2.548-1.434,2.548-0.686c0,0.801-0.816,1.037-1.01,1.839c0.956,0.115,1.242-1.206,2.062-1.729
			c0.188,0.405,0.188,0.69,0.241,1.036c0.676-0.805,1.056-1.036,1.82-1.608c0.048,0.747-0.048,1.263,0.479,1.324
			c0.146-0.459,0.341-0.862,0.726-0.862c0.239,0,1.292,0.686,1.675,0.92c-0.433,1.381-0.816,0.919-1.918,1.381
			c0.482,0.461,0.812,0.516,0.812,0.857c0.432,0.062,1.438,0.231,1.588,0.231c1.104-0.17,1.153,0.059,1.294,0.059
			c1.582,0,6.772,3.127,9.116,4.024c8.183,3.138,2.813,7.137,0.15,6.299c-1.999-0.629-3.124-0.552-5.189-0.552
			c0.96,1.669,0.626,5.173,3.36,5.467v-2.302c5.547,2.848,4.892-2.646,6.238-3.165c1.342-0.516,3.834,0.865,3.834-1.151
			c0-1.031-0.852-1.229-0.717-1.722c2.069-7.643,3.143-2.608,2.401-0.288c-0.212,0.646,0.624,1.152,1.201,1.152
			c1.772,0,8.967-7.702,10.068-4.313c2.188,1.269,5.229-1.149,6.716-1.149c0.866,0,2.431,3.565,2.646-0.862
			c0.013-0.399-2.104-3.071,4.468-1.03c2.374,0.737,8.753,6.321,6.086,1.317c-1.155-1.377-2.163-3.102-2.163-5.748
			c0-2.184,3.934-6.239,5.999-5.749c4.107,0.979,1.436,1.781,1.436,3.736c0,1.781,0.539,10.467,2.553,10.467
			c1.562,0-1.401-4.276-0.394-5.578c1.475-1.893-0.571-3.563-0.956-5.177c1.252-0.805,2.251-1.61,2.494-3.448
			c0.676,1.034,0.417,6.293,3.263,1.725c3.362,0,3.74,0.803,4.796,0c-0.183-0.922-0.717-1.609-0.717-2.297
			c0-3.281,5.951-2.588,7.53-2.588c1.104,0,1.329-2.376,2.067-3.161c3.511-3.764,10.266-4.315,11.847-4.893
			c-0.541,2.706,5.665-0.282,6.62-1.146c1.297-1.208,2.305-3.45,4.801-3.45c2.061,0,3.114,1.555,3.593,3.161h5.043
			c11.907,3.423-2.594,8.11-4.079,10.35c0,0-1.405,3.855,4.892-2.301c1.056,2.068,9.359,3.222,10.938,3.733h5.276
			c0-1.78,0.682-2.423,1.924-2.293c9.87,0.979,5.999,3.905,5.999,4.312c0,1.61,0.86,4.598,2.876,4.598
			c0.767,0,1.05-1.78,1.199-2.587c1.586,0.113,1.772,1.437,3.117,1.437h7.674c0.293-2.244,0.814-4.599,4.559-4.599
			c3.749,0,6.909,0.861,9.838,2.01c1.392,0.518,1.444,1.898,2.399,2.877c1.059,1.091,3.74,0.286,5.52,0.286
			c3.261,0,4.892,1.035,5.515,4.028l11.03,0.281c0.916-0.056,4.608,5.581,3.125,0c-0.204-0.764,0.867-1.146,2.398-1.146
			c5.563,0,10.6,2.814,14.392,5.46C275.589,60.009,281.205,61.561,282.925,64.321z"/>
		<path fill="#5B6A7F" d="M70.994,142.515l-0.024-0.067c0.007,0.045,0.018,0.087,0.02,0.136
			C70.989,142.561,70.992,142.534,70.994,142.515z"/>
		<path fill="#5B6A7F" d="M89.374,125.214c-0.185,0.346,0.399,0.387,0.634,0.848c0.383,0.686-0.043,1.151,0.241,1.841
			c0.237,0.633,0.86,0.285,1.391,0.401c0.432,0.117,0.529,0.693,0.814,1.032c0.387,0.459,1.588,0.347,2.204,0.347
			c0.817,0,1.684-0.168,2.255-0.347v-1.028c-0.043-0.063-0.474-0.693-0.474-1.212c0-0.514,0.335-0.686,0.335-1.323
			c0-1.09-0.672-2.244-1.68-2.41c0.098-0.867,0.528-1.438,0.963-1.438h1.431c0-0.859-0.762-1.322-0.812-2.19
			c-0.335,0.066-1.247,0.638-1.632,0.868c0-2.244-1.297-2.995-2.204-4.89c-0.291-0.634-1.059-0.571-1.105-1.726
			c0.147,0.066,2.059-1.438,3.359-1.438c0.865,0,1.818,0.636,2.544-0.053c-0.962-1.723-1.391-3.221-3.985-3.221
			c-1.582,0-2.351,0.404-3.596,0.979c-0.143,0.057-1.585,1.035-1.822,0.862c-0.247,0.346-1.155,2.472-1.155,2.753
			c0,0.863,1.058,1.727,1.058,2.304c0,1.958,1.971,5.404,3.261,6.269c-0.767,0.458-0.767,1.835-1.341,2.759
			C90.058,125.201,89.559,124.868,89.374,125.214z"/>
		<path fill="#5B6A7F" d="M158.195,175.528c-0.062,0.178-0.126,0.354-0.202,0.551l0,0
			C158.069,175.881,158.133,175.706,158.195,175.528z"/>
		<path fill="#5B6A7F" d="M158.951,173.374c-0.277,0.707-0.438,1.223-0.621,1.765C158.513,174.6,158.674,174.081,158.951,173.374z"
			/>
		<path fill="#5B6A7F" d="M159.336,172.745c0-0.188-0.11-0.746-0.263-1.363C159.223,171.999,159.336,172.556,159.336,172.745
			c0,0.113-0.063,0.211-0.133,0.297C159.272,172.956,159.336,172.863,159.336,172.745z"/>
	</g>
	<path fill="#5B6A7F" d="M267.72,50.351c0.525,0,4.312-0.281,4.312-1.035c0-0.859-1.818-1.433-2.537-1.433
		c-0.817,0-2.256,1.033-2.256,1.896C267.24,50.069,267.431,50.351,267.72,50.351z"/>
	<path fill="#5B6A7F" d="M254.14,53.916c0.241,0,0.482-0.287,0.482-0.57c0-0.349-0.291-0.462-0.339-0.691h-1.586
		C252.984,53.346,253.467,53.916,254.14,53.916z"/>
	<path fill="#5B6A7F" d="M208.468,35.694c0.344,0,0.413-0.422,0.463-0.76l0.015,0.012l-0.013-0.019
		c0.007-0.03,0.009-0.066,0.013-0.094h-0.095l-0.383-0.462c-0.197,0.286-0.387,0.517-0.387,0.865
		C208.081,35.579,208.231,35.694,208.468,35.694z"/>
	<path fill="#5B6A7F" d="M176.897,38.569c-0.479,0-1.056,0.287-1.056,0.859c0,0.517,0.529,0.693,1.056,0.693
		c0.389,0,0.692-0.153,1.001-0.349c0.059-0.095,0.102-0.202,0.102-0.345C178,38.742,177.566,38.569,176.897,38.569z"/>
	<path fill="#5B6A7F" d="M178,39.717c-0.034,0.023-0.069,0.035-0.102,0.057c-0.083,0.137-0.2,0.243-0.282,0.349L178,39.717z"/>
	<path fill="#5B6A7F" d="M158.906,26.611c0,0.575,0.141,0.859,0.719,0.859l2.541-0.859c0,0,1.49-0.291,1.675-0.291
		c0.871,0.178,3.362-0.055,3.362-1.437c0-0.804-1.968-2.296-2.637-2.296c-0.333,0-0.528,0.459-0.867,0.574
		c0.394-0.46,0.142-0.46,0.142-1.267h-0.621c-1.916,0-2.349,2.127-3.451,3.45C159.479,25.691,158.906,25.691,158.906,26.611z"/>
	<path fill="#5B6A7F" d="M147.296,19.713c0,0.517,0.669,1.438,0.958,1.438c0.576,0,2.159-0.114,2.253-1.149
		c-0.335-0.11-1.677-0.864-1.918-0.864C148.302,19.137,147.296,19.137,147.296,19.713z"/>
	<path fill="#5B6A7F" d="M153.862,19.539c-1.531,0.575-2.009,1.206-3.595,1.838c0.719,0.46,1.968,2.07,2.544,2.07
		c1.729,0,3.262,1.035,5.373,1.035c0.437,0,0.958-0.348,0.958-0.86c0-0.401-0.38-0.575-0.721-0.695
		c0.291-0.111,0.964-0.169,0.964-0.744c0-0.576-0.096-0.691,0.383-1.146c-0.626-0.75-0.626-1.146-1.584-1.146h-0.96
		c-0.578,0-0.866-0.578-1.442-0.578c-0.378,0-0.525-0.176-1.003,0c0.384-0.232,0.912-0.694,0.912-1.04c0-0.287,0.046-0.458,0-1.148
		c0.19,0.058,0.091,0.171,0.58-0.056c-0.773-0.69-1.54-2.243-2.885-2.243c-2.305,0-3.02,2.704-5.037,3.391
		c1.245,0.75,2.159,1.212,3.504,1.212C152.14,19.428,153.387,19.539,153.862,19.539z"/>
	<path fill="#5B6A7F" d="M153.771,31.209c0.575,0,0.862-0.343,0.96-1.147h-0.722c-0.195,0.17-0.432,0.4-0.721,0.574
		C153.341,30.92,153.532,31.209,153.771,31.209z"/>
	<path fill="#5B6A7F" d="M148.015,15.57l-0.146-0.456h-1.776C146.38,15.863,147.296,15.688,148.015,15.57z"/>
	<path fill="#5B6A7F" d="M169.701,27.067c0.334,0,0.575-0.454,0.621-0.86c-0.433,0.234-0.571-0.057-1.586,0.172
		C168.878,26.667,169.123,27.067,169.701,27.067z"/>
	<path fill="#5B6A7F" d="M91.735,18.272c-0.12,0.113-0.23,0.181-0.337,0.233v0.23L91.735,18.272z"/>
	<path fill="#5B6A7F" d="M86.7,17.124c0.435,0,0.671,0.347,1.099,0.518c-0.238,0.23-0.479,0.344-0.719,0.521
		c0.195,0.054,0.433,0.11,0.86,0.11c-0.38,0.113-0.621,0.231-1.004,0.464c0.144,0.516,0.624,0.691,1.343,0.691h-0.044
		c0.14,0.227,0.285,0.515,0.526,0.573c0.432,0.055,0.527-0.98,0.958-1.265c0.655-0.442,1.068,0.07,1.679-0.23v-0.344
		c0.146,0.054,0.337,0.054,0.484,0c0.571-0.521,1.194,0,1.292-1.038c-0.284-0.113-0.864-0.574-1.439-0.574
		c-0.72,0-1.054,0.745-1.771,0.745c-0.917,0-1.59-0.745-2.787-0.745c-1.006,0-3.265,0.172-3.694,1.092
		c0.385,0.06,0.671,0.23,1.056,0.23C85.262,17.872,86.172,17.124,86.7,17.124z"/>
	<path fill="#5B6A7F" d="M109.491,16.839c0.333,0,2.203-0.461,2.539-0.749l-0.671-1.836c-0.717,0-2.688,0.918-2.688,1.722
		C108.671,16.549,108.909,16.839,109.491,16.839z"/>
	<path fill="#5B6A7F" d="M106.848,18.272l-0.238-0.687c0.428,0,0.912,0.229,1.201-0.289c0-0.229,0.041-0.341,0-0.859
		c-0.435,0.111-1.247,0.059-1.536,0c0.098,0,0.385-0.172,0.48-0.462h-1.586c0,0.109-0.05,0.29,0,0.747
		c-0.575,0.233-0.955,0.689-0.955,1.55C104.214,18.56,106.563,18.447,106.848,18.272z"/>
	<path fill="#5B6A7F" d="M101.812,18.162c-0.48,0-2.398,0.345-2.398,1.15c0,0.227,0.241,0.4,0.478,0.4c0.431,0,0.624,0,0.722-0.576
		c0.289,0,0.671,0.576,0.958,0.576c0.673,0,0.623-0.862,1.583-0.862C102.914,18.446,102.435,18.162,101.812,18.162z"/>
	<path fill="#5B6A7F" d="M101.57,17.011c0.527,0,1.056,0.113,1.438-0.229c-1.051-0.516-1.388-0.636-2.734-0.863
		c0.482-0.573,1.442-0.923,2.209-1.499c0-0.286,0.236-0.572,0.432-0.74c0-0.175-0.048-0.695-0.143-0.695
		c-0.431,0-0.765,0.462-0.814,0.978c-1.393,0-1.442,1.15-2.876,1.15v0.752c0.476-0.35,0.282-0.118,0.81,0.112h-2.013
		c-0.244,0.225-0.337,0.344-0.622,0.635c0.096,0.057,2.058,1.09,2.398,1.09C100.228,17.7,100.997,17.011,101.57,17.011z"/>
	<path fill="#5B6A7F" d="M38.96,23.334c0.146,0,0.241,0.169,0.383,0.229c-0.191,0.919,0.532,1.382,1.345,1.898
		c-0.148,0-0.239,0.059-0.383,0.119c0.234,0.571,0.763,0.91,1.534,0.91c1.008,0,1.008-1.262,1.438-1.546h0.389
		c0.191,0.169,0.617,0.517,0.717,0.517h1.244c-0.525,0.515-1.819,1.205-2.443,1.436c-0.243,0.057-1.344,0.057-1.344,0.573
		c0,1.382,1.244,0.748,1.826,0.748c0.33,0,1.868,0.061,2.152,0.288c-0.577,0.17-1.102,0-1.579,0.463c0,0-1.104-0.172-1.776-0.058
		c0,1.954,2.591,2.699,3.74,3.62c0.676-0.802,0.575-2.416,1.393-3.164c0.24-0.227,0.623-0.114,0.725-0.456
		c0.479-1.495,1.004-4.028,2.633-4.028c0,0,0.385,0.749,1.153,0.867c-0.238,0-0.432,0.054-0.671,0.113
		c0.188,0.456,0.625,1.494,0.956,1.606c-0.09,0.865-0.619,0.577-0.717,1.612c0.627,0.059,1.631,0,2.204,0.112
		c-0.144,0.29-0.144,0.576-0.046,1.036c1.201-0.46,1.725-1.434,3.024-1.952c-0.433-0.747-1.823-0.29-1.823-2.072h-1.535
		c0.146-0.23,0.096-0.574,0-0.861c-0.337,0.058-0.48,0.116-0.862,0c0.141,0,0.334,0,0.479-0.061
		c-0.479-0.685-3.021-2.411-3.842-2.411c-0.142,0-0.337-0.059-0.476-0.059c0.096-0.461,0.188-1.376-0.58-1.376
		c-0.383,0-0.48,0.513-0.858,0.743c0-0.4,0.138-0.743,0.138-1.146c0-0.573-1.295-1.146-1.916-1.146s-0.958,0-0.958,0.854
		c0,1.092,0.282,1.609,0.575,2.534c-1.203-0.523-0.866-2.534-2.165-2.534c-0.426,0-0.812,0.462-0.812,0.977
		c0,0.35,0.146,0.633,0.334,0.749c-0.334-0.399-0.81-0.399-1.292-0.859c0.142-0.292,0.339-0.461,0.576-0.807
		c-1.104-0.228-1.632-0.228-2.402-0.228c-0.477,0-1.484,1.09-1.675,1.375C38.094,22.354,38.621,23.334,38.96,23.334z"/>
	<path fill="#5B6A7F" d="M48.459,20.229c-0.098,1.322,0.864,0.632,1.681,0.632c0.096,0,2.062,0.175,2.255,0.175
		c-0.241,0.114-0.771,0.114-1.201,0.283c-0.096,0-0.626,0-0.958,0.058c0.05,0.46,0.189,0.753,0.619,0.924h2.734
		c0.339,0.688,0.819,1.033,1.68,1.033c1.39,0,3.794-2.015,4.945-2.932c-0.284-0.689-1.203-1.552-2.163-1.552h-1.577
		c-0.724,0-1.008,0.575-1.44,0.575c-0.102-0.405,0-0.688,0-1.438h-0.575c-0.239,0.23-0.626,1.324-1.199,1.324
		c-0.241,0-1.636-0.81-1.922-1.153h-1.34l0.238,0.578h-0.812v0.283c-0.291,0.175-0.678,0.057-0.964-0.17h-0.722
		C47.785,19.426,48.076,19.891,48.459,20.229z"/>
	<path fill="#5B6A7F" d="M39.391,26.491c-0.326-1.226-0.967-1.482-1.575-2.389C37.099,24.641,38.474,26.22,39.391,26.491z"/>
	<path fill="#5B6A7F" d="M37.905,24.022c-0.04,0.019-0.055,0.051-0.083,0.075l0.083,0.098V24.022z"/>
	<path fill="#5B6A7F" d="M37.759,24.022c0.02,0.03,0.037,0.051,0.057,0.08c0.005-0.003,0.005-0.005,0.007-0.005L37.759,24.022z"/>
	<path fill="#5B6A7F" d="M9.885,98.754c0,0.697,0.622,1.322,1.197,1.322c0.289,0,0.676-0.052,0.912-0.224
		c0.387-0.291,0.958-1.266,1.731-1.266c0.474,0,0.955,0.055,1.246-0.287c0.381-0.463,0.048-1.153,0.048-1.614v-1.952
		c0-0.46,0.862-0.399,0.862-0.862c0-0.981-0.529-2.356-1.633-2.356h-0.814c-0.482,0-1.44,0.688-1.44,1.091
		c0,0.284,0.098,0.401,0.289,0.745c-0.289,0.347-1.105,0.633-1.391,0.633c-0.143,0-0.529-0.112-0.529,0.635
		c0,0.575,0.435,0.921,0.912,1.205C11.082,97.205,9.885,97.318,9.885,98.754z"/>
	<path fill="#5B6A7F" d="M14.199,85.534c0.534,0,0.916-0.688,0.916-1.318c-0.382,0-1.198,0.285-1.198,0.63
		C13.917,85.076,14.056,85.534,14.199,85.534z"/>
	<path fill="#5B6A7F" d="M15.736,87.203v0.459c0,0.056-0.334,0.459-0.334,0.744c0,0.234,0.43,0.406,0.717,0.463v0.516
		c-0.142,0.116-0.191,0.229-0.191,0.403v0.924h0.387c-0.096-0.232-0.241-0.403,0-0.867c0.146,0.114,0.435,0.288,0.816,0.288
		c-0.146,0.458,0,0.579,0,1.095c0,0.456-0.479,0.749-0.479,1.207c0,0.455,0.334,0.455,0.767,0.455c0.385,0,0.626-0.283,1.104-0.283
		c0.141,0,0.286,0.055,0.43,0.055c-0.096,0.229-0.334,0.346-0.334,0.804c0,0.579,0.667,0.697,1.153,0.632v0.862
		c-0.239,0.58-1.299,1.093-2.161,1.093c0,0.634,0.387,0.923,0.387,1.673c0,0.858-1.345,0.918-1.345,1.78
		c0,0.113,0.141,0.287,0.238,0.287c0.241,0,0.191-0.287,0.482-0.287c0.525,0,0.719,0.691,1.341,0.691
		c0.339,0,0.669-0.23,0.864-0.578c0,0.113,0.098,0.289,0.098,0.406c0,0.799-0.962,0.52-1.631,0.743
		c-0.146,0.056-1.584,1.896-1.684,2.128v0.348h0.334c0.195-0.232,0.337-0.46,0.678-0.46h0.672c0-0.464,0.284-0.978,0.764-0.978
		c0.337,0,0.53,0.343,0.867,0.343c0.719,0,2.011-0.515,2.493-0.515h1.918c0.576,0,0.915-0.349,1.343-0.866v-0.397
		c-0.287,0-0.476-0.063-0.96-0.232c0.384-0.748,1.54-1.265,1.54-2.301c0-0.571-0.438-1.09-1.008-1.09
		c-0.387,0-0.294-0.062-0.628,0.228l0.241-0.228c-0.191,0.112-0.241,0.287-0.576,0.401v-0.401c0.148-0.062,0.237-0.23,0.237-0.406
		c0-0.454-0.523-0.747-0.523-1.208c0-1.374-1.249-1.782-2.016-2.698c-0.578-0.691-0.433-2.069-1.343-2.417
		c-0.387-0.115-0.623,0.115-1.109-0.059c0.054-0.222,0.199-0.399,0.391-0.458c0-1.212,1.483-1.896,1.292-3.508h-2.83
		c-0.093-0.17-0.141-0.285-0.141-0.459c0.141-0.801,1.196-0.688,1.196-1.489c0-0.115-0.289-0.52-0.479-0.52h-1.389
		c-0.293,0-0.771,0.458-0.771,0.743c0,0.291-0.193,0.517-0.193,0.978c-0.33,0-0.669,0.229-0.669,0.69
		c0,0.114,0.141,0.291,0.236,0.346c0,0.114-0.096,0.341-0.191,0.341c-0.093,0-0.334-0.169-0.334-0.51h-0.767
		C14.636,86.857,15.02,87.029,15.736,87.203z"/>
	<path fill="#5B6A7F" d="M17.37,93.697c-0.287,0.174-0.339,0.401-0.339,0.69h0.53c0-0.289,0.048-0.517,0.048-0.69H17.37z"/>
	<path fill="#5B6A7F" d="M213.022,37.996c0.479,0,0.722-0.52,1.054-0.867c0.241,0.348,0.435,0.572,0.864,0.572
		c0.48,0,0.767-0.456,1.056-0.456c0.389,0,0.578-0.405,0.96-0.405c0.337,0,0.53,0.577,0.869,0.577c0.571,0,0.812-0.577,1.194-0.577
		h1.297c0-0.457,0.671-1.091,0.86-1.894c-1.002-0.342-3.834-1.552-4.698-1.552c-0.573,0-0.812,0.692-0.812,1.552
		c-1.299,0-1.396-1.841-2.882-1.841c-1.008,0-2.159,0.981-2.159,2.296C210.625,36.787,211.776,37.996,213.022,37.996z"/>
	<path fill="#5B6A7F" d="M44.146,127.296c-0.724-0.178-1.011,0.379-1.634,0.379c-0.673,0-1.107-0.751-2.113-0.178v0.405
		c0.141,0.285,0.525,0.229,0.669,0.285c0.771,0.289,1.395,1.268,2.209,1.495c0,0.171,0.243,0.236,0.385,0.236
		c0.146,0,0.288-0.236,0.288-0.404c0-0.459-0.243-0.518-0.243-0.926c0-0.229,0.243-0.627,0.243-0.627L44.146,127.296z"/>
	<path fill="#5B6A7F" d="M36.032,120.891c0.144-0.347,0.287-1.611,0.433-2.297c-0.146-0.062-0.195-0.348-0.195-0.637
		c-0.237,0.059-0.429,0.573-0.765,0.573c-0.094,0-0.243,0.117-0.337,0.117C35.411,119.104,35.553,120.777,36.032,120.891z"/>
	<path fill="#5B6A7F" d="M35.312,123.25c0,0.401-0.237,0.685-0.285,1.148c0,0.461,0,1.202,0.479,1.202
		c0.382,0,1.255-0.811,1.255-1.612c0-0.922,0.122-1.439-0.295-2.354c-0.146,0-0.289-0.339-0.624-0.339
		c-0.43,0-0.479,0.569-1.008,0.748C34.884,122.495,35.312,122.783,35.312,123.25z"/>
	<path fill="#5B6A7F" d="M28.115,124.514c0-0.175-0.241-0.522-0.241-0.632c-0.286,0.053-0.478,0.223-0.765,0.402
		c0.048,0.055,0.433,0.513,0.621,0.513C27.874,124.797,28.115,124.683,28.115,124.514z"/>
	<path fill="#5B6A7F" d="M38.287,91.977c0-0.582-0.335-0.464-0.335-1.153h-0.914v0.571c0,0.582,0.53,0.754,1.104,0.754v0.457
		C38.189,92.314,38.287,92.435,38.287,91.977z"/>
	<path fill="#5B6A7F" d="M38.86,92.553l-0.091-0.234c-0.053,0.056-0.193,0.171-0.241,0.287c0.048,0.056,0.332,0.345,0.673,0.345
		c1.056,0,0.674-2.014,1.486-2.303c-0.239-0.972-0.289-1.492-1.247-1.492c-0.335,0-0.912,1.492-0.912,1.729
		c0,0.343,0.527,0.799,1.006,0.918C39.534,92.09,39.201,92.489,38.86,92.553z"/>
	<path fill="#5B6A7F" d="M49.176,84.957c-0.856,0.061-1.1,1.094-1.1,1.436c0,0.289-0.147,0.521,0,0.752
		c0.339-0.521,0.722-0.803,0.722-1.437C48.798,85.415,49.08,85.19,49.176,84.957z"/>
	<path fill="#5B6A7F" d="M53.498,84.677c0.191,0,0.812-0.408,0.812-0.577v-0.691c0.098-0.059,0.341-0.456,0.384-0.749
		c-0.187-0.113-0.286-0.23-0.527-0.574c0,0-0.428,0.294-0.428,0.574c0,0.293,0.188,0.463,0.334,0.69
		c-0.384,0.059-0.675,0.401-1.056,0.458C53.018,84.157,53.063,84.677,53.498,84.677z"/>
	<path fill="#5B6A7F" d="M59.015,132.844c-0.818-0.286-1.97-0.569-3.025-0.343c0.532,0.343,1.44,0.457,1.824,0.457
		C58.152,132.958,58.392,133.249,59.015,132.844z"/>
	<path fill="#5B6A7F" d="M70.338,131.812c-0.814,0.167-2.063,0.747-2.78,1.146c0,0.114,0.142,0.291,0.239,0.291
		c0,0.173,0.188,0.288,0.337,0.288c0.432,0,1.342-0.288,1.489-0.63c0.042-0.183-0.057-0.518,0.092-0.578
		C70.001,132.155,70.244,132.39,70.338,131.812z"/>
	<path fill="#5B6A7F" d="M96.533,173.029c0.38,0,0.767-0.461,0.857-0.688c-0.616,0-0.951,0.111-1.388,0.287
		C96.058,172.911,96.388,173.029,96.533,173.029z"/>
	<path fill="#5B6A7F" d="M89.246,55.069c-0.101,0-0.626,1.09-0.626,1.318c0,0.578,0.28,0.688,0.862,0.688
		c0.814,0,1.391-0.573,2.014-0.971v-0.752c-0.674-0.11-1.01-0.861-1.684-0.861C89.573,54.492,89.482,55.069,89.246,55.069z"/>
	<path fill="#5B6A7F" d="M103.008,52.654c0,0.691,1.058,1.439,1.684,1.439c0,0,0.623,0.108,0.623-0.293
		C105.314,52.654,103.008,51.504,103.008,52.654z"/>
	<path fill="#5B6A7F" d="M120.662,43.398c-0.476-0.46-0.619-1.097-1.194-1.097c-0.433,0-0.721,0.637-0.721,1.151
		c0,0.176-0.14,0.575,0,0.575C119.32,44.028,120.428,43.629,120.662,43.398z"/>
	<path fill="#5B6A7F" d="M217.914,42.876h1.44c-0.05-1.316-1.008-2.297-2.255-2.297c-1.104,0-1.729,0.811-2.305,1.723l0.243-0.284
		C215.95,42.42,217.054,42.302,217.914,42.876z"/>
	<path fill="#5B6A7F" d="M227.413,37.816c0.772,0,2.163-0.224,2.163-0.857c0-0.286-0.195-0.578-0.482-0.578
		c-0.187,0-5.229-0.745-5.662-1.144l0.478,0.455C223.909,37.128,226.17,37.816,227.413,37.816z"/>
	<path fill="#5B6A7F" d="M215.996,39.831c0-0.805-1.292-0.92-1.292,0c0,0.522,0.041,0.748,0.575,0.748
		C215.616,40.579,215.996,40.295,215.996,39.831z"/>
</g>
<path fill="none" stroke="#A9DDF3" stroke-width="0.556" stroke-miterlimit="10" d="M189.045,141.237"/>
<g>
	<circle fill="#5FCCE0" stroke="#FFFFFF" stroke-miterlimit="10" cx="170.181" cy="174.888" r="2.725"/>
</g>
<g>
	<circle fill="#5FCCE0" stroke="#FFFFFF" stroke-miterlimit="10" cx="163.792" cy="168.149" r="2.725"/>
</g>
<g>
	<circle fill="#5FCCE0" stroke="#FFFFFF" stroke-miterlimit="10" cx="167.093" cy="155.251" r="2.725"/>
</g>
<g>
	<circle fill="#5FCCE0" stroke="#FFFFFF" stroke-miterlimit="10" cx="184.351" cy="142.677" r="2.725"/>
</g>
<g>
	<circle fill="#5FCCE0" stroke="#FFFFFF" stroke-miterlimit="10" cx="172.279" cy="164.425" r="2.725"/>
</g>
<g>
	<circle fill="#5FCCE0" stroke="#FFFFFF" stroke-miterlimit="10" cx="188.607" cy="162.562" r="2.726"/>
</g>
<g>
	<circle fill="#FF0000" stroke="#FFFFFF" stroke-miterlimit="10" cx="188.607" cy="150.228" r="2.726"/>
</g>
<g>
	<circle fill="#FF0000" stroke="#FFFFFF" stroke-miterlimit="10" cx="187.074" cy="142.677" r="2.725"/>
</g>
<g>
	<circle fill="#5FCCE0" stroke="#FFFFFF" stroke-miterlimit="10" cx="165.847" cy="201.774" r="3.057"/>
</g>
<g>
	<circle fill="#5FCCE0" stroke="#FFFFFF" stroke-miterlimit="10" cx="59.016" cy="244.094" r="3.009"/>
</g>
</svg>
