<?xml version="1.0" encoding="utf-8"?>
<!-- Generator: Adobe Illustrator 16.0.0, SVG Export Plug-In . SVG Version: 6.00 Build 0)  -->
<!DOCTYPE svg PUBLIC "-//W3C//DTD SVG 1.1//EN" "http://www.w3.org/Graphics/SVG/1.1/DTD/svg11.dtd">
<svg version="1.1" id="Layer_1" xmlns="http://www.w3.org/2000/svg" xmlns:xlink="http://www.w3.org/1999/xlink" x="0px" y="0px"
	 width="150px" height="150px" viewBox="0 0 150 150" enable-background="new 0 0 150 150" xml:space="preserve">
<rect fill="#FFFFFF" width="150" height="150"/>
<g>
	<path fill="#1C2C42" d="M32.388,55.469v7.93l-9.863,6.574c-0.553,0.367-0.853,1.014-0.781,1.671l5.327,47.938
		c0.099,0.902,0.858,1.582,1.764,1.582h28.408c0.906,0,1.667-0.68,1.765-1.582l5.326-47.938c0.075-0.657-0.228-1.304-0.78-1.671
		l-9.861-6.574V55.47c0-4.894-3.982-8.878-8.877-8.878h-3.551C36.37,46.592,32.388,50.576,32.388,55.469z M35.94,64.347V55.47
		c0-2.935,2.39-5.326,5.326-5.326h3.551c2.937,0,5.327,2.391,5.327,5.326v8.877c0,0.594,0.296,1.148,0.791,1.476l9.754,6.502
		l-5.033,45.287H30.428l-5.033-45.287l9.754-6.502C35.642,65.495,35.94,64.941,35.94,64.347z"/>
	<rect x="41.266" y="53.694" fill="#1C2C42" width="3.551" height="3.551"/>
	<rect x="41.266" y="67.897" fill="#1C2C42" width="3.551" height="3.551"/>
	<rect x="41.266" y="75" fill="#1C2C42" width="3.551" height="3.552"/>
	<rect x="41.266" y="82.102" fill="#1C2C42" width="3.551" height="3.551"/>
	<rect x="41.266" y="89.205" fill="#1C2C42" width="3.551" height="3.55"/>
	<rect x="41.266" y="96.306" fill="#1C2C42" width="3.551" height="3.55"/>
	<rect x="41.266" y="103.408" fill="#1C2C42" width="3.551" height="3.551"/>
	<rect x="41.266" y="110.51" fill="#1C2C42" width="3.551" height="3.55"/>
	<rect x="34.164" y="82.102" fill="#1C2C42" width="3.551" height="3.551"/>
	<rect x="48.368" y="82.102" fill="#1C2C42" width="3.551" height="3.551"/>
	<rect x="41.266" y="60.795" fill="#1C2C42" width="3.551" height="3.551"/>
	<path fill="#1C2C42" d="M122.583,27.771c-0.427-0.571-1.152-0.836-1.849-0.657l-6.602,1.65l-4.838-1.609
		c-0.538-0.188-1.132-0.094-1.592,0.239l-12.429,8.876c-0.743,0.527-0.962,1.531-0.511,2.326l5.587,9.771h-5.819
		c-0.606,0-1.167,0.304-1.493,0.815c-0.328,0.505-0.373,1.146-0.123,1.694l8.593,18.907l-15.771,49.061
		c-0.173,0.542-0.078,1.129,0.257,1.59c0.334,0.456,0.87,0.728,1.435,0.728h39.061c0.982,0,1.775-0.793,1.775-1.775V69.673V35.939
		c0-0.385-0.124-0.76-0.354-1.064L122.583,27.771z M103.408,51.919c0.632,0,1.218-0.336,1.536-0.883
		c0.316-0.548,0.32-1.223,0.007-1.775l-6.308-11.036l10.389-7.418l4.469,1.486c0.319,0.109,0.663,0.122,0.993,0.039l5.953-1.489
		l4.267,5.687v31.368h-20.163l-7.263-15.979H103.408z M124.714,117.612H89.865l14.837-46.163h20.012V117.612z"/>
	<rect x="108.734" y="51.919" fill="#1C2C42" width="3.551" height="3.55"/>
	<rect x="115.837" y="51.919" fill="#1C2C42" width="3.551" height="3.55"/>
	
		<rect x="107.842" y="44.606" transform="matrix(0.8947 -0.4467 0.4467 0.8947 -9.2678 53.8681)" fill="#1C2C42" width="3.552" height="3.969"/>
	
		<rect x="106.065" y="37.498" transform="matrix(0.8947 -0.4467 0.4467 0.8947 -6.2804 52.3266)" fill="#1C2C42" width="3.553" height="3.971"/>
	
		<rect x="116.513" y="44.82" transform="matrix(0.447 -0.8945 0.8945 0.447 23.8459 131.7659)" fill="#1C2C42" width="3.969" height="3.553"/>
	<rect x="103.408" y="96.306" fill="#1C2C42" width="3.551" height="3.55"/>
	<rect x="110.51" y="96.306" fill="#1C2C42" width="3.55" height="3.55"/>
	<rect x="117.612" y="96.306" fill="#1C2C42" width="3.551" height="3.55"/>
	
		<rect x="118.652" y="37.716" transform="matrix(0.7072 -0.707 0.707 0.7072 7.5552 97.2268)" fill="#1C2C42" width="5.022" height="3.551"/>
	<rect x="21.735" y="30.613" fill="#1C2C42" width="3.551" height="10.652"/>
	<rect x="28.837" y="34.164" fill="#1C2C42" width="3.551" height="3.551"/>
	<rect x="35.94" y="34.164" fill="#1C2C42" width="3.549" height="3.551"/>
	<rect x="43.04" y="34.164" fill="#1C2C42" width="3.551" height="3.551"/>
	<rect x="50.143" y="34.164" fill="#1C2C42" width="3.55" height="3.551"/>
	<rect x="57.245" y="34.164" fill="#1C2C42" width="3.551" height="3.551"/>
	<rect x="64.347" y="30.613" fill="#1C2C42" width="3.55" height="10.652"/>
	<rect x="73.224" y="23.511" fill="#1C2C42" width="10.653" height="3.55"/>
	<rect x="76.776" y="30.613" fill="#1C2C42" width="3.551" height="3.551"/>
	<rect x="76.776" y="37.714" fill="#1C2C42" width="3.551" height="3.55"/>
	<rect x="76.776" y="44.816" fill="#1C2C42" width="3.551" height="3.551"/>
	<rect x="76.776" y="51.919" fill="#1C2C42" width="3.551" height="3.55"/>
	<rect x="76.776" y="59.021" fill="#1C2C42" width="3.551" height="3.551"/>
	<rect x="76.776" y="66.123" fill="#1C2C42" width="3.551" height="3.549"/>
	<rect x="76.776" y="73.224" fill="#1C2C42" width="3.551" height="3.551"/>
	<rect x="76.776" y="80.327" fill="#1C2C42" width="3.551" height="3.55"/>
	<rect x="76.776" y="87.429" fill="#1C2C42" width="3.551" height="3.551"/>
	<rect x="76.776" y="94.531" fill="#1C2C42" width="3.551" height="3.55"/>
	<rect x="76.776" y="101.632" fill="#1C2C42" width="3.551" height="3.551"/>
	<rect x="76.776" y="108.735" fill="#1C2C42" width="3.551" height="3.55"/>
	<rect x="76.776" y="115.837" fill="#1C2C42" width="3.551" height="3.551"/>
	<rect x="73.224" y="122.939" fill="#1C2C42" width="10.653" height="3.55"/>
	<rect x="108.734" y="59.021" fill="#1C2C42" width="3.551" height="3.551"/>
	<rect x="115.837" y="59.021" fill="#1C2C42" width="3.551" height="3.551"/>
	<rect x="110.51" y="89.205" fill="#1C2C42" width="3.55" height="3.55"/>
	<rect x="110.51" y="82.102" fill="#1C2C42" width="3.55" height="3.551"/>
	<rect x="110.51" y="103.408" fill="#1C2C42" width="3.55" height="3.551"/>
	<rect x="110.51" y="110.51" fill="#1C2C42" width="3.55" height="3.55"/>
	<rect x="110.51" y="75" fill="#1C2C42" width="3.55" height="3.552"/>
</g>
</svg>
