<?xml version="1.0" encoding="utf-8"?>
<!-- Generator: Adobe Illustrator 16.0.0, SVG Export Plug-In . SVG Version: 6.00 Build 0)  -->
<!DOCTYPE svg PUBLIC "-//W3C//DTD SVG 1.1//EN" "http://www.w3.org/Graphics/SVG/1.1/DTD/svg11.dtd">
<svg version="1.1" id="Layer_1" xmlns="http://www.w3.org/2000/svg" xmlns:xlink="http://www.w3.org/1999/xlink" x="0px" y="0px"
	 width="150px" height="150px" viewBox="0 0 150 150" enable-background="new 0 0 150 150" xml:space="preserve">
<rect fill="#FFFFFF" width="150" height="150"/>
<g>
	<g>
		<path fill="none" stroke="#1C2C42" stroke-width="2" stroke-miterlimit="10" d="M52.511,45.838l0.067,0.174
			c0.205,0.523,0.408,1.045,0.527,1.602c0.289,0.49,0.493,1.013,0.696,1.535L71,93.227c2.074,5.316,1.123,11.105-2.006,15.438
			l23.672-9.234c4.791-1.871,7.098-7.285,5.262-11.99L76.448,32.385c-1.87-4.793-7.287-7.095-11.991-5.26l-22.453,8.761
			C46.612,37.398,50.574,40.872,52.511,45.838z"/>
		<path fill="#1C2C42" stroke="#1C2C42" stroke-width="2" stroke-miterlimit="10" d="M52.261,118.002l9.496-3.703
			c0.522-0.203,1.045-0.41,1.533-0.699l0.035,0.086l30.293-11.818c6.1-2.379,9.127-9.281,6.748-15.379l-21.48-55.055
			c-2.379-6.1-9.279-9.128-15.38-6.748L37.045,35.009c-2.136-0.069-4.396,0.31-6.574,1.159l-8.101,3.16
			c-8.711,3.399-13.069,13.33-9.669,22.041l0.068,0.174c0.204,0.523,0.408,1.045,0.699,1.535c0.116,0.557,0.321,1.079,0.524,1.602
			l17.197,44.08C34.452,117.123,43.898,121.266,52.261,118.002z M64.458,27.125c4.792-1.869,10.155,0.554,11.991,5.26l21.479,55.055
			c1.869,4.791-0.557,10.154-5.262,11.99l-23.672,9.234c3.129-4.332,4.08-10.121,2.006-15.438L53.802,49.148
			c-0.203-0.522-0.408-1.045-0.696-1.535c-0.12-0.557-0.323-1.078-0.527-1.602l-0.067-0.174c-1.903-4.878-5.899-8.439-10.506-9.952
			L64.458,27.125z M15.141,60.417c-2.889-7.403,0.777-15.759,8.182-18.648l8.101-3.16c7.406-2.89,15.762,0.775,18.65,8.181
			l0.068,0.174c2.889,7.404-0.776,15.762-8.182,18.65l-8.101,3.161c-7.404,2.89-15.761-0.778-18.65-8.183L15.141,60.417z
			 M18.472,68.955c4.555,3.441,10.675,4.465,16.337,2.256l8.102-3.16c5.663-2.209,9.473-7.107,10.495-12.725l15.158,38.852
			c2.752,7.057-0.789,14.963-7.757,17.682l-9.496,3.705c-7.056,2.754-14.962-0.787-17.68-7.758L18.472,68.955z"/>
		<path fill="#1C2C42" stroke="#1C2C42" stroke-width="2" stroke-miterlimit="10" d="M31.974,63.688l7.927-3.093
			c4.617-1.802,6.989-7.043,5.153-11.749c-1.835-4.703-7.042-6.988-11.748-5.152l-7.927,3.093
			c-4.617,1.801-6.989,7.043-5.154,11.747C22.062,63.238,27.357,65.488,31.974,63.688z M26.298,49.139l7.927-3.093
			c3.311-1.291,7.064,0.354,8.356,3.666c1.291,3.311-0.356,7.065-3.666,8.356l-7.927,3.092c-3.311,1.292-7.064-0.355-8.356-3.666
			C21.34,54.184,22.987,50.43,26.298,49.139z"/>
	</g>
	<g>
		<g>
			<path fill="#FFFFFF" d="M110.455,70.127c-15.465,0-28,12.536-28,28s12.535,28,28,28s28-12.536,28-28
				S125.92,70.127,110.455,70.127z"/>
		</g>
		<g>
			<path fill="#1C2C42" d="M110.455,70.127c-15.465,0-28,12.536-28,28s12.535,28,28,28s28-12.536,28-28
				S125.92,70.127,110.455,70.127z M110.455,122.627c-13.531,0-24.5-10.969-24.5-24.5s10.969-24.5,24.5-24.5s24.5,10.969,24.5,24.5
				S123.986,122.627,110.455,122.627z"/>
			<path fill="#1C2C42" d="M110.455,77.127c-11.598,0-21,9.402-21,21s9.402,21,21,21s21-9.402,21-21S122.053,77.127,110.455,77.127z
				 M110.455,115.627c-9.664,0-17.5-7.835-17.5-17.5s7.836-17.5,17.5-17.5s17.5,7.835,17.5,17.5S120.119,115.627,110.455,115.627z"
				/>
			<path fill="#1C2C42" d="M119.205,94.627c-1.242,0.008-2.389,0.673-3.011,1.75h-3.989v-3.989c1.674-0.968,2.248-3.107,1.281-4.782
				c-0.967-1.674-3.107-2.248-4.781-1.28c-1.674,0.966-2.248,3.106-1.281,4.78c0.307,0.533,0.75,0.975,1.281,1.282v3.989h-3.99
				c-0.967-1.674-3.107-2.248-4.781-1.281s-2.248,3.107-1.281,4.781s3.107,2.248,4.781,1.281c0.533-0.308,0.975-0.749,1.281-1.281
				h3.99v3.989c-1.674,0.968-2.248,3.107-1.281,4.782c0.967,1.674,3.107,2.248,4.781,1.28c1.674-0.966,2.248-3.106,1.281-4.78
				c-0.308-0.533-0.75-0.975-1.281-1.282v-3.989h3.989c0.968,1.674,3.108,2.248,4.782,1.281s2.248-3.107,1.28-4.781
				C121.628,95.287,120.463,94.619,119.205,94.627z"/>
		</g>
	</g>
</g>
</svg>
