<?xml version="1.0" encoding="utf-8"?>
<!-- Generator: Adobe Illustrator 16.0.0, SVG Export Plug-In . SVG Version: 6.00 Build 0)  -->
<!DOCTYPE svg PUBLIC "-//W3C//DTD SVG 1.1//EN" "http://www.w3.org/Graphics/SVG/1.1/DTD/svg11.dtd">
<svg version="1.1" id="Isolation_Mode" xmlns="http://www.w3.org/2000/svg" xmlns:xlink="http://www.w3.org/1999/xlink" x="0px"
	 y="0px" width="222.855px" height="291.005px" viewBox="0 0 222.855 291.005" enable-background="new 0 0 222.855 291.005"
	 xml:space="preserve">
<g>
	<path fill="#EEEEEE" d="M215.132,93.416c0,0.697,0.621,1.322,1.196,1.322c0.289,0,0.678-0.052,0.912-0.224
		c0.387-0.291,0.958-1.266,1.731-1.266c0.476,0,0.956,0.055,1.247-0.287c0.382-0.463,0.048-1.153,0.048-1.614v-1.952
		c0-0.459,0.862-0.399,0.862-0.862c0-0.981-0.528-2.356-1.632-2.356h-0.816c-0.482,0-1.44,0.688-1.44,1.091
		c0,0.284,0.098,0.401,0.289,0.745c-0.289,0.347-1.104,0.634-1.39,0.634c-0.144,0-0.53-0.113-0.53,0.634
		c0,0.575,0.435,0.921,0.914,1.205C216.328,91.867,215.132,91.98,215.132,93.416z"/>
	<path fill="#EEEEEE" d="M219.447,80.196c0.532,0,0.915-0.688,0.915-1.318c-0.383,0-1.197,0.285-1.197,0.63
		C219.165,79.738,219.304,80.196,219.447,80.196z"/>
	<path fill="#EEEEEE" d="M222.616,88.359c-0.286,0.174-0.339,0.401-0.339,0.69h0.53c0-0.289,0.048-0.517,0.048-0.69H222.616z"/>
	<path fill="#EEEEEE" d="M210.192,62.029l0.094-0.116c0-1.604-1.777-1.205-1.777-2.87c0-0.176,0.146-0.4,0.289-0.519
		c-0.428,0-0.721,0.291-1.149,0.291c-0.481,0-0.864-0.061-0.864-0.752c-0.191,0.174-0.191,0.115-0.53,0
		c-0.095,0.231-0.188,0.404-0.188,0.862c-0.433-0.518-1.01,0.172-1.631,0.172c-0.435,0-0.814-0.172-1.538-0.172
		c0,0.172-0.048,0.404,0,0.573c-0.189-0.11-0.289-0.288-0.669-0.401l-1.153,0.35c-0.287,0-0.433-0.291-0.626-0.521
		c-0.139,0.23-0.094,0.347,0,0.747c-0.238,0.061-0.527,0.347-0.86,0.347c-0.339,0-0.772-0.747-0.719-1.152
		c-0.054-0.343-0.243-0.515-0.289-0.859h-0.384c-0.383,0-0.48,0.635-0.862,0.635v0.455c-0.291-0.172-0.534-0.282-0.96-0.114
		c0.093,0.631,1.867,1.266,2.441,1.266c0,0.173,0.054,0.342,0.195,0.459c-0.528,0.232-1.772,0.518-2.498,0.518
		c0.486,0.577,1.301,0,2.067,0.23c-0.098,0.632-0.241,0.982-0.241,1.725c-0.143,0-0.284,0.172-0.43,0.287
		c1.056,0,1.44,0.805,2.109,1.037c1.294,0.518,2.545,1.036,4.315,1.036c1.634,0,2.546-0.979,3.697-1.441
		C208.654,63.869,209.81,62.837,210.192,62.029z"/>
	<path fill="#EEEEEE" d="M127.426,154.637c-0.337-0.166-0.573-0.973-1.104-1.15l-0.717-0.055c-0.048-0.108,0-0.284,0-0.401
		c-1.104,0-2.305-0.633-2.978-1.437c-0.092-0.112-0.48-0.69-0.814-0.69c-1.579,0-2.592-1.435-4.7-1.435
		c-2.161,0-3.167,0.975-3.937,2.528h0.435c0.476-0.57,1.774-1.38,2.685-1.38c0.241,0,0.48-0.059,0.672,0.176
		c-0.144,0.174-0.191,0.399,0.098,0.634h1.39c0.671,0,1.008,0.855,1.682,0.855c0.38,0,0.623-0.17,1.008,0.062
		c0.19,0.113,0.141,0.515,0.527,0.515c0.142,0.867,0.91,0.806,1.629,1.208c-0.043,0.285-0.241,0.517-0.478,0.517v0.349
		c0.91,0,1.679,0.398,2.782,0.398C126.182,155.33,127.089,155.33,127.426,154.637z"/>
	<path fill="#EEEEEE" d="M115.577,151.657v0.395c-0.144,0-0.432,0.118-0.432,0.518c0,0.113,0.625,0,0.671,0
		c0.1-0.287,0.048-0.572,0-0.86l-0.142-0.052H115.577z"/>
	<path fill="#EEEEEE" d="M122.293,157.805c0,0.462,0.387,0.862,0.767,0.862c0.578,0,1.008-0.229,1.584-0.341
		c-0.048-0.23-0.142-0.409-0.43-0.521l0.098,0.112c-0.287-0.112-0.958-0.462-1.536-0.462
		C122.582,157.455,122.293,157.576,122.293,157.805z"/>
	<path fill="#EEEEEE" d="M137.406,157.69c0,0.576,0.626,0.636,1.199,0.636c0.289,0,0.623,0,0.771-0.348
		c-0.148-0.347-1.297-0.642-1.438-0.642C137.791,157.337,137.406,157.394,137.406,157.69z"/>
	<path fill="#EEEEEE" d="M127.523,157.455c0,0.35,0.289,0.871,0.576,0.923c0-0.167,0.048-0.282,0.048-0.461
		c0.24,0.179,0.24,0,0.577,0c0.576,0,1.725-0.176,2.159,0.179c0.239,0.171,0.142,0.738,0.571,0.738c0.528,0,0.484-1.029,1.107-1.029
		c0.239,0,0.191,0.291,0.479,0.291c0.336,0,0.527-0.234,0.864-0.464h1.774c-0.337-0.574-0.812-0.807-1.292-1.268l0.236,0.232
		c-0.862-0.517-1.151-1.494-2.685-1.494c-0.528,0-0.816,0.231-1.438,0.231c-0.433,0-0.722-0.402-1.158-0.402
		c-0.142,0-0.382,0.225-0.382,0.402c0,0.34,0.339,0.632,0.623,0.632c0,0.451,0.05,0.859,0.337,1.207
		c-0.578,0.346-1.056,0.052-2.157,0.052C127.715,157.285,127.621,157.455,127.523,157.455z"/>
	<polygon fill="#EEEEEE" points="60.689,100.321 60.689,100.321 60.689,100.321 	"/>
	<g>
		<path fill="#EEEEEE" d="M181.736,199.312c0,4.25-1.951,5.377-3.243,7.734c-0.289,0.515-0.495,0.655-0.784,1.174
			c-0.482,0.862-1.01,0.978-1.487,1.555c-0.715,0.856-0.009,2.719-0.009,4.097c0,1.033-0.328,1.997-0.328,2.742
			c0,0.284-0.191,0.518-0.237,0.681c-0.193,0.293-0.625,0.872-0.625,1.33c0,0.571-0.146,1.726-0.241,1.953
			c-0.717,1.321-0.96,1.9-1.677,3.05c-0.193,0.339-0.146,1.032-0.246,1.258c-0.282,0.697-1.292,1.501-2.104,1.501
			c-0.912,0-1.636-0.06-2.35,0.34c-0.289,0.181-0.339,0.465-0.482,0.636c-1.149,1.382-2.353,0.579-3.213,2.179
			c-0.389,0.757-1.01,0.757-1.392,1.211c-0.624,0.75-0.528,1.56-0.528,2.654v2.697c-0.962,0.571-1.44,1.548-1.92,2.76v-0.057
			c-0.335,0.75-0.287,1.145-0.673,1.896c-0.863,1.546-1.823,1.722-2.64,3.212c-0.958,1.731-1.327,4.601-3.534,4.601
			c-0.769,0-1.837-0.628-2.176-0.628c-0.669,0-1.295-0.691-2.014-0.691c-0.146,0-0.383,0.115-0.383,0.29
			c0,0.52,0.72,0.8,0.862,0.972c0.385,0.463,0.385,1.095,0.576,1.782c0.146,0.638,0.912,0.638,0.912,1.263
			c0,0.699,0.004,1.076-0.237,1.531c-0.434,0.808-0.771,1.172-1.251,1.754c-0.814,0.972-1.822,0.69-2.974,1.155
			c-0.769,0.273-2.35-0.358-2.784,0.165c-0.623,0.744-0.144,2.469-0.478,3.276v0.573c0,0.285-0.77,0.689-1.102,0.689
			c-1.012,0-1.203-0.803-2.159-0.803c-0.337,0-0.484,0.398-0.484,0.69c0,0.806,0.578,2.299,1.006,2.299
			c0.243,0,0.53-0.353,0.678-0.402c0.191,0.228,0.43,0.291,0.43,0.573c0,0.345-0.382,0.749-0.481,0.749
			c-0.571,0-0.768-0.521-1.245-0.521c0,0.636,0.289,0.751,0.523,0.869c-0.86,1.029-0.86,2.063-1.148,3.502
			c-0.096,0.636-0.958,0.692-1.295,0.748c-0.767,0.23-1.438,1.029-1.438,2.011c0,2.24,2.154,1.442,2.154,3.227
			c0,1.608-1.196,1.779-1.868,2.581c-0.385,0.461-0.241,1.204-0.527,1.958c-0.337,0.806-1.104,0.457-1.536,0.974
			c-0.573,0.689-0.816,1.494-0.816,2.584c0,0.575,0.433,1.269,0.721,1.32c0.864,0.582,0.814,3.228,1.438,3.968
			c1.06,1.27,2.35,1.788,3.646,2.537c-0.191,0.338-0.479,0.168-0.767,0.168c-0.719,0-1.92,1.089-2.351,1.089h-0.529
			c-0.144,0-0.332,0.239-0.48,0.239h-1.342c-1.105,0-0.717-1.558-1.488-1.844c-0.719-0.285-1.776-0.285-1.776-1.317h-0.908
			c-0.385,0-0.482-0.465-0.53-0.755c-1.342,0-1.725-0.797-2.35-1.546c-0.144-0.178-0.431-0.467-0.431-0.581
			c0-0.513,0.86-0.459,0.908-0.974c-0.142-0.059-0.239-0.174-0.382-0.289c0.143-0.286,0.334-0.631,0.334-0.972
			c0-1.383-1.295-1.157-1.295-2.364v-0.804c0-1.26-0.721-3.279-0.721-4.256c0-1.029,1.107-1.435,1.107-2.356
			c0-0.453-0.577-1.38-0.673-2.006v-0.581h0.048c0-0.349,0.191-0.632,0.43-0.632c0.865,0,0.53,1.038,1.249,1.038l1.581-8.508v-0.867
			c-0.139,0-0.286-0.053-0.428,0c-0.337,0.174-0.387,0.635-0.721,0.635c-0.383,0-0.672-1.321-0.672-1.957
			c0-1.087,0.337-1.554,0.479-2.584c0.336,0,0.478-0.172,0.478-0.346c0-0.347-0.284-0.628-0.284-0.628
			c-0.193,0-0.241-1.609-0.241-2.016c0-1.322,0.673-2.646,1.104-3.45c0.193-0.399,0.286-1.213,0.527-1.612
			c0.144-0.226,0.387-0.171,0.435-0.401c0.335-1.324,0.335-2.296,0.623-3.68l-0.052-4.31c-0.282-1.036,0.241-1.841,0.241-2.757
			c0-2.184,1.105-3.626,1.105-5.58v-0.518c0-0.403,0.239-1.438,0.337-2.017v-2.521c0-0.81,0.43-2.361,0.43-3.282
			c0-0.573-0.239-3.967-0.382-4.601c-0.433-1.376-1.203-2.235-2.066-2.753c-0.719-0.402-1.244-0.288-1.776-0.917
			c-0.575-0.692-0.862-0.919-1.531-1.155c-1.347-0.516-2.016-1.323-2.88-2.359c-0.383-0.454-0.193-1.092-0.193-1.779
			c0-0.919-0.717-1.377-0.908-2.179c-0.385-1.389-1.345-2.424-1.684-3.686c-0.334-1.318-0.621-2.062-1.053-3.157
			c-0.144-0.342-0.479-0.235-0.621-0.401c-0.337-0.408-0.433-1.207-0.578-1.614c-0.144-0.346-0.528-0.228-0.719-0.456
			c-0.528-0.631-1.199-1.78-1.199-2.815c0-0.692,0.332-1.499,0.525-1.729c0.435-0.863,1.297-1.09,1.486-2.019
			c-0.429-0.338-0.381-0.057-0.717-0.057c-0.672,0-0.77-1.148-0.77-1.947c0-1.322,1.212-1.086,1.008-3.622
			c1.295,0,1.634-1.549,2.016-2.479c0.53-1.257,1.774-0.856,2.063-2.406c-0.236-0.115-0.479-0.405-0.479-0.58l0.19-0.455v-0.29
			c0-0.453-0.288-0.804-0.288-1.268c0-0.69,0.245-0.915,0.245-1.483c0-1.217-0.864-1.048-0.864-2.079
			c0-0.131,0.034-0.253,0.078-0.358c-0.053,0.044-0.1,0.072-0.117,0.062c-0.096-0.115-0.541-0.278-0.541-0.451
			c0-0.23,0.191-0.344,0.289-0.573c-0.526-0.292-0.669-1.036-1.197-1.036c-0.339,0-1.684,1.154-1.684,1.492
			c0,0.231,0.289,0.464,0.387,0.518c-0.098,0.579-0.339,0.869-0.721,0.869c-0.767,0-1.249-1.097-1.631-1.553
			c-0.335-0.402-1.106-0.061-1.44-0.061c-0.094,0-0.239-0.229-0.239-0.342c-0.671-0.18-0.671-0.75-0.862-1.214
			c-0.147-0.341-1.778-1.548-1.822-1.548c-0.098,0.174-0.098,0.403,0,0.518h-0.479c-0.724-0.573-0.244-1.377-0.482-2.238
			c-0.144-0.574-0.385-0.698-0.623-0.98c-0.77-0.926-1.584-1.442-1.868-2.818h-0.289c-0.337,0-0.578,0.288-0.915,0.288
			c-0.912,0-1.39-0.634-2.013-0.979c-0.913-0.515-1.582-0.228-2.544-0.799c-1.488-0.871-1.677-2.19-2.974-2.938h-0.289
			c-0.384-0.285-0.671-0.459-1.056-0.459c-0.864,0-1.008,1.153-1.824,1.153c-0.38,0-0.769-0.406-0.96-0.519
			c-0.382-0.232-0.717-0.122-1.102-0.122c-0.575,0-2.206-1.377-2.685-1.662c-0.529-0.288-0.866,0.056-1.395-0.118
			c-0.671-0.223-0.816-0.913-1.485-1.319c-0.623-0.341-0.96-0.228-1.583-0.568c-0.287-0.179-0.383-0.232-0.526-0.405
			c-0.58-0.696-2.067-1.096-2.209-1.841c-0.43,0-0.719-0.634-0.719-1.148c0-0.633,0.48-0.983,0.48-1.608
			c0-0.754-0.387-0.926-0.48-1.326c-0.578-2.068-2.207-3.739-3.263-5.001c-0.479-0.575-1.249-0.809-1.73-1.384
			c-0.383-0.455-0.046-1.029-0.287-1.666c-0.43-1.029-1.92-1.148-1.92-2.528c-0.43-0.113-0.383-0.171-0.523,0
			c-0.626-0.744-1.105-1.379-1.634-2.007c-0.432-0.522-0.284-1.5-0.719-2.016c-0.433-0.515-0.339-1.783-0.719-2.01
			c-0.814-0.463-1.584-0.401-2.209-1.149c-0.146,0.225-0.096,0.572-0.096,0.748c0,1.204,0.474,1.947,0.86,2.925
			c0.336,0.861,0.964,0.866,1.444,1.443c0.669,0.806,0.767,1.382,1.006,2.354c0.336,1.321,1.296,1.955,1.631,3.16
			c0.385,1.382,0.673,2.876,1.533,3.567c0.389-0.459,0.96,0.518,0.96,0.975c0,0.289-0.19,0.864-0.336,0.864
			c-0.094,0-0.732-0.988-0.782-1.225c-0.86,0-1.325-1.364-1.853-1.764c-0.285-0.234-0.339-0.234-0.482-0.517v-1.497
			c-0.523-0.636-0.91-1.267-1.391-1.837c-0.671-0.809-1.725-0.637-2.206-1.496c0.241,0,1.375,0.21,0.955-0.507
			c-0.71-1.214-1.501-2.444-2.341-3.091c-0.567-0.435-0.535-2.037-0.823-2.729c-0.433-1.031-0.86-1.376-1.199-2.704v-0.399h0.098
			c-0.721-1.725-3.167-2.935-4.894-3.734c-0.385-0.169-0.241-0.81-0.385-1.268c-0.671-2.012-2.016-2.705-1.774-5.056
			c-1.006-0.171-2.055-2.723-2.88-4.427c-0.237-0.5,0.193-0.867,0.482-1.092c-0.528-1.262-0.02-3.384-0.482-4.83
			c-0.447-1.396,0.812-4.659,0.812-6.44c0-1.265-1.197-1.783-1.197-3.043c0-0.349,0.53-0.403,0.721-0.403
			c0.722,0,1.149,0.457,1.391,0.979c0.239-0.352,0.674-1.04,0.674-1.555c0-0.57-0.433-0.746-0.626-1.319l0,0l0,0
			c-0.191-0.114-0.435-0.237-0.528-0.35c-0.476-0.574-1.677-0.689-1.822-1.265c-0.382-1.495-2.061-0.743-2.3-1.896
			c-1.631,0-1.729-1.554-2.067-2.873c-0.044-0.176-1.295-1.093-1.295-1.093c-0.573-0.458-0.046-1.208-0.48-1.727
			c-0.286-0.345-0.671-0.345-1.053-0.456c-0.674-0.235-0.48-1.783-0.48-2.535c0-0.339-0.284-0.515-0.284-0.804
			c0-0.401,0.669-0.513,0.669-1.146c0-1.102-0.678-1.441-1.125-1.886c0.447,0.444,1.125,0.784,1.125,1.886
			c0,0.63-0.672,0.745-0.672,1.146c-0.238,0-0.238,0.059-0.479,0.059c-0.816,0-2.016-1.09-2.016-1.724v-0.863
			c0-0.862-0.578-0.862-1.44-0.862c-0.671,0-0.862-0.517-0.862-0.863c0-0.459,0.72-0.514,0.72-0.975v-0.749
			c-0.91,0.058-0.672,0.749-1.297,0.749c-0.191,0-0.72-0.519-0.72-0.863c0-0.689,0.337-0.92,0.482-1.208
			c-0.241-0.285-0.675-0.802-0.864-0.404c-0.721,0-1.056-0.397-1.44-0.856c-0.146,0.459-0.334,1.03-0.719,1.03
			c-1.008,0-1.681-1.664-2.257-2.177c-1.244-1.1-2.878-1.04-4.313-2.018h-2.642c-1.581-0.635-3.694-0.86-4.507-2.877
			c-0.58,0.29-1.538,0.572-1.968,0.863c0.142,0.406,0.236,0.579,0.478,0.81c-0.625,1.144-3.692,3.222-4.798,3.222
			c-0.193,0-0.479-0.179-0.479-0.408c0-0.342,0.286-0.405,0.382-0.461c-0.232-0.401-0.048-0.401-0.048-0.69
			c0-1.261,0.719-2.243,2.111-2.763c0-0.167,0.05-0.398,0.05-0.572h-0.578c-1.152,0-4.317,3.166-4.317,5.062v0.861
			c0,1.323-1.058,1.781-2.157,2.299c-0.623,0.287-0.814,0.862-1.201,1.436c-0.721,1.093-2.35,1.667-3.119,2.591
			c-0.721,0.858-2.447,1.494-3.838,1.722c-1.725,0.344-2.687,2.759-4.7,2.068c0.571-1.092,1.488-0.63,2.3-1.209
			c0.58-0.4,1.013-1.547,1.538-1.894c0.814-0.577,1.727,0,2.305-0.863c0.812-1.264,2.683-2.239,3.838-3.16
			c1.1-0.862,1.1-2.589,2.255-3.447H15.35c-0.719,0.338-1.056,0.743-1.771,0.743c-0.579,0-0.818-0.285-1.299-0.461
			c-0.145,0.461-0.286,0.634-0.334,1.038c-1.153-0.521-1.488-0.862-2.309-1.609c-0.092,0.345-0.042,0.627-0.042,0.864H9.022
			c-0.293,0-0.532,0.459-0.726,0.459c-0.288,0-0.476-0.979-0.476-1.438v-1.151c0-0.171,0.046-0.86-0.385-0.86
			c-0.382,0-0.769,0.975-0.96,0.975c-0.625,0-2.878-2.126-3.217-2.642c0.241,0,0.482-0.175,0.722-0.175
			c-0.383-1.267-1.918-1.551-1.918-2.475c0-1.72,2.589-3.155,3.595-3.155c0.433,0,3.696-1.558,3.696-2.303
			c0-0.405-0.769-1.21-0.816-1.382c0.484-0.344,0.387-0.286,0.722-0.055v-0.865c-0.435-0.059-0.435,0-0.722,0
			c-0.769,0-1.056,0.979-2.062,0.979c-0.962,0-1.301-0.575-2.018-0.402H1.918c-0.046-0.86-0.621-1.092-0.621-1.61
			c0-0.172,0.091-0.4,0.146-0.574c-0.773,0-1.206-0.344-1.442-0.922c1.196-0.858,3.167-1.606,4.315-2.523h0.86
			c0,1.841,0.771,1.32,1.781,1.32c0.671,0,0.769,0.174,1.34,0c-0.476-1.843-1.483-1.955-2.878-2.766
			c-0.382-0.225-0.96-1.949-1.438-2.289c-0.573-0.409-2.539-0.866-2.539-1.27c0,0,0.664-1.438,0.717-1.609h2.639
			c1.438-2.298,3.6-4.483,6.141-5.465c0.669-0.224,1.104,0.175,1.772-0.114c0.767-0.346,1.251-1.608,2.063-1.608
			c0.628,0,0.866,0.63,1.487,0.865c-0.236,0.344-0.286,0.459-0.432,0.743c0.479,0.114,0.958-0.284,1.198-0.743
			c0.526,0.229,0.674,0.397,1.106,0.575h2.397c0.58,0.457,0.77,0.745,1.44,1.146h3.696c0.958,1.15,3.932,1.438,5.418,1.438
			c0.864,0,1.394-0.402,2.256-0.402c1.393,0,1.827,0.691,3.023,1.151l0.003-0.061c0.478,0.12,0.236,0.234,0.569,0
			c0,0.178,0.595,0.692,0.675,0.751c1.973,1.438,4.125,1.725,5.326,1.725c0.43,0-1.731-1.361,1.39-1.496
			c0.452-0.016,0.235-1.81,1.49-0.4c0.419,0.468,1.677-0.636,2.207-0.752c1.342-0.625,1.87-0.744,3.354-1.144
			c0.146,0.459,0.482,0.796,0.867,0.796c1.005,0,0.671-1.658,1.631-1.658c0.287,0,1.581,2.585,2.493,2.585
			c0.963,0,0.963-1.264,1.872-1.497c0.096,0.461,0.626,1.553,1.154,1.553c0.764,0,1.15-0.749,2.061-0.749
			c2.926,0,4.375,2.86,7.292,2.59c2.743-0.255,2.504-0.616,3.84,1.607c-0.288,0.35-1.757,0.136-1.757,0.65c0,0.175,0,1.011,1.9,0.9
			c1.058-0.051,1.679-0.518,2.642-0.518h3.066l0.722,0.411c0.816,0.454,1.008,1.89,1.968,1.89c0.239,0-0.291-1.321-0.291-1.719
			c0-1.957,2.45-0.408,2.259-2.303c-0.576,0.456-1.84,0.91-2.608,0.91c-0.385,0-0.608-0.223-0.608-0.622
			c0-1.269,2.878-1.326,3.742-1.606c0.623,2.355,3.645,3.45,6.238,3.45c2.734,0,3.265-0.122,4.079,0
			c0-1.212,0.335-1.844,1.199-1.844c0.719,0,2.016,0.399,2.156,0.688c0.385,0.63-0.854,2.519,0.72,2.008
			c0-2.813,3.166-1.66,2.545-4.022c-0.387,0.234-0.671,0.347-1.012,0.574c0,0,0.389-1.376,0.389-1.723
			c0-1.953-3.263-0.802-3.263-2.7c0-0.804,0.621-0.747,0.621-1.325c0-0.575-0.382-0.857-0.382-1.436c0-0.862,0.767-0.688,1.34-0.862
			c-0.048-0.573-0.432-1.294,0.482-1.267c1.87,0.057,2.926,1.199,2.972,2.989c0.023,0.85,1.442,0.81,1.442,1.9
			c0,0.747-0.865,1.144-1.201,1.377c0.58,0.866,1.633,0.287,2.399,0.866c-0.238,0.229-0.334,0.4-0.479,0.689
			c1.01,0.574,1.105,1.263,1.105,2.242c1.483,0,0.525-2.475,1.918-2.475c0.382,0,1.774,1.611,1.774,2.018
			c0,0.856-0.812,0.684-0.812,1.43c0,0.634,1.425,3.31,2.505,1.662c0.692-1.063,0.564-1.83,0.944-2.812
			c0.241-0.575,1.347-0.575,1.347-1.149c0-0.515-0.721-0.802-0.721-1.549c0-0.692,0.623-1.156,1.201-1.156
			c0.428,0,0.769,0.348,1.196,0.404c1.966,0,1.588,1.445,3.122,1.445c0,0.974,0.188,0.913,0,1.43
			c-1.51,0.87-0.865,1.788-0.865,2.185c0,0.352,1.104,0.926,1.104,1.442c0,0.745-2.468,3.279-2.782,2.699
			c-0.589-1.076-0.819-0.056-0.578,0.288c-0.86,0-1.151,0.462-1.581,0.462c-0.673,0-1.056-1.151-2.113-1.151
			c-0.38,0,0.341,1.039,0.341,1.262c0,0.693-1.396,1.897-2.161,1.897c-0.912,0-1.538-0.859-2.159-1.321h-0.866
			c0.723,1.728,2.353,1.438,3.983,1.894v0.868c-0.767,0.691-1.393,2.125-2.539,2.125h-1.06c-0.576,0,0.036,1.599-0.974,1.228
			c-3.896-1.437-2.445-0.257-2.876-0.432c0.669,0.461,2.507,0.525,2.507,1.392c0,1.381-1.44,0.808-2.255,1.148
			c-0.385,0.178-1.199,2.416-1.583,2.872c-1.102,1.325-1.679,2.699-1.679,5.002c0,1.667,0.192,1.898,0,2.59
			c0.478-0.116,0.721-0.574,1.198-0.574c1.056,0,1.822,3.214,1.822,4.595c0.722,0,1.056-0.861,1.777-0.861
			c0.669,0,1.774,0.978,2.156,1.148c2.111,0.978,4.127,1.901,5.901,3.452h3.119c1.343,1.03,1.059,2.475,1.059,4.309
			c0,1.669,1.688,3.459,2.875,4.6c0.45,0.437,0.865-0.691,1.44-0.691c0.05-0.625,0.673-1.029,0.864-1.374
			c-0.671-0.978-0.011-4.105-1.679-5.12c0.96-0.23,3.84-2.814,3.84-3.85c0-3.796-1.67-4.532-2.775-6.778
			c0.623-0.293,1.985-0.719,1.815-2.418c-0.089-0.859-1.57-2.128-0.962-2.591c1.549-1.173-0.144-2.009-0.144-2.587
			c0-1.031,0.719-1.435,1.438-1.435c1.345,0,2.207,0.975,3.602,0.975c0.717,0,0.717-0.571,1.343-0.571
			c1.34,0,1.629,1.957,2.972,2.181c0,2.13,2.593,0.979,2.788,2.593c0.142,1.201,0.474,4.021,1.293,4.021
			c0.575,0,0.723,1.262,1.583,1.262c1.199,0,2.734-2.127,2.734-2.988c0-0.804,0.77-1.319,1.104-1.609
			c0.193,0.233,0.672,0.75,0.817,0.75c0.141,1.549,2.181,1.856,1.679,3.161c-0.406,1.054,1.148,2.239,1.581,2.413
			c-0.093,0.573,0.337,1.034,0.337,1.607c0,0.689-0.48,0.871-0.719,1.035c0.621,0.576,1.251,1.38,2.302,1.38v0.176
			c0,1.951,2.446,2.581,3.6,2.412c0.048,0.283,0.456,0.368,0.408,0.653c-0.287,1.095-2.952,1.528-3.912,2.165
			c0.05,0.113,0.333,0.226,0.482,0.226c1.149,0,3.451-0.976,4.553-1.723v0.691c0.556,0.299,0,0.862,0.387,0.862
			c0.435,0.86,0.816,1.436,0.816,2.76c0,1.836-3.868,2.088-4.56,3.161c-1.422,2.207-2.732,1.267-5.132,1.267
			c-1.822,0-2.878-0.404-4.703,0.285c-1.008,0.405-0.529,0.922-1.198,1.722c-1.056,1.264-2.062,0.751-2.686,2.3
			c1.437-0.229,2.398-2.007,4.508-2.007c1.006,0,2.495-0.232,2.495,0.858c0,1.148-1.727,1.442-2.018,1.9
			c0.435,0,0.962,0.169,1.203,0.169c-0.1,0.577-0.479,1.036-0.479,1.38c0,1.44,2.206,3.052,3.597,3.052
			c0.286,0,1.538,0.055,1.538,0.682c0,0.465-3.287,1.969-3.527,2.025c-0.958,0.347-1.849,1.894-2.233,1.894
			c-0.284,0-0.956-0.926-0.956-1.446c0-1.261,1.723-2.184,2.828-2.292c-0.767,0-0.717-0.062-0.717-0.862
			c-0.725,0.055-0.725,0.801-1.155,1.146c-0.43,0.341-1.627,0.111-1.918,0.111c-0.144,0-0.385,0.06-0.479,0v0.173l0.021,0.133
			c0.062,0.153,0.128,0.307,0.219,0.443c-0.336,0.63-0.861,0.977-1.539,0.977c-0.574,0-0.622-0.284-1.102,0
			c-0.767,0.926-2.398,1.558-2.398,3.735c0,0.173,0.048,0.46,0.191,0.522c0,0.285,0.193,1.032,0.482,1.032
			c0.098,0,0.527-0.396,0.527-0.396v0.396c-0.577,0.175-1.395,0.399-1.583,0.175c-0.96,0.86-2.592,0.517-3.554,1.265h0.48
			c0.432,0,0.864-0.291,1.201,0c-0.669,0.287-1.151,0.287-1.82,0.287c-0.146,0-0.291-0.061-0.435-0.061
			c-0.146,0.061-0.287,0.232-0.287,0.401c0,0.291,0.431,0.694,0.431,0.694c-0.098,0.457-1.008,2.471-1.345,2.471
			c-0.142,0-0.239-0.348-0.335-0.456l-0.24,0.28c0.1,0.465,0.434,0.639,0.434,1.099c0,0.342-0.962,2.354-1.107,2.354
			c-0.089,0-0.191-0.224-0.191-0.35v-0.623c0-0.404-0.428-1.328-0.529-1.904c-0.094,0.294-0.044,0.747-0.044,0.747
			c0,0.401,0.241,1.439,0.241,2.017c0,0.57-0.291,0.518,0,0.857h0.332v0.576c0,0.46-0.393,0.706-0.634,0.706
			c0.191,0.396,0.417,0.444,0.66,0.499c-0.094,0.633-0.312,0.578-0.745,0.578v0.461l0.562,0.397
			c-0.144,0.23-0.297,0.572-0.562,0.634c-0.564,0.13-0.814,0.576-1.194,0.693c-0.578,0.223-0.532,0.397-0.817,0.745l0.131,0.111
			c-2.248,1.517-5.122,2.608-5.122,6.787c0,1.896,1.343,2.469,1.343,4.312v0.286c0.146,0.685,0.575,1.265,0.575,2.305
			c0,1.206-0.241,2.295-1.054,2.295c-0.721,0-0.677-0.92-0.957-1.435c-0.58-0.921-1.061-1.208-1.442-2.123
			c-0.771-1.841-0.193-5.354-2.303-5.354c-0.43,0-0.625,0.754-1.056,0.754c-0.864,0-1.39-1.327-2.543-1.327
			c-0.669,0-0.812,0.463-1.199,0.463c-0.146,0-0.335-0.284-0.335-0.463c-0.767,0.234-1.776,0.122-2.591,0.463
			c0.478,0.169,0.38,0.169,0.669,0c-0.046,0.864-0.478,1.382,0.1,1.835c-1.345,0.807-2.497-1.146-3.455-1.146
			c-0.291,0-0.435,0.456-0.722,0.456c-0.529,0-0.814-0.573-1.345-0.573c-1.39,0-2.059,1.438-2.637,2.129
			c-0.387,0.462-0.816,0.054-1.294,0.289c-1.061,0.453-1.68,2.007-1.68,3.737c0,0.166,0.239,0.396,0.239,0.568
			c-0.039-0.005-0.083-0.011-0.126-0.02l0.028,0.138c0.098,0.346,0.193,0.576,0.193,0.919c0,1.037-0.335,1.44-0.48,2.303v3.214
			c-0.095,0.463,0.287,0.926,0.385,1.152c0.193,0.52-0.048,0.861,0.142,1.372c0.193,0.469,0.816,1.268,1.155,1.675
			c0.86,1.036,0.86,2.018,2.113,2.475c0.426,0.172,0.426,0.692,0.812,0.692c0.91,0,1.679-0.817,2.637-0.817
			c0.525,0,0.721,0.348,0.912,0.348c0.383,0,0.624-0.68,0.674-0.916c0.187-0.688,1.005-1.438,1.005-2.304
			c0-1.663,1.584-2.239,2.881-2.239c0.432,0,0.767,0.062,0.96,0.175c0.19,0.06,0.814,0.112,1.104,0.112v0.522
			c0,0.799-0.814,1.84-0.814,2.931c0,0.918-0.289,1.319-0.58,1.898v-0.402h-0.383v2.76c0,0.571-0.575,0.804-0.864,1.145v0.293
			c0,0.4,0.289,0.625,0.578,0.625c1.579,0,2.875-0.347,4.557-0.347c1.153,0,1.442,0.99,2.303,1.212v0.862
			c0,0.52-0.048,1.954-0.335,2.527v3.51c0,1.268,1.008,1.782,1.774,2.238c0.523,0.295,0.523,1.382,1.343,1.382
			c1.249,0,1.87-1.146,3.023-1.146c1.338,0,1.933,1.151,2.7,1.84c-0.02,0.049-0.152,0.229-0.319,0.442
			c0.149-0.132,0.284-0.255,0.354-0.393c0.383,0.12,0.241,0.12,0.573,0v-0.342c0-0.111,0.191-0.286,0.289-0.286
			c0-0.573,0.48-0.747,0.767-0.972c0.289-0.231,0.337-0.982,0.435-1.443c0.237-0.924,0.669-1.091,1.295-1.321
			c1.151-0.459,1.918-0.692,3.121-1.15c0.623-0.229,0.767-1.09,1.386-1.09c0.241,0,0.435,0.636,0.435,0.689
			c0,0.458-0.289,0.692-0.479,0.692c-0.143,0.858-0.432,1.835-0.432,2.35c0,0.631,0.265,1.74,0.791,1.74
			c0.193,0,0.458-0.698,0.458-0.932c0-0.687-0.576-1.093-0.576-1.782c0-0.857,0.765-0.743,1.199-1.094h1.147
			c-0.191-0.689-0.908-0.403-0.908-1.092l0.838,0.015c0.189,0.925,1.271,1.246,1.99,1.428c0,0.564,0.289,0.971,0.577,1.026h2.592
			c0,0.521,0.577,0.633,0.962,0.633c0.719-0.112,1.192-0.112,1.483-0.804c0.048-0.174,1.054-0.174,1.199-0.291
			c0.478,0,1.345,0.179,1.345,0.179c-0.193,0.175-0.573,0.228-0.719,0.112v0.463c0.334,0.809,1.342,0.975,2.061,1.268
			c0.624,0.224,0.479,1.089,0.672,1.835h1.344c0.912,1.097,1.345,0.917,1.918,2.353c0.098,0.23,0.48,0.348,0.722,0.348
			c0.334,1.617,2.348,1.438,3.645,1.729h1.249c0.332,0.17,1.102,0.632,1.583,0.632v0.111h0.285c0.772,0,1.776,1.896,2.591,2.135
			c0,0.683,0.626,2.521,0.867,3.152c0.24,0.575,0.862,0.575,0.862,1.151c-0.765,1.148-2.159,1.726-2.159,3.451
			c0,0.58,0.43,0.517,0.673,0.629c0.476,0.296,0.722,0.753,0.814,1.329h1.151c0,0.172,0.096,0.628,0.241,0.628
			c0.191,0,0.382-0.405,0.53-0.686c0.478-0.926,1.053-2.131,1.824-2.131c0.86,0,2.587,1.095,3.213,1.552
			c0.38,0.287,0.814,0.171,0.907,0.637c0.144,0.515,0.094,0.917,0.094,1.428h0.339c0.432-0.225,0.628-0.629,1.058-0.629
			c1.008,0,1.197,0.927,2.157,0.927l1.822-0.298c0.912,0.238,1.73,0.639,2.257,0.929c0.43,0.857,1.92,2.468,2.687,2.76
			c0.671,0.225,1.104-0.115,1.774,0.107C181.499,196.901,181.736,198.104,181.736,199.312z"/>
		<path fill="#EEEEEE" d="M119.752,112.217c0,0.193,0.174,0.307,0.252,0.481c-0.054-0.141-0.108-0.271-0.156-0.363
			c0.337,0,0.337-0.065,0.571-0.065c1.395,0,4.455,0.554,4.466-1.604c0.013-0.011,0.052-0.05,0.1-0.102
			c-0.05,0.054-0.087,0.091-0.1,0.102c-1.197,0-3.454,0.687-4.51,1.087C120.229,111.817,119.752,111.929,119.752,112.217z"/>
		<path fill="#EEEEEE" d="M119.576,114.164c0.291-0.17,0.552-0.335,0.754-0.451l-0.003-0.001
			C120.128,113.827,119.871,113.989,119.576,114.164z"/>
		<path fill="#EEEEEE" d="M118.409,113.941c-0.675,0-1.396-0.056-1.824,0.455c-0.193,0.234-0.238,0.584-0.669,0.584
			c-0.289,0-0.577-0.404-0.724-0.697c0,0.572,0.193,1.444,0.672,1.444c0.983,0,2.585-0.893,3.692-1.551
			C119.317,114.346,119.033,113.941,118.409,113.941z"/>
		<path fill="#EEEEEE" d="M106.503,102.179c-0.431-0.002-2.487,1.647-3.591,3.314h0.719c0.337-0.175,0.528-0.35,0.86-0.402
			c0.195,0.516,0.339,0.571,0.724,0.571c0.814,0,0.864-0.745,1.296-0.745c0.528,0,1.391-1.091,2.109-1.264
			c0,0.803-0.334,0.973-0.527,1.438h0.957c0.051,0.402,0.482,0.688,0.819,0.688c0.621,0,0.814-0.573,1.343-0.573
			c1.15,0,1.725,0.747,2.734,0.747v0.688c-0.722,0.287-1.777,0-2.159,0c-1.056,0-2.974,1.609-3.073,2.759
			c0.484-0.337,0.676-0.809,1.155-0.809c-0.819,1.268-1.201,4.202-1.201,5.691c0,0.634,0.575,1.156,1.102,1.156
			c0.721,0,0.962-1.727,0.962-2.475v-1.839c0-0.725-0.011-2.462,0.521-2.506c1.748-0.124,0.942-1.518,1.733-1.518
			c0.384,0,2.159,1.032,2.159,1.723c0,0.803-0.383,1.321-0.528,2.124c0.575,0,0.48-0.227,0.96-0.399
			c0.193,0.92,0.195,1.322,0.674,1.782l0,0c0.671,0,1.101-2.761,1.294-3.681c0.189,0.234,0.765,0.977,1.343,0.977
			c0.284,0,0.479-0.284,0.479-0.69c0-0.862-0.719-1.434-1.296-1.895h-1.247c-1.197-0.918-2.687-0.632-3.79-1.952
			c-0.383-0.461-0.096-1.038-0.383-1.729c-0.098-0.228-2.115-2.181-2.397-2.181h-0.383c0,0.112,0.046,0.571-0.052,0.804
			c-0.193-0.232-0.576-1.269-1.151-1.269c-0.478,0-0.289,0.925-0.767,1.214C107.373,102.215,107.002,102.184,106.503,102.179z"/>
		<path fill="#EEEEEE" d="M42.349,76.498c-0.315,0.437-0.441,1.116-0.947,1.116c-0.404,0-0.812-0.273-1.186-0.641
			c0.373,0.367,0.781,0.643,1.186,0.643C41.907,77.616,42.033,76.935,42.349,76.498z"/>
		<path fill="#EEEEEE" d="M46.013,78.78c-0.712-1.028-1.368-1.707-2.354-2.893l0,0C44.645,77.075,45.301,77.752,46.013,78.78z"/>
		<path fill="#EEEEEE" d="M48.647,83.531c0.062,0.074,0.137,0.126,0.22,0.166c-0.083-0.04-0.157-0.092-0.218-0.166
			c-0.529-0.633-0.767-1.496-0.96-2.186c-0.126-0.463-0.438-0.605-0.575-0.793c0.135,0.188,0.445,0.33,0.573,0.793
			C47.881,82.035,48.12,82.901,48.647,83.531z"/>
		<path fill="#EEEEEE" d="M48.871,83.699c0.245,0.116,0.552,0.132,0.78,0.322C49.423,83.831,49.116,83.815,48.871,83.699z"/>
	</g>
	<path fill="#EEEEEE" d="M121.861,146.304c0,0.465,0,1.092,0.479,1.092c0.096,0,0.241-0.171,0.241-0.284
		c0-0.399-0.146-0.746-0.525-0.808C122.005,146.304,121.861,146.249,121.861,146.304z"/>
	<path fill="#EEEEEE" d="M121.813,143.028c-0.237,0-0.573,0.229-0.669,0.461c0.284,0,0.767,0.057,1.249,0
		C122.293,143.314,122.147,143.028,121.813,143.028z"/>
	<path fill="#EEEEEE" d="M123.301,143.723c-0.043,0.166,0.094,0.518,0.241,0.453L123.301,143.723z"/>
	<path fill="#EEEEEE" d="M129.107,152.858v-0.515c-0.191,0.346-0.578,0.63-0.958,0.515v0.344c0,0.059,0.141,0,0.191,0
		C128.579,153.202,128.916,153.092,129.107,152.858z"/>
	<path fill="#EEEEEE" d="M47.977,87.958c0.243,0,0.384-0.17,0.384-0.578c0-1.264-1.296-1.435-1.15-2.985
		c-1.011-0.231-1.249-0.231-1.249,1.152c0.577-0.464,0.288-0.173,1.056,0c-0.144,0.282,0,0.745,0,1.148
		C47.017,86.751,47.546,87.958,47.977,87.958z"/>
	<path fill="#EEEEEE" d="M44.522,82.21c-0.096,0.057-0.479,0.17-0.479,0c-0.241-0.925,0-0.925,0-2.417c-0.674,0.465-0.241,0-1.104,0
		c-0.191,0-0.575,0.115-0.575,0.577c0,0.861,0.575,1.607,1.296,1.725c0,0.919,0.188,1.607,0.767,2.3
		C44.909,83.817,44.427,83.014,44.522,82.21z"/>
	<path fill="#EEEEEE" d="M88.902,49.154c0.862,0,1.054,0.227,1.922-0.458c-0.914-0.865-4.945-2.132-4.945-3.965
		c0-1.499-1.292-2.824-1.292-4.891c0-0.518,1.053-1.034,1.053-1.899c0-0.859-0.814-1.262-1.681-1.262
		c-0.765,0-1.437,0.402-1.437,0.979c0,0.176,0,0.401,0.048,0.571c-0.769,0.46-0.481,0-1.344,0c-0.385,0-0.865,0.285-0.865,0.749
		c0,0.519,0.722,3.218,1.106,3.969c-0.241,0.224-0.241,0.457-0.626,0.457c-0.862,0-0.528-1.435-0.816-2.123
		c-0.237-0.635-0.91-1.384-1.586-1.614h-1.052c0.096,0.348,0.193,0.518,0.239,1.034c-0.53,0.175-0.91,0.287-1.438,0.407
		c-0.339-1.037-0.814-1.728-2.159-1.728c-0.77,0-1.105,0.751-1.49,1.033c-0.191-0.343-0.141-2.008-0.816-2.008
		c-1.727,0-6.093,2.063-6.093,4.882c0,0.289,0.914,1.151,1.44,1.151c0.625,0,0.912-0.174,1.681,0.058
		c-0.53,0.4-1.92-0.058-1.92,1.209c0,1.609,2.639,1.032,3.696,1.032h2.54c0.481,0,0.864,0.35,1.201,0.577
		c-0.576,0.055-0.865,0.113-1.584,0.113c-2.016,0-3.503,0.287-4.652,1.321c0.337,0.689,1.199,2.017,2.255,2.017
		c0.671,0,2.111-0.181,2.637,0.282c0.578,0.517,0.048,1.438,0.866,1.438h4.312c1.013-0.861,2.211-0.403,3.458-1.15
		c0.719-0.4,0.385-1.032,1.247-1.032c1.393,0,2.065,1.725,3.936,1.725c1.201,0,2.303,0.055,2.734-1.035
		c-0.19-0.172-0.432-0.349-0.479-0.802c-0.193,0-0.722,0-0.722-0.461C88.276,49.326,88.521,49.154,88.902,49.154z"/>
	<path fill="#EEEEEE" d="M58.678,43.578c0.142,0.288,0.479,1.153,0.72,1.153c0.24,0,0.382,0.571,0.717,0.571
		c0.382,0,3.694-1.437,3.694-1.896c0-1.325,2.111-3.738,3.602-4.312c0.476-0.172,3.019-0.634,3.019-1.26
		c0-1.328-2.353-2.479-3.357-2.479c-0.621,0-1.199,0.691-1.634,0.175c-1.054-0.118-1.531-0.805-2.585-1.152
		c-0.864-0.286-1.344,0.405-1.927,0.405c-1.146,0-1.675-0.577-2.873,0c0.048,0.629,0.717,1.552,0.717,2.007
		c0,2.076-2.398,3.681-2.398,5.637C56.371,43.118,58.292,42.948,58.678,43.578z"/>
	<g>
		<path fill="#EEEEEE" d="M70.047,27.883c0.864-0.173,1.153,0,1.581,0c0.191,0,0.771,0.174,0.816,0.866h1.104
			c1.442,0,2.448,2.183,4.557,2.183c0.626,0,0.865-0.229,1.059-0.751c-0.528,0-0.768-0.058-0.958-0.167
			c0.046-0.114,0.334-0.23,0.478-0.23v-0.749c-0.337-0.062-1.199-0.346-1.199-0.86c0-0.923,1.247-1.382,1.728-1.844
			c0.286,0.229,0.577,0.406,0.909,0.406c-0.045,0.458,0,0.631,0,0.747c0,0.859,0.91,2.125,1.827,2.125
			c0.428,0,0.669-0.69,1.292-0.69c0.576,0,1.104,0.748,1.104,1.438c0,0.802-1.148,2.526-1.583,2.695
			c-0.289,0.122-3.119-0.279-3.119-0.111c0,0.111-3.069,0.925-3.213,0.98c-0.962,0.458-1.92,0.863-3.118,0.863
			c-0.576,0-1.345-0.523-1.345-0.863c0-0.869,0.721-0.689,1.345-0.689c-0.285-0.459-0.72-0.75-0.815-1.325
			c-0.291,0.058-0.529,0.405-0.529,0.752c-0.812,0.114-1.437,0.394-2.016,0.394c-0.622,0-1.341-0.394-1.677-0.394
			c-0.389,0-0.722-0.403-0.722-0.868c0-0.574,0.191-0.453,0-0.858c0.48-0.116,0.722-0.575,1.199-0.575
			c0.202,0,0.367,0.03,0.532,0.069c-0.185-0.083-0.36-0.165-0.532-0.245v-0.86c0.385-0.054,0.816,0,0.816,0
			c0.037,0,0.14,0.018,0.263,0.039c-0.176-0.063-0.343-0.148-0.502-0.271c0.189-0.339,0.574-0.632,0.958-0.632
			c0.048,0,0.081,0.009,0.122,0.011C70.196,28.35,70.047,28.166,70.047,27.883z"/>
		<path fill="#EEEEEE" d="M70.985,29.59c0.299,0.062,0.577,0.115,0.738,0.135C71.47,29.659,71.224,29.622,70.985,29.59z"/>
	</g>
	<path fill="#EEEEEE" d="M65.153,30.646c0,0.397,0.432,0.689,0.814,0.689c0.623,0,1.344-1.212,1.439-2.015
		C66.93,29.267,65.153,29.725,65.153,30.646z"/>
	<path fill="#EEEEEE" d="M71.871,27.194h1.056v-0.747H71.25C71.25,26.966,71.628,27.194,71.871,27.194z"/>
	<path fill="#EEEEEE" d="M61.649,29.32c0.482,0,0.767,0.346,1.347,0c0.091,0.23,0.428,0.862,0.812,0.862
		c0.527,0,0.908-0.632,1.008-1.265c0.814,0.116,1.535-0.803,1.634-1.783c0.428,0.287,0.382,1.614,1.196,1.614l2.063-1.843
		c0-0.459-0.332-0.576-0.383-1.147c0.333-0.117,0.622-0.518,0.622-0.924c0-1.031-2.878-0.111-2.878-0.111
		c-0.428-0.059-0.48-0.117-0.865-0.117c-1.342,0-1.581,1.493-2.493,2.13c-0.814,0.569-1.531,0.686-2.3,1.146
		c-0.193,0.119-1.059,0.922-1.059,1.035c0,0.17,0.385,0.461,0.479,0.861C61.22,29.725,61.36,29.32,61.649,29.32z"/>
	<path fill="#EEEEEE" d="M75.322,21.731h2.065c0.574,0,0.91-0.345,1.293-0.571c-0.189-0.747-1.008-1.44-2.014-1.44
		c-0.623,0-3.499,1.263-3.499,2.012c0.38-0.058,0.573-0.458,0.956-0.458C74.605,21.273,74.747,21.731,75.322,21.731z"/>
	<path fill="#EEEEEE" d="M77.243,22.021c-1.006,0-3.934,0.112-3.934,1.439c0,0.513,0.814,1.545,1.535,1.545
		c1.054,0,2.639-0.515,2.543-1.722h-1.344c0.721,0,1.535-0.173,2.061-0.689C77.962,22.363,77.771,22.021,77.243,22.021z"/>
	<path fill="#EEEEEE" d="M71.965,23.857c0.337,0,0.479-0.343,0.673-0.688c-0.289-0.171-1.631-1.609-1.631-0.171
		C71.007,23.283,71.536,23.857,71.965,23.857z"/>
	<path fill="#EEEEEE" d="M95.812,40.418c0-0.577,0.144-0.063,0.144-0.86c0-0.635-1.395-0.117-1.779-0.06
		c0.339-0.519,1.538-0.982,1.538-2.128c0-0.288-0.337-0.579-0.476-0.579h-1.92c-1.058,0-2.113-0.228-2.883,0.692
		c-0.048,0.172-0.334,0.287-0.334,0.463c0,0.744,0.912,0.632,1.535,0.744v1.554h-0.721c-0.814,0-1.534-0.687-2.157-0.687v0.976
		c1.391,1.664,2.878,1.438,4.223,3.045c0.287,0.346,0.382,0.978,1.054,0.978c0.428,0,0.525-0.689,0.96-0.862
		c1.535-0.693,1.688,0.147,1.92-2.991C96.626,40.588,96.001,40.472,95.812,40.418z"/>
	<path fill="#EEEEEE" d="M86.358,27.306h-0.575c0,0.287,0.071,0.501,0.165,0.684l-0.069-0.106v1.035
		c0.382,0.349,0.721,0.748,1.199,0.578l0.143,0.567h0.724c0,0.348,0.236,0.695,0.576,0.695c0.96,0,2.637-0.578,3.501-0.578
		c0.191,0,0.43,0.061,0.575,0.176c-0.289,0.346-1.201,0.346-1.201,0.859c-0.045,0.173-0.045,0.406,0,0.574
		c-0.19,0.116-0.334,0.349-0.334,0.576c0,0.517,1.246,0.292,1.535,0.292c0.146,0,1.197,0,1.918-0.292
		c-0.193-1.607,0.385-2.303,0.385-3.617c0-0.866-0.1-1.443-0.958-1.443c-0.385,0-0.578,0.462-0.96,0.462
		c-0.912,0-1.395-0.573-2.157-0.573c-0.339,0-0.532-0.119-0.868,0.057c0.195,0.806,0.868,0.806,1.681,0.806v1.264
		c-1.198,0-1.583-1.264-2.639-1.264v0.692c0.188,0.285,0.575,0.688,0.958,0.976C88.468,30.241,87.751,27.306,86.358,27.306z"/>
	<path fill="#EEEEEE" d="M93.794,50.883c-0.189,0.054-1.052-0.177-1.052,0.282c0,0.175,3.545,1.723,4.171,1.723
		c0.529,0,0.721-0.573,1.201-0.917c-0.287-0.806-2.255-2.938-2.974-2.938C94.176,49.033,94.372,50.646,93.794,50.883z"/>
	<path fill="#EEEEEE" d="M100.271,35.531c-1.001,0-1.297,0.801-1.297,0.861c0,0.172-0.095,0.515,0,0.571h-1.097v0.978
		c0.33,1.153,0,1.841,0.763,2.763c-0.043,0.285-0.043,0.976-0.043,1.724h0.953c0.578-0.687,0.962-0.863,1.107-1.895h-0.625
		c0.289-1.151,0.289-0.402,1.344-0.402c1.44,0,2.111-1.264,2.735-2.297c0,0,0.864-0.752,0.864-0.87c0-0.284-0.05-0.457,0-0.742
		C103.244,36.222,101.902,35.531,100.271,35.531z"/>
	<path fill="#EEEEEE" d="M85.162,25.582c0.332,0,0.621-0.284,0.669-0.688c-1.006-0.403-1.102-1.61-2.351-1.61
		C83.48,24.03,84.632,25.582,85.162,25.582z"/>
	<path fill="#EEEEEE" d="M84.919,32.597c0.385-0.054,0.484,0.062,0.96,0.062c0.289,0,0.721-0.062,0.721-0.752
		c0-0.403-0.241-0.569-0.339-0.863C85.592,31.337,85.107,31.621,84.919,32.597z"/>
	<path fill="#EEEEEE" d="M84.919,18.857c-0.046,0.229-0.189,0.461-0.335,0.575c0.383,0.344,0.624,0,1.677,0
		c-0.093,0.172-0.093,0.515,0,0.691c-0.573,0.229-1.008,0.171-1.436,0.69c0.428,0.515,0.626,0.459,1.295,0.459
		c0.717,0,1.344-0.291,1.583,0.229c0.862-0.116,1.388,0.229,2.253,0.229c1.105,0,1.008,1.438,2.156,1.438
		c0.387,0,0.869-0.17,0.869-0.748c0-0.631-0.96-1.092-1.345-1.552c0.096-0.172,0.287-0.404,0.385-0.574
		c-0.241-0.287-0.771-1.324-1.442-1.324c-0.287,0-0.428,0.462-0.717,0.462c-0.527,0-0.48-1.324-1.44-1.324
		c-0.382,0-0.573,0.463-0.958,0.463c-0.579,0-0.818-1.035-1.824-1.035c-0.577,0-0.96,0.349-1.533,0.461
		C84.106,18.686,84.247,18.857,84.919,18.857z"/>
	<path fill="#EEEEEE" d="M88.902,22.421c-0.191,0-1.295,0.862-0.435,0.862c0.719,0,1.297,0,1.538-0.402
		C89.573,22.71,89.428,22.421,88.902,22.421z"/>
	<path fill="#EEEEEE" d="M106.894,33.519h0.573c-0.094,0.975,1.393,1.146,2.402,0.86h3.838c0.433-0.347,0.528-0.628,1.199-0.747
		c0.096,0.4,0.332,0.861,0.958,0.861c1.681,0,3.838,0,3.983-2.015c0,0-0.287,0.064-0.623-0.054c0.054-0.229,0.141-0.394,0.241-0.532
		c0.137-0.016,0.306-0.055,0.382-0.103c-0.676-1.492-1.92-1.607-3.838-1.607c-2.496,0-3.36,1.438-5.999,1.438
		c-1.197,0-2.155-0.345-3.311-0.687c-0.189,0.167-0.767,0.517-0.767-0.289c0-0.174,0.241-0.174,0.337-0.291
		c-0.674-0.63-1.871,0.23-2.159-1.32h1.918c-0.433-0.749-2.638-0.404-2.255-1.729h-0.862c-0.193,0.348-0.48,0.46-0.962,0.46
		c-1.629,0-2.014-2.01-4.175-2.01c-0.571,0-1.437,0-1.437,0.861c0,0.518,2.931,2.013,3.452,2.013c0.384,0,0.673-0.233,0.96-0.573
		c0.816,0.978,1.056,1.897,1.922,2.93c-0.19,0.115-0.577,0.517-0.577,0.921c0,1.145,2.396,2.586,3.455,2.586
		C105.983,34.493,106.7,33.807,106.894,33.519z"/>
	<path fill="#EEEEEE" d="M100.753,32.366c0-0.745-1.151-1.895-2.016-1.895c-1.104,0-0.91,1.318-1.438,1.318
		c-0.094,0-0.626,0.293-0.626,0.868c0,0,2.782,1.549,3.119,1.549C100.466,34.207,100.753,33.343,100.753,32.366z"/>
	<path fill="#EEEEEE" d="M100.896,24.03v-0.747c-0.48,0.116-0.096,0-0.626,0c-0.91,0-2.637,0.116-3.114,0.689
		c0,0,2.78,0.633,3.019,0.633C100.609,24.605,100.896,24.32,100.896,24.03z"/>
	<path fill="#EEEEEE" d="M95.859,22.021c-0.144,0.059-0.479,0.286-0.479,0.573c0,0.689,1.679,0.459,3.357,0
		c-0.141-0.633,0-1.034,0-1.436c0-1.211-1.679,0.061-1.679-1.323c-0.528,0-1.534-0.402-1.679-0.864
		c-0.479,0.061-1.102,0.292-1.102,0.864C94.278,20.982,95.284,21.329,95.859,22.021z"/>
	<path fill="#EEEEEE" d="M93.459,16.273h0.817v-1.148c-0.335,0-1.059-0.061-1.682,0C92.595,15.812,93.171,15.926,93.459,16.273z"/>
	<path fill="#EEEEEE" d="M99.55,15.126c-0.428,0-1.197-0.35-1.436-0.573h-0.717c0.139,1.662,1.15,1.831,2.777,1.831
		c-0.284,0.461-0.625,0.52-1.103,0.749c0,0.345,0.05,0.576,0.386,0.576c0.383,0,0.526-0.231,1.008-0.458
		c0.144,0.338,0.191,0.746,0.67,0.746c0.575,0,0.719-0.461,1.438-0.461c0.724,0,1.249,0.23,1.968,0.461
		c-0.671,0.168-3.645,0.056-3.645,1.147c0,0.863,1.345,1.438,2.159,1.438c-0.144,0.176-0.289,0.346-0.624,0.399
		c0.096,0.808,1.151,1.037,1.918,1.037c0.722,0,1.151-0.29,1.151-1.322c0.433,0.345,1.297,1.093,1.729,1.032v-0.747h0.862
		c-0.144-0.46-0.337-0.569-0.626-1.147c0.243-0.289,0.341-0.575,0.58-0.862c0.144,0.635,0.144,1.151,0.767,1.151
		c0.626,0,1.297-1.726,2.252-1.84c0.387-0.059,0.915,0.056,1.104-0.287c0.148-0.23,0.053-0.461,0.053-0.864
		c-0.628-0.061-1.875-0.749-2.353-0.749c-0.098,0-0.816,0.52-0.816,0c0-0.344,0.337-0.461,0.337-0.86c0-0.397-0.576-0.46-0.576-0.86
		c0-0.688,0.046-0.981-0.623-0.981h-0.48l0.239,0.404v0.747h-0.576c-0.434-0.517-0.143-1.262-0.864-1.611
		c-0.721-0.34-1.199,0.23-1.918-0.113c-0.769-0.346-0.575-2.009-1.535-2.471c-0.865-0.405-1.822-0.52-3.023-0.631
		c0.05,0.802,0.864,0.859,1.438,1.204h-0.812c-0.866-0.229-1.246,0.116-1.824,0.52c0,0.058,0.437,0.917,0.625,0.917
		c0.287,0,0.863-0.344,1.343,0c-0.144,0.177-0.239,0.574-0.53,0.574c-0.38,0-0.621-0.397-1.297-0.397
		c-0.426,0-1.097-0.062-1.097,0.575c0,0.631,1.483,1.03,2.107,1.264C99.984,14.663,99.745,15.126,99.55,15.126z"/>
	<path fill="#EEEEEE" d="M117.065,64.562c-0.241-0.231-0.096-0.633-0.335-1.033c-0.866-1.386-2.402-0.806-3.407-2.303
		c-0.146,0.109-0.289,0.23-0.431,0.463c-0.243-0.573-0.479-0.746-0.724-1.61c-1.342,0.171-1.583,2.47-1.583,3.45v0.858
		c0,0.344-0.239,0.523-0.476,0.751c-0.1,0.287-0.671,0.172-0.721,1.147c0.382-0.054,1.294-0.234,2.062,0
		c-0.098,0.575-0.243,1.148,0.333,1.148c0.241,0,0.241-0.169,0.384-0.458c0.674,0.341,2.26-0.86,2.26-2.133
		c0.282,0.118,1.822,1.442,1.822,1.442h1.294c0.624,0,1.056-0.234,1.584-0.627C118.698,64.961,117.834,65.254,117.065,64.562z"/>
	<path fill="#EEEEEE" d="M126.182,55.079c0-1.9-2.972-2.303-2.972,0c0,0.682,0.476,1.262,1.194,1.262
		C124.98,56.341,126.182,55.822,126.182,55.079z"/>
	<path fill="#EEEEEE" d="M115.386,67.84c-0.047,0.339-0.675,0.86-1.058,1.434v0.745c0.77-0.114,1.966-1.262,2.402-1.951
		C116.15,67.78,116.347,67.78,115.386,67.84z"/>
	<path fill="#EEEEEE" d="M120.568,40.131c0.815,0,1.245-0.574,1.772-0.574c0.53,0,0.817,0.398,1.44,0.398
		c0.433,0,0.721-0.398,0.862-0.921c-0.862-0.519-1.964-1.779-3.26-1.779c-1.009,0-1.343-0.46-2.398-0.46
		c-0.385,0-0.819,0.287-0.819,0.864c0,0.632,0.532,0.919,0.963,1.208C118.792,39.839,119.608,40.131,120.568,40.131z"/>
	<path fill="#EEEEEE" d="M119.463,71.17c0.479,0,0.578-0.804,0.867-1.266c-0.482-0.686-1.586-0.631-1.586,0.403
		C118.744,70.308,119.367,71.17,119.463,71.17z"/>
	<path fill="#EEEEEE" d="M128.243,54.671c-0.144-0.224-0.526-0.918-0.958-0.918c-0.099,0-0.626,0.403-0.626,0.579
		c0,0.339,0.289,0.456,0.626,0.456C127.763,54.788,127.621,54.849,128.243,54.671z"/>
	<path fill="#EEEEEE" d="M121.526,50.419c-0.575,0-1.679,1.319-1.105,1.319C121.001,51.738,121.384,51.107,121.526,50.419z"/>
	<path fill="#EEEEEE" d="M131.84,45.131c0.144-0.979-1.054-1.153-1.577-1.153h-1.203c-1.586,0-1.918-1.955-2.974-2.868
		c-0.624-0.521-2.687-0.865-3.6-0.865c-0.864,0-1.103,1.436-1.92,1.436c-0.433,0-0.575-0.57-1.104-0.57
		c-0.478,0-0.671,0.57-0.96,0.57c-0.236,0,0-0.919,0-1.146c0-1.269-0.669-3.278-1.916-3.278c-1.92,0-5.137,0.691-5.137,2.876
		c0,0.569,0.48,0.979,0.48,1.549c0,0.463-0.669,1.152-0.958,1.152c-0.575,0-0.48-0.519-0.48-0.977c0,0-0.095-0.632,0-1.038
		c-0.241,0-0.384-0.229-0.384-0.573c0-1.666,1.581-1.783,2.061-2.989c-0.047,0-1.581-0.575-1.581-0.575
		c-1.631,0-2.878,0.979-3.84,2.126c-0.193,0.229,0.05,1.267-0.337,1.612c-0.717,0.63-0.958,0.978-0.958,2.582
		c0,0.52,0.722,1.556,0.722,1.556s2.204,0.231,2.639,0.575v0.747c-0.814-0.113-1.538-0.464-2.161-0.171
		c0.096,0.801,0.814,0.914,1.058,1.721h2.301c0.288,0.462,1.055,1.153,1.439,1.153c2.161,0,5.807-0.175,7.294,0
		c-0.046,0.396-0.241,1.322,0.382,1.322c0.865,0,1.634-2.187,2.258-2.187c0.527,0,3.118,2.646,3.549,3.166
		c-0.289,0.054-1.151,0.169-1.151,0.743c0,0.112,0.191,0.688,0.382,0.688c0.626,0,0.913-0.688,1.536-0.688
		c1.008,0,4.079,2.818,4.079,4.313c0,0.801-1.01,2.068-1.438,2.585c-0.337,0.401-1.199-0.116-1.199,0.864
		c0,0.459,0.621,1.033,0.862,1.202c-0.578,0.464-1.728,0.806-2.157,0.806h-2.065c-0.671,0-1.918,0.98-1.918,1.557
		c0,0.801,1.536,1.609,2.062,1.609c0.577,0,0.864-0.866,1.444-0.866c0.43,0,0.33,0.403,0.812,0.403c0.428,0,0.719-0.461,0.96-0.862
		c1.388,0.977,2.159,2.072,3.742,2.878c-0.816,1.838,2.062,1.783,3.215,2.585c1.199,0.86,2.111,0.519,3.499,1.318
		c0.146,0.061,0.241,0.695,0.482,0.695c0.19,0,0.479-0.291,0.479-0.695c0-1.604-2.687-2.814-3.503-4.021h0.721
		c0.525,0.808,3.6,2.181,4.464,2.3c0.187-0.637,0.717-1.725,0.717-2.3c0-0.632-0.864-0.919-0.864-1.323
		c-0.05-0.226-0.05-0.226,0-1.146h-0.817c-0.096-0.979-0.43-0.291-1.34-0.691c-0.385-0.172-0.962-1.44-1.056-2.187h-0.626v-0.862
		c0.193,0.175,0.433,0.116,0.72,0v-0.69c-0.431,0.113-0.526,0.175-0.956-0.114c0.046,0,0.669-0.631,0.956-0.631
		c2.302,0,2.402,3.909,4.798,3.909c0.527,0,0.623-0.976,0.623-1.611c0.91,0,1.058-0.514,1.058-0.688c0-0.29,0.048-0.115,0-0.752
		c0.624,0,1.44-0.228,1.44-0.974c0-0.918-0.387-1.323-1.299-1.323c-0.236,0-0.621,0-0.862-0.284
		c-0.382-1.097-0.621-0.289-1.679-0.289c-0.722,0-0.96-0.979-1.056-2.014c-1.008-0.115-2.301-0.686-2.4-2.013
		c-0.623,0-0.91-0.173-1.343-0.458c0.433-0.862,0.817-0.862,1.584-1.321c-0.142-0.346-0.478-0.517-0.721-0.517
		c-0.431,0-0.626,0-1.438-0.115c0.385-0.695,1.008-0.637,1.682-0.804c-0.289-0.806-0.674-1.383-1.343-1.383h-0.816v-0.978
		C133.859,46.564,133.136,45.646,131.84,45.131z"/>
	<path fill="#EEEEEE" d="M121.622,66.804c0.48,0.458,0.623,0.458,1.105,0C122.15,66.458,122.103,66.055,121.622,66.804z"/>
	<path fill="#EEEEEE" d="M113.611,59.788c-0.052,0.404,0.335,0.859,0.958,0.919C114.235,60.192,114.235,59.447,113.611,59.788z"/>
	<path fill="#EEEEEE" d="M104.83,8.795h1.438c-0.573,0.236-0.86,0.403-1.34,0.979c0.094,0.061,0.623,0.457,0.86,0.457
		c0.912,0,0.962-1.032,1.922-1.032c0.383,0,0.525,0,0.958,0.12c-1.244,0.455-2.445,0.287-2.974,1.781c0.385-0.059,1.343,0,2.255,0
		c-0.624,0.059-0.956,0.344-1.297,0.631c0.341,0.518,1.679,1.204,2.644,1.204c0.428,0,0.715-0.284,1.051-0.572h0.626
		c-0.289,0.746,0.958,1.15,1.92,1.15c0.385,0,0.573-0.578,0.958-0.578c0.478,0,0.767,0.465,1.679,0.465
		c1.534,0,2.637-0.406,3.6-1.323h0.719c-0.575,0.858-1.393,1.146-2.303,1.606h-2.397c-0.098,0.173-0.339,0.346-0.339,0.577
		c0,0.345,1.535,1.492,1.776,1.78c-1.347,0.175-1.776-1.487-2.974-1.952c-0.96-0.349-2.016-0.113-2.546-0.113
		c-0.238,0-0.478-0.119-0.719,0c0.098,0.459,0.189,0.688,0.719,0.688c-0.478,0-1.194-0.11-1.194,0.462
		c0,1.032,3.261,1.032,3.261,2.872c0,1.61-1.442,1.091-2.642,1.549c-0.719,0.289-1.054,0.922-1.438,1.901v0.686h0.719
		c0.193-0.226,0.193-0.226,0.482-0.399h0.719c0,1.377,1.485,2.07,2.159,2.872h-0.862c-0.915-0.633-1.442-1.607-2.974-1.607
		c-0.482,0-1.203-0.229-1.203,0.576c0,1.031,1.006,1.205,1.585,1.724c-1.01,0.862-3.503,0-3.503,2.301
		c0,0.169,0.143,0.458,0.478,0.458c0.241,0,0.433-0.289,0.58-0.573c1.677,0.632,2.974,1.146,4.553,1.146
		c0.721,0,1.01-0.573,1.438-0.573h3.602c0.96,0,0.482,0.865,1.583,0.865c1.104,0,3.838-1.039,3.838-2.015
		c0-0.515-0.573-0.46-0.719-0.46h-1.196c0-1.957,2.011-0.865,2.011-2.702c0-0.346-0.238-0.462-0.336-0.864h2.399
		c0.814-0.687,1.151-2.068,2.161-2.638c-0.289-0.811-0.816-1.04-1.392-1.386c0.912,0.113,1.487,0.23,1.392-1.033h-1.347
		c0.771-0.752,1.968-0.866,3.024-1.267c0.769-0.284,1.826,0.4,2.493-0.174c1.44-1.259,2.546-3.56,4.464-4.308
		c1.727-0.692,4.413-1.496,5.519-2.819c-1.203-0.059-3.121,0.4-3.599-0.176c2.541-1.485,4.896-0.458,6.812-2.183
		c0.337-0.287,1.198-0.113,1.198-0.858c0-1.035-2.543-0.749-3.114-1.441c-0.289-0.342-0.289-0.804-0.819-0.972
		c-0.334-0.116-0.525-0.232-0.864-0.461l-3.836,1.321c0.385-0.114,0.526-0.23,0.865-0.634c-0.958-1.151-5.09-0.979-6.241-0.979
		h-1.34c-0.437,0-0.721-0.402-1.439-0.402c-0.674,0-0.865,0.979-1.538,0.979c-0.717,0-0.954-0.688-1.822-0.688
		c-0.241,0-0.48,0.171-0.576,0.402h-5.517c-0.48,0-0.864,0.173-1.104,0.744c-0.626,0.632-0.146,0.114-0.96,0.114
		c-1.391,0-1.968,1.21-2.396,2.587c-0.433-0.171-2.307-1.26-3.217-1.26c-1.006,0-0.385,1.26-1.916,1.26
		c0,0.233-0.197,0.464-0.387,0.464h-1.054c-1.395,0-4.514,0.686-4.8,2.123h1.058C104.255,9.081,104.541,8.912,104.83,8.795z"/>
	<path fill="#EEEEEE" d="M198.53,47.773c-1.006-0.398-5.278-0.168-5.278-1.896c0.239-0.059,1.059-0.232,1.059-0.747
		c0-0.456-0.48-0.633-0.48-1.439c0.237,0.175,0.48,0,0.719,0c1.964,0,1.488,2.873,3.743,2.873c0.523,0,1.296-0.057,1.296-0.687
		c0-3.281-3.075-4.255-4.8-6.32V38.69c0.098,0,0.241,0.062,0.623,0c0.289,1.092,1.774,2.592,2.644,2.592
		c0.571,0,0.717-0.924,0.717-1.614c0-1.556-2.157-1.034-2.639-2.586h0.721c0.385,0.634,0.91,0.923,1.438,1.325
		c0.384-1.21,2.304-0.461,2.637-2.186c-0.239-0.115-0.48-0.465-0.48-0.865c0.914-0.115,1.872-0.63,2.159-1.549
		c-0.575-0.234-1.918-0.178-1.918-1.149c0-0.752,0.767-0.752,1.538-0.752c-0.243-0.34,0-0.805,0-1.261
		c0-0.862-0.719-1.208-0.719-2.472c-0.674,0-1.536,0-1.536-0.979c0-0.402,0.433-0.864,0.956-0.864c0.866,0,3.362,0.517,3.362-0.86
		s-1.872-1.093-2.063-2.01c0.286,0,0.621-0.177,0.859-0.35c-0.479-0.457-1.148-1.09-1.917-1.09c-0.526,0-0.91,0.287-1.437,0
		c0.285-0.573,0.239-1.952,0.812-2.475c0.91-0.801,1.918-1.205,1.918-2.413c0-0.228,0.05-0.228,0-0.859
		c0.91-0.291,2.159-0.521,2.159-1.44c0-0.573,0.337,0.059,0-0.745c0.864-0.23,2.157-0.23,2.157-1.84
		c-0.383,0.344-0.428,0.344-1.004,0c2.159,0,3.167-1.668,4.748-2.298c0.289-0.118,1.201-0.632,1.201-1.327
		c0-0.746-2.252-2.012-2.88-2.012c-0.478,0-0.814,0.057-0.958,0.746h-2.303c-0.771,0.461-0.912,0.75-1.778,1.151
		c-0.187,0.058-1.1-0.168-1.1-0.168h-3.214c-0.771,0.69-3.197,4.48-4.444,4.881c0.146-0.571,3.243-4.482,3.243-4.996
		c0-0.868-0.335-1.725-1.199-1.725c-1.586,0-4.444,3.276-5.641,3.276c-0.387,0,1.707-2.42,1.8-2.879
		c-0.857-0.397-8.903,0.747-9.72,0l10.535-0.687c1.299-0.577,4.559-0.289,4.802-2.302c-1.203-0.343-2.882,0.056-4.179-0.571
		C192.438,2.188,190.329,0,187.496,0h-6.957c-2.445,0-4.317,1.612-6.62,1.612c-0.724,0-1.201-0.118-1.92,0V2.3h-0.96
		c-1.058-0.46-1.82-0.399-2.974-0.399c-1.586,0-2.785,0.399-4.082,1.145c0.248,0.407,0.631,0.466,0.963,0.865
		c-0.433,0.112-1.918-0.168-1.918,0.688c0,1.093,1.968,1.844,2.732,2.3h-2.159c-1.194-0.687-2.351-2.008-4.318-2.008
		c-0.478,0-1.196,0.058-1.196,0.744c0,0.462,0.238,0.808,0.385,1.264h-0.72c-0.962-0.456-1.778-0.342-2.307-1.432l-0.478,0.573
		c0,0.402,0.238,0.745,0.238,1.151c-0.909,0-1.152-1.725-2.016-1.725c-1.299,0-2.25,0.915-3.597,1.318
		c-1.824,0-2.541,0.572-4.461,0.86c-1.536,0.231-0.241,2.88-1.921,2.88c-0.479,0-0.861-0.118-1.246-0.462
		c-0.96,1.147-3.119,2.528-4.75,3.158c-0.239,0.059-0.961,0.348-0.961,0.866c0,1.091,2.735,1.037,3.602,1.151
		c0,1.435-0.529,2.47-1.295,3.045c-1.055,0.745-2.782-0.119-4.081,0.401c-0.91,0.344-1.439,0.979-2.304,1.322
		c-1.052,0.405-2.735-0.231-2.735,1.552c0,0.924,4.604,2.471,4.796,2.471h1.68c0.245,0,0.386-0.285,0.484-0.57h1.918
		c-0.144,0.633-0.144,0.86-0.622,1.264h-2.736c-0.241,0.4-0.385,0.461-0.862,0.461h-1.201c-0.383,0-1.345,0.344-1.442,1.146
		c0.914,0.406,0.623,0,1.681,0c0.576,0,1.151,0.636,1.921,0.976c-0.189,0.519-0.526,0.577-0.958,0.923
		c0.571,0.859,2.109,1.38,3.117,1.38c0.384,0,0.336,0.175,0.623-0.171c-0.142-0.056-0.332-0.288-0.48-0.466
		c0.241-0.111,0.435-0.223,0.961-0.223c0.573,0,1.008,0.46,1.438,0.46c0.623,0,0.912-0.753,1.538-0.753h1.438
		c5.374,0,8.729,5.004,10.076,9.951v0.857c0.433,0.061,1.199,0.117,1.199,0.979c0,1.318-1.054,1.204-1.054,2.472
		c0,0.862,0.428,0.976,1.295,0.976c0.623,0,0.767-0.976,1.196-0.976c1.59,0,2.016,2.698,3.502,3.273
		c-0.044,0.352,0,0.866-0.476,0.866c-1.151,0-1.873-0.866-2.881-0.866c-0.432,0-0.385-0.225-0.864,0
		c0.193,1.616,3.694,1.9,5.181,2.473c-0.428,1.61-1.149,2.184-1.436,3.91c-0.676-0.343-0.676-0.287-1.345,0.115v0.118
		c-0.96,0.916-1.249,2.065-1.921,3.155v1.33c0.289-0.298,0.624-0.232,0.961,0c-0.144,0.573-0.48,0.857-0.48,1.434
		c0,1.551,1.297,2.184,1.586,3.278c0.141,0.574,0.286,1.665,0.479,1.894c0.811,0.518,1.054-0.917,1.774,0.173
		c-0.336,0.403-0.721,0.345-0.721,1.092c0,1.667,1.824,4.258,2.782,5.179c0.144,0.113,0.048,0.916,0.335,1.146
		c0.769,0.689,1.249,0.287,1.585,1.609c0.576-0.06,1.343-0.749,2.014-0.749c1.201,0,1.105,2.592,2.305,2.592
		c0.289,0,0.382-0.344,0.958-0.406c0.098,0.35,0.239,0.578,0.58,0.578c1.29,0,0.717-2.991,1.82-3.624c-0.098-0.629,0-2.127,0-3.16
		c0-1.672,2.25-1.037,2.25-2.988c0-0.633-0.571-0.924-0.571-1.322c0-0.287,0.191-0.463,0.332-0.693c0-0.169-0.091-0.399-0.091-0.573
		c0-1.898,2.589-1.379,3.595-2.586c0.433-0.516,0.241-1.096,0.962-1.438v1.148h0.722c1.008-0.857,2.634-0.575,3.592-1.725
		c0.72-0.857,0.773-2.009,1.682-2.869l1.201-1.042c0-0.459,0.478-0.628,0.96-0.972h2.255c1.822-0.924,3.212-0.751,4.943-1.439
		c1.388-0.519,1.87-2.129,3.451-2.761C197.334,48.521,197.813,48.462,198.53,47.773z"/>
	<path fill="#EEEEEE" d="M152.858,95.257c0-0.225-0.146-0.57-0.334-0.57c-0.771,0-1.062,0.976-1.442,1.723
		c-0.719,1.321-1.249,3.912-2.592,4.709c0.046,0.175,0.239,0.293,0.38,0.293v0.341c0,0.058-0.857,0.867-0.857,1.092
		c0,0.175,0.236,0.579,0.478,0.579c0.573,0,0.77-0.341,1.488-0.341c0.525,0,0.814,0.397,1.438,0.397
		c0.337,0,0.626-0.118,0.958-0.284c0.243,0.572,0.864,0.228,1.345,0.228c-0.142,0.345-0.528,0.345-0.528,0.92
		c0,0.113,0.193,0,0.289,0c0.574,0,1.01-0.863,1.393-1.559c0.383,0.465,0.094,1.559,0.48,1.559c0.143,0,0.238,0.113,0.38,0.113
		c0,0.227,0.1,0.688,0.437,0.688c0.476,0,0.765-0.688,0.765-1.376c0-0.572-0.335-0.519-0.335-1.21
		c-0.286,0.227-0.146,0.345-0.625,0.345c0-0.398-0.337-0.632-0.337-0.918c0-0.232,0.433-0.344,0.482-0.866
		c-0.189,0-0.435,0.059-0.528,0.175c0-0.861,0.046-1.382,0.046-1.896c-0.237,0.175-0.86,0.175-1.391,0l-0.575,0.229v-0.283h-0.862
		V98.82l0.241-0.281c-0.191-0.236-0.48-0.294-0.77-0.294c-0.334,0-0.334,0.347-0.719,0.462v-0.513
		C151.847,97.149,152.858,96.528,152.858,95.257z"/>
	<path fill="#EEEEEE" d="M118.265,92.387c0.045,0,0.238,0.054,0.238,0c0-0.807-0.814-0.978-1.631-0.978
		c0.05,0.112,0.05,0.287,0,0.401C117.158,92.156,117.834,92.387,118.265,92.387z"/>
	<path fill="#EEEEEE" d="M55.941,99.745c0.769,0.576,2.445,2.126,3.549,2.126h0.435v-0.519c-1.247-1.495-2.4-2.871-4.464-3.68
		c-0.339-0.115-0.767-0.806-1.296-0.806c-0.235,0-0.477,0.174-0.672,0.284h0.195c0,0,0.477,0.174,0.72,0.235
		c-0.053,0.171-0.243,0.401-0.479,0.515c0.189,0.69,1.531,1.268,2.494,1.268C56.278,99.346,56.039,99.346,55.941,99.745z"/>
	<path fill="#EEEEEE" d="M48.745,91.928c0-0.291-0.241-0.406-0.241-0.69c0-0.573,0.098-0.923,0-1.264
		c-0.091,0.282-0.284,0.74-0.621,0.74c-0.289,0,0.287-0.627,0.287-0.687c-0.433-0.054-0.674-0.406-1.105-0.406v0.466
		c0.195,0.345,0.384,1.031,0.575,1.031c0.291,0,0.385,0.634,0.773,0.749c0,0.113-0.193,0.289-0.193,0.632
		c0,0.463,0.284,1.091,0.669,1.091c0.479,0-0.385-0.862-0.385-1.091C48.504,92.273,48.745,92.156,48.745,91.928z"/>
	<path fill="#EEEEEE" d="M17.748,81.807v0.69c0.341,0.285,0.582,0.344,1.008,0.754c0.721-0.695,1.01-1.1,1.872-1.616v-0.69h-0.573
		C19.192,80.944,18.566,81.52,17.748,81.807z"/>
	<path fill="#EEEEEE" d="M144.411,99.911c-1.008-0.685-1.92-1.777-3.405-1.372c0.577,0.514,1.968,1.72,2.734,1.72
		C144.122,100.259,144.269,100.203,144.411,99.911z"/>
	<path fill="#EEEEEE" d="M141.436,104.745c-0.096,0.057-0.191,0.227-0.191,0.401c0,0.399,1.775,1.495,2.114,1.495
		c0.095,0,0.573-0.291,0.573-0.635v-0.345h-1.438C142.016,105.546,141.675,105.318,141.436,104.745z"/>
	<path fill="#EEEEEE" d="M146.955,106.642v-0.4c-1.105,0-0.383-0.347-0.383-0.866c0-0.229-0.241-0.343-0.336-0.573
		c-0.433,0.17-1.104,1.611-1.104,1.959c0,0.342,0.288,0.628,0.767,0.628C146.425,107.389,146.955,107.043,146.955,106.642z"/>
	<path fill="#EEEEEE" d="M2.063,74.91c-0.385,0-0.532-0.114-0.721,0.399h-0.72c0.094,0.229,0.38,0.406,0.573,0.578h1.588
		C2.685,75.31,2.639,74.91,2.063,74.91z"/>
</g>
</svg>
